<svg xmlns="http://www.w3.org/2000/svg" width="24" height="24" fill="none" xmlns:v="https://vecta.io/nano"><g clip-path="url(#B)" fill="#0a7f2e"><path d="M14.105 2.213a1.01 1.01 0 0 0-.74.313L7.888 8.003H3.579a1.01 1.01 0 0 0-.74.312 1.01 1.01 0 0 0-.313.74v6.316a1.01 1.01 0 0 0 .313.74 1.01 1.01 0 0 0 .74.313h4.309l5.477 5.477a1.01 1.01 0 0 0 .74.312c.285 0 .532-.104.741-.312a1.01 1.01 0 0 0 .312-.74V3.266a1.01 1.01 0 0 0-.312-.74c-.209-.208-.455-.313-.741-.313zm6.669 7.664c-.466-.724-1.082-1.234-1.85-1.53-.11-.055-.247-.082-.411-.082-.285 0-.532.102-.74.304s-.313.452-.313.748a.89.89 0 0 0 .197.584c.131.159.29.296.477.411l.559.378c.186.137.345.332.477.584s.198.565.198.938-.066.685-.198.938-.291.447-.477.584l-.559.378a1.92 1.92 0 0 0-.477.411c-.132.159-.197.354-.197.584a1 1 0 0 0 .313.748c.209.203.455.304.74.304.164 0 .301-.027.411-.082.768-.307 1.384-.82 1.85-1.537s.7-1.494.7-2.327a4.24 4.24 0 0 0-.7-2.337z"/></g><g filter="url(#A)"><path transform="rotate(315 1 22.213)" fill="#0a7f2e" d="M1 22.213h30v1H1z"/></g><defs><filter id="A" x="0" y="0" width="23.92" height="23.92" filterUnits="userSpaceOnUse" color-interpolation-filters="sRGB"><feFlood flood-opacity="0" result="A"/><feColorMatrix in="SourceAlpha" values="0 0 0 0 0 0 0 0 0 0 0 0 0 0 0 0 0 0 127 0"/><feOffset/><feGaussianBlur stdDeviation=".5"/><feColorMatrix values="0 0 0 0 0 0 0 0 0 0 0 0 0 0 0 0 0 0 0.29 0"/><feBlend in2="A"/><feBlend in="SourceGraphic"/></filter><clipPath id="B"><path fill="#fff" transform="translate(2 2.213)" d="M0 0h20v20H0z"/></clipPath></defs></svg>