<svg xmlns="http://www.w3.org/2000/svg" width="60" height="60" fill="none" xmlns:v="https://vecta.io/nano"><g clip-path="url(#A)" fill="#0a7f2e"><path d="M0 0v42.581h16.452v15.484H3.871V60h52.258v-1.935H43.548V42.581H60V0H0zm18.387 42.581h1.936v15.484h-1.936V42.581zm19.355 0v15.484H22.258V42.581h15.484zm3.871 15.484h-1.936V42.581h1.936v15.484zm16.452-17.419H1.935V1.935h56.129v38.71zM0 58.065h1.935V60H0v-1.935zm58.065 0H60V60h-1.936v-1.935zM6.774 19.355a2.91 2.91 0 0 0 2.903-2.903 2.86 2.86 0 0 0-.363-1.376l5.058-5.621a2.89 2.89 0 0 0 1.111.223 2.89 2.89 0 0 0 .662-.083l5.761 8.96a2.88 2.88 0 0 0-.617 1.768 2.91 2.91 0 0 0 2.903 2.903 2.91 2.91 0 0 0 2.903-2.903c0-.286-.054-.558-.132-.819l5.956-4.331-.017.311a11.63 11.63 0 0 0 11.613 11.613 11.63 11.63 0 0 0 11.613-11.613A11.63 11.63 0 0 0 44.516 3.871a11.56 11.56 0 0 0-10.075 5.847c-1.412.196-2.505 1.398-2.505 2.863a2.83 2.83 0 0 0 .133.819l-6.233 4.532a2.89 2.89 0 0 0-1.642-.512 2.89 2.89 0 0 0-.662.083l-5.761-8.96a2.88 2.88 0 0 0 .617-1.768 2.91 2.91 0 0 0-2.903-2.903 2.91 2.91 0 0 0-2.903 2.903 2.86 2.86 0 0 0 .363 1.376l-5.059 5.621a2.89 2.89 0 0 0-1.11-.223 2.91 2.91 0 0 0-2.903 2.903 2.91 2.91 0 0 0 2.903 2.903zm38.71-13.499a9.57 9.57 0 0 1 3.389 1l-3.389 3.389v-4.39zm0 19.257v-8.66h8.66c-.455 4.565-4.096 8.206-8.66 8.66zm4.272-10.596l3.39-3.39a9.6 9.6 0 0 1 1 3.39h-4.39zm2.321-5.057l-5.057 5.057h-1.535v-1.535l5.058-5.057a9.74 9.74 0 0 1 1.535 1.535zm-8.528-3.586v19.239c-4.883-.487-8.71-4.619-8.71-9.628a2.91 2.91 0 0 0 2.903-2.903 2.9 2.9 0 0 0-1.296-2.415c1.604-2.439 4.196-4.004 7.102-4.293zm-8.71 5.74a.97.97 0 0 1 .968.968.97.97 0 0 1-.968.968.97.97 0 0 1-.968-.968.97.97 0 0 1 .968-.968zm-9.677 8.71a.97.97 0 0 1-.968.968.97.97 0 0 1-.968-.968.97.97 0 0 1 .968-.968.97.97 0 0 1 .968.968zM15.484 5.806a.97.97 0 0 1 .968.968.97.97 0 0 1-.968.968.97.97 0 0 1-.968-.968.97.97 0 0 1 .968-.968zm-8.71 9.677a.97.97 0 0 1 .968.968.97.97 0 0 1-.968.968.97.97 0 0 1-.968-.968.97.97 0 0 1 .968-.968zM3.871 36.774h1.935v1.935H3.871v-1.935zm3.871 0h19.355v1.935H7.742v-1.935zm-3.871-3.871h1.935v1.935H3.871v-1.935zm3.871 0h19.355v1.935H7.742v-1.935zm-3.871-3.871h1.935v1.936H3.871v-1.936zm3.871 0h19.355v1.936H7.742v-1.936zm-3.871-3.871h1.935v1.936H3.871v-1.936zm3.871 0h19.355v1.936H7.742v-1.936z"/></g><defs><clipPath id="A"><path fill="#fff" d="M0 0h60v60H0z"/></clipPath></defs></svg>