<svg xmlns="http://www.w3.org/2000/svg" width="20" height="20" fill="#666" xmlns:v="https://vecta.io/nano"><path d="M13.75 0h-7.5A6.25 6.25 0 0 0 0 6.25v7.5A6.25 6.25 0 0 0 6.25 20h7.5A6.25 6.25 0 0 0 20 13.75v-7.5A6.25 6.25 0 0 0 13.75 0zm4.375 13.75a4.38 4.38 0 0 1-4.375 4.375h-7.5a4.38 4.38 0 0 1-4.375-4.375v-7.5A4.38 4.38 0 0 1 6.25 1.875h7.5a4.38 4.38 0 0 1 4.375 4.375v7.5zM10 5a5 5 0 1 0 0 10 5 5 0 1 0 0-10zm0 8.125A3.13 3.13 0 0 1 6.875 10 3.13 3.13 0 0 1 10 6.875 3.13 3.13 0 0 1 13.125 10 3.13 3.13 0 0 1 10 13.125zm5.375-7.834c.368 0 .666-.298.666-.666s-.298-.666-.666-.666-.666.298-.666.666.298.666.666.666z"/></svg>