<svg xmlns="http://www.w3.org/2000/svg" width="20" height="20" fill="none" xmlns:v="https://vecta.io/nano"><path d="M9.999.208C4.478.208 0 4.703 0 10.248a10.04 10.04 0 0 0 6.84 9.526c.5.093.683-.218.683-.484l-.014-1.707c-2.781.606-3.369-1.346-3.369-1.346-.454-1.16-1.11-1.469-1.11-1.469-.909-.623.068-.61.068-.61 1.004.071 1.531 1.035 1.531 1.035.893 1.534 2.341 1.091 2.911.834.09-.649.349-1.091.635-1.343-2.22-.254-4.555-1.115-4.555-4.961a3.89 3.89 0 0 1 1.03-2.695c-.104-.254-.446-1.275.097-2.656 0 0 .84-.27 2.75 1.029a9.54 9.54 0 0 1 2.504-.338c.849.005 1.705.115 2.504.339 1.909-1.299 2.747-1.029 2.747-1.029.545 1.383.203 2.403.1 2.656.641.703 1.027 1.599 1.027 2.695 0 3.856-2.337 4.705-4.565 4.954.359.31.679.922.679 1.859l-.013 2.754c0 .269.18.581.688.482A10.04 10.04 0 0 0 20 10.248C20 4.703 15.523.208 9.999.208z" fill="#fff"/></svg>