<svg xmlns="http://www.w3.org/2000/svg" width="60" height="60" fill="none" xmlns:v="https://vecta.io/nano"><g clip-path="url(#A)" fill="#0a7f2e"><path d="M58.066 58.065h1.935V60h-1.935v-1.935zM0 58.065h1.935V60H0v-1.935zm60-15.484c0-7.854-5.228-14.505-12.386-16.671.475-.569.773-1.291.773-2.088a3.26 3.26 0 0 0-2.059-3.043L29.007 13.85c-.455-.182-.927-.314-1.402-.392l-4.379-.73v-.671c1.185-1.064 1.936-2.601 1.936-4.316V5.806C25.161 2.604 22.557 0 19.355 0s-5.806 2.604-5.806 5.806v1.935a5.79 5.79 0 0 0 1.935 4.316v.793l-6.725 2.242a2.9 2.9 0 0 0-1.985 2.753v15.541a3.35 3.35 0 0 0 .34 1.452H1.935A1.94 1.94 0 0 0 0 36.774v7.742a1.94 1.94 0 0 0 1.935 1.935h9.677v11.613H3.871V60h52.258v-1.935h-5.604C56.142 55.17 60 49.323 60 42.581zm-1.935 0c0 8.537-6.947 15.484-15.484 15.484s-15.484-6.947-15.484-15.484 6.947-15.484 15.484-15.484 15.484 6.947 15.484 15.484zm-30.968-7.943V21.29h1.76l10.964 4.111c-5.554.89-10.234 4.402-12.724 9.236zM15.484 5.806c0-2.135 1.736-3.871 3.871-3.871s3.871 1.736 3.871 3.871v1.935c0 2.135-1.736 3.871-3.871 3.871s-3.871-1.736-3.871-3.871V5.806zm-2.713 30.968l-3.793 2.529c-.736.49-1.737.49-2.472 0l-3.793-2.529h10.058zM1.935 38.582l3.497 2.331a4.15 4.15 0 0 0 4.619 0l3.496-2.331.001 5.934H1.935v-5.934zm11.613 7.87a1.94 1.94 0 0 0 1.935-1.935v-7.742a1.94 1.94 0 0 0-1.935-1.935V19.355h-1.936v14.032c0 .801-.651 1.452-1.452 1.452s-1.452-.651-1.452-1.452V17.846c0-.417.266-.786.662-.918l8.048-2.682V13.21c.607.216 1.256.339 1.935.339s1.329-.124 1.935-.339v1.159l5.997.999a4.79 4.79 0 0 1 1 .281l17.321 6.928c.513.204.844.694.844 1.245 0 .739-.602 1.34-1.34 1.34h-.176c-.161 0-.319-.028-.471-.086l-15.257-5.72H25.16v38.71h-4.839v-26.13h-1.936v26.129h-4.839V46.452zm13.548 11.613v-7.541a17.53 17.53 0 0 0 7.54 7.541h-7.54zm14.516-22.259v7.742h4.839v-1.935h-2.903v-5.806h-1.935zm-7.842-3.507l1.26 1.469c1.859-1.594 4.165-2.553 6.581-2.757v2.86h1.935v-2.854c5.631.468 10.128 4.965 10.596 10.596h-2.854v1.935h2.86a11.61 11.61 0 0 1-2.757 6.58l1.47 1.261a13.55 13.55 0 0 0 3.266-8.809c0-7.471-6.077-13.548-13.548-13.548-3.226 0-6.353 1.161-8.809 3.267zm9.779 21.851v-2.86h-1.935v2.854c-5.631-.468-10.128-4.965-10.596-10.596h2.854v-1.935h-2.86a11.61 11.61 0 0 1 2.757-6.581l-1.47-1.261a13.55 13.55 0 0 0-3.266 8.809c0 7.471 6.077 13.548 13.548 13.548 3.226 0 6.353-1.16 8.809-3.267l-1.26-1.469c-1.859 1.595-4.166 2.554-6.581 2.757z"/></g><defs><clipPath id="A"><path fill="#fff" d="M0 0h60v60H0z"/></clipPath></defs></svg>