<svg xmlns="http://www.w3.org/2000/svg" width="597" height="615" fill="none" xmlns:v="https://vecta.io/nano"><style><![CDATA[.B{fill:#75b789}.C{fill:#699dee}.D{fill:#e49963}.E{fill:#d86713}.F{fill:#0a7f2e}.G{fill:#163560}.H{fill:#fff}.I{fill:#cfe1fd}.J{fill:#f1a34f}.K{fill:#afcdfb}.L{fill:#e9f3fe}.M{fill:#233862}.N{fill:#2b478b}.O{fill:#dd9891}]]></style><g clip-path="url(#A)"><g clip-path="url(#B)"><g clip-path="url(#C)"><path d="M402.817 490.408h40.222v-164.14h-40.222v164.14z" class="F"/><path d="M384.037 490.408h29.556v-164.14h-29.556v164.14z" class="B"/><path d="M405.907 473.02c0 3.99-2.956 7.226-6.597 7.226s-6.598-3.236-6.598-7.226 2.956-7.225 6.598-7.225 6.597 3.234 6.597 7.225" class="F"/><path d="M461.816 490.409h40.222v-164.14h-40.222v164.14z" class="C"/><path d="M443.037 490.408h29.554V326.269h-29.554v164.139z" class="K"/><path d="M464.906 473.021c0 3.989-2.951 7.225-6.595 7.225s-6.598-3.236-6.598-7.225 2.955-7.226 6.598-7.226 6.595 3.234 6.595 7.226z" class="C"/><path d="M464.906 429.126h-13.193v-86.152h13.193v86.152z" class="H"/><path d="M520.127 490.409h40.221v-164.14h-40.221v164.14z" class="E"/><path d="M501.351 490.408h29.552v-164.14h-29.552v164.14z" class="J"/><path d="M523.221 473.02c0 3.989-2.954 7.225-6.599 7.225s-6.596-3.236-6.596-7.225 2.951-7.225 6.596-7.225 6.599 3.233 6.599 7.225z" class="E"/><g class="H"><path d="M523.221 429.126h-13.195v-86.153h13.195v86.153zm-117.81 1.103h-13.196v-86.152h13.196v86.152z"/></g><path d="M306.26 294.461l14.183 184.664s1.487 11.193-6.117 11.214h-62.221s9.41-2.331 9.294-7.575c-.133-6.179-16.574-190.05-16.574-190.05l61.435 1.747z" class="E"/><path d="M248.072 486.987h62.12c5.306-.072 6.236-5.166 6.281-8.461.021-1.581-.162-2.751-.162-2.751l-.367-4.799-.942-12.232-.829-10.808-1.068-13.888-.899-11.723L302.13 291.11l-61.436-1.747 11.824 132.962 1.547 17.81.453 5.225 1.23 14.464.524 6.297.996 13.294c.003.535-.04 1.033-.121 1.496-1.009 5.883-8.15 6.076-9.075 6.076" fill="#ee9849"/><path d="M160.508 193.976h294.957l-34.544 151.953-4.728 20.812-16.088 70.775H101.209l59.299-243.54z" class="J"/><path d="M455.463 193.976l4.788 1.749-53.786 247.078-6.364-5.284 55.362-243.543z" fill="#ee9849"/><path d="M406.466 442.803H109.412l-8.203-5.284h298.893l6.364 5.284z" class="E"/><path d="M237.833 490.409h64.318v-3.347h-64.318v3.347z" class="J"/><path d="M254.186 442.803l.332 2.557 60.485 13.384-.829-10.808-.396-5.133h-59.592z" class="E"/><path d="M295.281 487.062h-14.402l-32.81-.074c.925 0 8.066-.193 9.077-6.076a8.66 8.66 0 0 0 .119-1.445v-.051c-.005-.918-.369-5.74-.994-13.294l60.2 12.404c-.045 3.295-.975 8.39-6.281 8.462l-14.909.074z" fill="#e58433"/><path d="M288.58 487.065c-2.52 0-5.109 0-7.7-.003h14.401l-6.701.003z" fill="#e78b37"/><path d="M400.105 437.515l-.004.004z" fill="#bba767"/><path d="M400.103 437.517l-127.415-47.845 138.296-.028-10.884 47.875" fill="#e78b37"/><path d="M400.103 437.516l-.002.003 1.992-8.762-1.99 8.759z" fill="#e58433"/><path d="M160.507 193.975h294.957L411.01 389.643l-298.361.064 47.858-195.732z" class="J"/><path d="M242.731 414.45c.852-4.802 5.096-8.693 9.48-8.693s7.245 3.891 6.393 8.693-5.095 8.69-9.48 8.69-7.245-3.891-6.393-8.69z" class="E"/><path d="M126.561 381.226H402.73l31.275-136.448 2.396-10.464 2.049-8.925 4.796-20.929h-272.19l-5.267 20.929-39.228 155.837" class="L"/><path d="M171.056 204.46h272.19l-4.796 20.929H165.789l5.267-20.929z" class="B"/><g class="L"><path d="M430.194 211.303c1.321 0 2.123 1.169 1.795 2.616s-1.668 2.616-2.986 2.616-2.123-1.173-1.792-2.616 1.665-2.616 2.983-2.616zm-7.939-.002c1.318 0 2.122 1.171 1.794 2.618s-1.663 2.615-2.982 2.615-2.126-1.17-1.797-2.615 1.666-2.618 2.985-2.618zm-11.53 2.618c.329-1.446 1.664-2.616 2.984-2.616s2.123 1.17 1.79 2.616c-.326 1.445-1.664 2.616-2.981 2.616s-2.122-1.171-1.793-2.616z"/></g><g class="M"><path d="M26.863 471.596s-3.516 3.568-2.83 6.102 3.858 4.226 4.287 7.326 2.143 4.788 3.687 4.788h7.358s1.136-2.179-1.608-2.837-3.778-4.298-3.607-7.68-.257-7.886-.257-7.886l-5.831-1.504-1.2 1.691m63.736 18.211H71.059a1.5 1.5 0 0 1-.381-.126c-1.302-.712-.896-6.169-.739-7.86l.052-.499s6.861-6.007 7.803-1.406l.102.425c1.186 4.302 6.512 6.261 9.587 6.806 2.345.416 2.955 1.91 3.114 2.66"/></g><path d="M86.631 366.859l-2.252 30.716-3.839 56.054c-.34 9.204-1.705 23.926-1.705 23.926s-3.236 3.499-9.712 2.023c0 0-5.771-21.014-7.419-43.25l-.077-1.1-3.918-70.301 28.921 1.932z" class="C"/><path d="M86.668 366.613l-2.266 31.346-22.821 39.547-.077-1.123-3.943-71.741 29.108 1.971z" fill="#4a75cb"/><path d="M81.911 368.304s-18.778 51.551-31.125 75.779L34.58 475.071s-7.074-3.099-7.717-5.212c0 0 4.722-46.77 12.99-58.172 4.672-6.444 10.161-25.776 10.418-32.538s1.672-20.142 1.672-20.142l29.967 9.297" class="C"/><g fill="#ffb27d"><path d="M100.9 354.072l1.073 2.342s5.458.835 3.956 7.066c0 0-.81 2.565-2.315 1.753s-.764-.743-2.921-1.833-3.405-3.19-2.923-5.115l-.346-2.038 3.475-2.175zm-28.621-65.346c.835-5.397.86-8.598.86-8.598l-9.527-8.407c.354 11.561-6.411 17.121-6.411 17.121s12.696 6.845 20.035 4.31c0 0-1.807-2.529-4.956-4.426"/><path d="M75.384 279.938s-12.121 2.206-13.258-6.081-3.468-13.584 4.222-15.342 9.632 1.154 10.625 3.819 1.534 16.818-1.59 17.604z"/></g><path d="M62.205 274.427s.245-11.101 11.288-12.882c7.564-1.221 2.983-8.143 2.119-9.238 0 0-5.782 1.208-11.701 2.63-12.422 2.986-3.019 17.84-1.706 19.49" class="G"/><path d="M99.628 357.329c1.62-1.823 2.823-4.192 2.823-4.192L87.56 332.456c-1.119-1.944-9.483-33.109-9.483-33.109l-21.15-4.694 20.578 44.75c4.833 8.035 19.291 19.995 19.291 19.995s1.558-.64 2.831-2.069" class="F"/><path d="M87.477 367.798a1.12 1.12 0 0 1-.771.321c-2.755-.038-10.791 1.637-17.59.871-5.732-.601-10.805-2.462-16.253-5.135-.724-.355-2.389-1.329-2.351-2.216.025-.969.112-2.375.223-4.146.386-6.158 1.058-16.751.402-28.973a139.57 139.57 0 0 1-.187-6.755c-.056-16.56 2.891-31.211 8.917-36.141.515-.404 3.726 1.37 6.63 2.938 2.683 1.449 4.559 1.416 7.093.853l3.341 2.648c3.087 3.138 6.468 7.405 7.937 13.882 1.25 5.513 1.984 15.455 2.388 25.755l.369 13.844v.162a17.56 17.56 0 0 1 .036 1.37c.148 11.466 0 20.56-.183 20.722" class="B"/><path d="M50.735 357.493c.386-6.158 1.058-16.751.402-28.973-.118-2.274-.18-4.531-.187-6.754 2.51-6.668 4.562-11.505 4.562-11.505h6.327s4.639 34.699-11.104 47.232z" class="F"/><path d="M38.425 359.65l-1.201 2.267s2.353 5.457-3.229 7.498c0 0-2.402.663-2.607-1.162s.149-1.105-.2-3.681.569-4.865 2.303-5.48l1.368-1.434 3.565 1.992z" fill="#ffb27d"/><path d="M35.241 360.27c2.279.485 4.749.29 4.749.29l7.635-24.976c.871-2.09 20.092-26.832 20.092-26.832l-8.007-21.945-22.901 43.374c-3.488 8.832-4.699 28.631-4.699 28.631a8.36 8.36 0 0 0 3.132 1.458" class="B"/><path d="M277.947 350.388H149.019l44.073-195.282h128.931l-44.076 195.282z" class="K"/><path d="M258.689 338.205H129.76l44.076-195.283h128.929l-44.076 195.283" fill="#c0d8f9"/><path d="M237.822 324.28H108.893L152.967 129H281.896L237.822 324.28Z" fill="#d4e3f4"/><g class="C"><path d="M300.136 155.11l-40.79 181.927-107.186 1.17 110.421 2.66 37.555-185.757zm-21.412-12.188l-38.753 180.19-107.186 1.167 109.003 2.95 36.936-184.307z"/></g><path d="M184.105 196.675H148.05l11.287-49.605h36.057l-11.289 49.605" class="L"/><g class="K"><path d="M266.423 153.925h-64.602l1.589-6.855h64.602l-1.589 6.855zm-2.913 14.067h-64.604l1.589-6.853h64.604l-1.589 6.853zm-3.047 14.07h-64.604l1.592-6.853h64.601l-1.589 6.853m-3.576 14.07h-64.602l1.589-6.852h64.602l-1.589 6.852zm0 14.651H138.626l1.589-6.855h118.26l-1.588 6.855m-3.157 14.648H135.469l1.589-6.852h118.26l-1.588 6.852m-4.37 16.5H131.099l1.589-6.853h118.261l-1.589 6.853zm-3.974 14.245H127.125l1.589-6.853h118.261l-1.589 6.853"/></g><path d="M187.882 204.517c-.037.128-.087.254-.15.367-.711 1.255-12.432 1.316-13.77.265-.598-.473-.781-6.965-.8-14.003l.202-18.226s4.586 2.331 4.811 5.199-1.706 20.108-.366 21.162 7.517 1.19 9.578 1.853c0 0 .876 2.064.495 3.383" class="B"/><path d="M176.027 153.14c-.803-.913-2.112-.999-2.958-1.065.244-.211.678-.24.678-.24-.506-.16-1.732.24-1.732.24s-4.095-3.082-6.872 2.936c0 0 .406-.424.95-.897-1.603 3.461-1.068 9.118 2.515 10.62 2.33.976 15.637-2.222 7.419-11.594" class="G"/><path d="M173.544 174.359c.021.013-2.478 1.012-4.177.236-1.601-.732-2.404-3.238-2.38-3.241.718-.054 1.047-1.08 1.57-5.621l.307.113 5.199 1.915-.547 3.552c-.176 1.455-.258 2.845.028 3.046" class="D"/><path d="M174.063 167.761l-.547 3.552c-2.976-.514-4.201-3.722-4.652-5.467l5.199 1.915z" fill="#d68d5d"/><path d="M168.391 165.13s-1.248-2.93-1.347-5.298c-.074-1.691 1.42-7.709 6.939-6.029 0 0 1.613.408 3.012 1.761 1.114 1.078 2.644 3.275.042 8.343l-.725 1.735-7.921-.512" class="G"/><path d="M174.865 169.541s-7.078-.875-6.511-5.694.033-8.18 4.576-7.824 5.204 2.318 5.374 3.976-1.581 9.646-3.439 9.542z" class="D"/><path d="M175.332 180.458c-.058-.568 1.047-.83 1.249-.303.375.985.336 2.154.42 3.1.244 2.709-.737 6.228-.737 6.228l-.932-9.025z" class="F"/><path d="M178.411 157.29c-.917-1.603-1.78-1.406-2.295-1.036-1.229-2.715-6.484.212-6.484.212-.881 3.391-3.394 5.048-3.394 5.048s1.187 1.056 4.255.64c2.411-.327 4.538-3.725 5.337-5.159.371.468 1.144 1.537 1.302 2.5.206 1.279.066 3.829.749 3.836 0 0 1.91-3.634.53-6.041" class="G"/><path d="M173.643 166.399s.058.629 1.459.732c0 0 1.179.087 1.221-.591 0 0-1.075-.638-2.68-.141z" class="H"/><path d="M187.882 204.517c-.037.128-.087.254-.15.367-.711 1.255-12.432 1.316-13.77.265-.598-.473-.793-8.541.857-15.502.392 4.17-.327 12.508 1.668 13.186 2.258.774 8.429.789 11.395 1.684" class="F"/><path d="M176.659 189.868c-4.652 14.708-2.532 17.371-4.194 18.643l-1.406.45c-1.725 1.252-1.551-.537-6.698 1.082-2.453.774-5.602 1.812-8.304 2.306-1.017.185-1.971.295-2.8.285-1.59-.023-2.724-.486-2.967-1.699-.71-3.524 5.665-11.708 5.058-17.998a3.94 3.94 0 0 1-.013-.162c-.034-.547.021-1.161.151-1.827.651-3.367 3.199-8.035 5.732-11.97 2.798-4.342 5.574-7.788 5.767-7.624 5.466 4.688 6.379 1.565 6.379 1.565s4.882 11.932 3.295 16.949" class="B"/><path d="M171.554 208.814c-1.723 1.252-2.046-.391-7.193 1.229l-8.304 2.305c-1.358.067-2.373.149-2.8.286-1.59-.024-2.724-.486-2.967-1.699-.71-3.524 5.665-11.708 5.058-17.998a3.94 3.94 0 0 1-.013-.162c-.043-.617.013-1.221.151-1.827.586-2.545 2.655-5.105 5.105-8.912 1.136 1.709 11.226 1.347 7.109 16.057-1.262 4.508 3.664 7.056 3.854 10.721" class="F"/><path d="M166.986 171.354s-8.049-1.023-9.991 3.018-3.266 19.023-1.693 23.811 12.818 12.549 14.118 12.98 2.397-1.693 2.371-1.945-11.23-13.127-11.038-14.271 6.233-23.593 6.233-23.593" class="B"/><g class="D"><path d="M435.847 466.664l-2.873 13.26-4.306-.028-.159-13.232h7.338m-36.222.566l-8.18 12.694-3.186-4.482 4.922-9.958 6.444 1.746z"/></g><path d="M420.892 292.423c1.488-.926 3.267-1.027 4.514-.946-.32-.363-.953-.495-.953-.495.774-.125 2.497.714 2.497.714 10.751-4.536 12.439 12.795 12.214 16.822s3.61 5.34 9.201 8.513c10.67 6.054 11.606 14.158 11.606 14.158-.081.054-.169.116-.261.185-.528-.982-1.619-2.828-2.539-3.105.036.09 1.087 2.539 1.478 3.943-3.146 2.621-9.034 8.43-13.137 12.551.02-.805-.013-1.948-.281-2.553l-.506 3.344-3.711 3.766c.271-3.254-13.437-20.424-20.589-25.565-1.739-2.807-2.36-7.767-2.405-8.157.3 3.932.914 6.137 1.462 7.378-6.055-6.103-2.53-28.101 1.41-30.553" class="G"/><path d="M420.85 324.009c-.037.018 3.45 2.003 6.077 1.216 2.469-.738 4.08-4.241 4.046-4.251-1.046-.226-1.346-1.8-1.324-8.561l-.472.103-7.947 1.723.188 5.318c.003 2.167-.118 4.221-.568 4.452" class="D"/><path d="M421.229 314.24l.188 5.318c4.444-.136 6.796-4.58 7.758-7.042l-7.946 1.724z" fill="#d68d5d"/><path d="M429.998 311.568s2.331-4.033 2.889-7.481c.4-2.462-.744-11.586-9.118-10.272 0 0-2.43.262-4.715 1.953-1.82 1.345-4.443 4.247-1.507 12.21l.76 2.69 11.691.9" class="G"/><path d="M389.561 471.961l4.209.142 4.56.151s10.532-12.841 16.439-33.425l.435-1.452c3.236-10.325 9.935-23.285 13.47-35.013l1.52-5.293.42-1.57c2.602-9.906 3.357-16.409 4.05-23.357l-25.503.224s-4.119 47.443-19.6 99.593" class="N"/><path d="M412.729 356.318c.064 13.292-1.781 18.995-1.781 18.995s10.923 6.077 23.9 1.604c.155-.054 9.763-2.164 9.763-2.164-.219-.54-2.869-9.734-3.078-10.227-2.742-6.444-3.119-9.57-3.446-11.552-.602-3.698-.615-7.526-.313-11.134.792-9.554 3.147-17.486 3.147-17.486-3.537-.882-6.85-2.429-10.53-3.941-.846 1.154-3.436 2.362-5.68 2.306-2.586-.062-3.423-1.275-3.29-2.596-2.755 1.678-4.951 3.264-4.951 3.264-2.343 4.455-7.091 8.778-7.436 15.612-.083 1.679 3.695 16.947 3.695 17.319" fill="#e7f1fd"/><path d="M397.924 336.573c3.744-4.789 13.443-15.178 23.454-16.45l-8.636 18.427s-.488 3.159-3.046 4.999c-6.263 4.511-14.23 6.503-14.23 6.503s-5.395-2.578-12.769-8.495c-2.316-1.858-6.385-8.942-6.385-8.942l1.099-4.023s6.905 4.231 9.373 5.449l6.923 3.527c1.45.747 3.175.339 4.217-.995z" class="C"/><path d="M419.746 316.682s10.518.191 10.525-6.986 1.372-11.987-5.346-12.411-8.025 2.312-8.56 4.707.643 14.456 3.381 14.69z" class="D"/><g class="G"><path d="M420.135 297.109s2.88 8.42 7.299 9.665 6.339-.052 6.339-.052-3.391-2.95-4.093-8.1c0 0-7.373-5.521-9.545-1.513z"/><path d="M420.85 297.791s-2.153 1.88-2.676 3.707-.759 5.591-1.763 5.462c0 0-2.172-5.722.272-8.96 2.585-3.433 4.167-.209 4.167-.209"/></g><g class="D"><path d="M377.41 328.593s-1.484-5.853-7.36-5.025c-.675.231-2.644 1.092-1.384 3.4.927 1.704 1.329.825 2.791 3.115s3.044 2.805 4.856 2.532l1.097-4.022zm55.708 150.588s-.348 2.627.547 5.437c0 0 .705 3.516-2.458 3.583s-3.936-.262-3.579-2.419l1.038-5.886 4.452-.715"/></g><path d="M427.332 489.702s.068.046.198.115h6.188c.121-.069.177-.115.177-.115.357-1.763-.227-5.084-.227-5.084-3.581 3.593-5.824-.09-5.824-.09-.581 1.537-.512 5.174-.512 5.174" class="E"/><path d="M380.639 486.135s5.829-7.087 7.619-10.693l4.336 2.431-9.692 9.968-2.266-.326.003-1.38" class="D"/><path d="M377.019 489.818h7.979c.769-.63 1.487-2.085 2.38-4.038.472-1.041 1.542-1.617 2.637-1.933v5.904h1.657l1.568-6.274c1.03-2.08.083-3.964-.647-5.604-.844-.002-3.115.63-7.424 5.945-1.416 1.746-2.978 2.37-4.531 2.316a.33.33 0 0 1-.063.037c-2.601 1.279-3.342 2.87-3.556 3.647" class="E"/><path d="M421.42 320.124s-6.085 16.468-6.267 19.799-.715 54.502-.715 54.502.358 2.352-3.76 1.372-5.189-1.961-5.189-1.961 3.936-31.564 2.861-42.542 8.238-28.882 8.238-28.882l4.832-2.288" class="C"/><path d="M393.771 472.103l4.561.151s10.529-12.841 16.437-33.425l.438-1.452c3.232-10.325 9.933-23.285 13.467-35.013l1.521-5.292.419-1.571-3.756-3.123s-11.278 19.997-14.765 38.817c-3.035 16.345-15.176 36.016-18.322 40.908z" class="M"/><path d="M426.467 432.946c-.067 9.152.356 30.194 1.446 38.902h4.039l3.344-.034c2.733-15.144 4.672-27.677 6.089-38.475l2.982-22.997c.797-6.583 1.353-12.094 1.551-16.749l.069-2.141.01-2.028-22.038-2.351c.276 16.033 2.543 40.555 2.508 45.873" class="N"/><path d="M431.949 471.848l3.343-.033c2.733-15.144 4.675-27.677 6.089-38.475l2.983-22.997c.798-6.583 1.354-12.093 1.551-16.748l-8.084 5.207s5.161 1.995 3.191 17.09-6.334 53.821-9.073 55.956" class="M"/><path d="M430.908 393.445s1.553 6.14 6.923 5.356 13.008-4.313 13.008-4.313l-5.149-18.375c-3.455-12.631-7.731-28.914-9.749-39.185-.564-2.879-.949-5.282-1.094-7.004l-4.456-9.467s-6.64 16.33-6.999 20.447 7.516 52.541 7.516 52.541" class="C"/><path d="M431.149 349.53c.239 6.665 1.671 19.605 14.44 26.532.035.015.07.036.102.051-3.456-12.631-7.731-28.914-9.748-39.185-2.345 3.838-4.927 8.932-4.794 12.602" fill="#4a75cb"/><path d="M375.352 312.731l-4.023 4.41-16.017-17.538 4.027-4.411 16.013 17.539z" class="N"/><g fill="#c65447"><path d="M458.892 409.301l-1.403 1.54c-2.767 3.027-7.245 3.027-10.012 0l-78.368-85.827c-2.767-3.028-2.767-7.935 0-10.963l1.404-1.538c2.763-3.027 7.245-3.027 10.009 0l78.37 85.828c2.764 3.025 2.764 7.934 0 10.96zM351.318 293.028c-23.273 25.491-61.012 25.491-84.286 0s-23.276-66.819 0-92.308 61.013-25.491 84.286 0 23.277 66.818 0 92.308zm-89.505-98.023c-26.157 28.646-26.157 75.091 0 103.737s68.567 28.646 94.725 0 26.157-75.091 0-103.737-68.567-28.647-94.725 0z"/></g><path d="M436.269 340.29l-5.879-19.833c.019.008 7.427 2.417 11.157 4.478 0 0 2.328 3.29 3.773 10.88 0 0 1.521 18.224-1.878 24.889 0 0-10.744 2.352-27.928-4.118v-4.313l22.646 1.571-1.891-13.554" class="D"/><path d="M430.393 320.457s10.899.84 13.528 7.246 3.46 27.708.117 33.98c0 0-4.598 1.436-12.737-.232-.099-.018-.201-.041-.299-.061 0 0-2.598-6.961-.271-8.331 0 0 6.864.391 6.147-2.092s-6.485-30.51-6.485-30.51z" class="C"/><path d="M417.442 353.421s-1.496-1.986-1.817-4.017-1.31-3.534-3.896-3.904-3.695-.414-3.686.385c.003.797 2.109 6.367 5.818 9.693s3.581-2.157 3.581-2.157z" class="D"/><path d="M274.789 266.865l3.945-17.483.35-.38-3.91 17.442-.385.421z" class="I"/><path d="M341.345 193.979h-12.02l6.637-7.269c2.611 1.396 5.151 3.01 7.591 4.848l-2.208 2.421" fill="#f3f7fb"/><path d="M331.772 204.462h-12.019l9.574-10.485h12.019l-9.574 10.485z" fill="#f7c895"/><path d="M304.026 234.847l2.134-9.461h6.505l-8.639 9.461z" fill="#f2f8fe"/><path d="M312.666 225.387h-6.503l1.809-8.021 11.785-12.906h12.018l-19.109 20.927" class="B"/><path d="M278.326 262.992l3.417-16.902 26.226-28.724-1.81 8.022-2.135 9.461-25.698 28.143z" class="I"/><path d="M260.872 282.108a67.4 67.4 0 0 1-4.455-8.282l22.318-24.444-3.946 17.484-13.917 15.242z" fill="#d9e8fb"/><path d="M275.174 266.444l3.91-17.442 2.659-2.912-3.417 16.902-3.152 3.452z" fill="#a5c4f5"/><path d="M343.554 191.557c-2.439-1.838-4.98-3.453-7.59-4.847l.275-.302c2.636 1.428 5.162 3.059 7.56 4.881l-.245.268" class="O"/><path d="M281.312 237.972l12.517-55.455.176-.054-12.366 55.152-.327.357" class="I"/><path d="M321.484 193.976h-8.233l3.037-13.468c4.818.57 9.577 1.779 14.177 3.632l-8.981 9.836z" fill="#f3f7fb"/><path d="M311.91 204.462h-1.028l2.368-10.486h8.233l-9.573 10.486z" fill="#f7c895"/><path d="M310.547 205.955l.337-1.496h1.027l-1.364 1.496z" class="B"/><path d="M283.973 235.057l10.671-52.78c4.977-1.433 10.087-2.148 15.2-2.148a54.89 54.89 0 0 1 6.444.381l-3.04 13.469-2.368 10.483-.336 1.495-26.571 29.1z" class="I"/><path d="M254.046 267.83l-.223-.664 13.538-67.543.34-.378c7.522-8.238 16.556-13.816 26.127-16.728l-12.516 55.455-27.266 29.858zm-1.286-4.198a71.74 71.74 0 0 1-.659-2.622l13.354-59.169.803-.959-13.498 62.75" fill="#d9e8fb"/><path d="M252.102 261.01c-1.186-5.133-1.817-10.507-1.817-16.044 0-2.005.082-3.986.244-5.945.409-4.596 1.263-9.153 2.561-13.589h.641l1.354-5.843c2.495-6.349 5.952-12.356 10.371-17.748l-13.354 59.169z" fill="#e5eef8"/><g fill="#a5c4f5"><path d="M281.638 237.615l12.366-55.152.641-.187-10.672 52.779-2.335 2.56m-27.815 29.551l-1.063-3.534 13.497-62.75 1.104-1.259-13.538 67.543"/></g><path d="M253.73 225.431h-.641l1.995-5.842-1.354 5.842z" class="I"/><path d="M250.53 239.02c2.741-33.262 28.269-59.327 59.355-59.327 7.347 0 14.38 1.459 20.88 4.122l-.299.327a55.29 55.29 0 0 0-14.175-3.635 54.69 54.69 0 0 0-6.445-.378c-5.111 0-10.224.714-15.199 2.146l-.642.189-.176.052c-9.571 2.914-18.603 8.49-26.126 16.728-.116.124-.23.252-.341.376a56.46 56.46 0 0 0-1.102 1.261l-.803.958c-4.419 5.394-7.876 11.4-10.372 17.749-.754 1.919-1.416 3.87-1.994 5.843-1.298 4.436-2.153 8.994-2.561 13.589" class="O"/><path d="M309.885 310.237c-7.715 0-15.086-1.609-21.855-4.532l2.159-9.551 64.615-70.766h11.784c2.546 8.678 3.392 17.828 2.535 26.818-3.289 32.64-28.556 58.031-59.238 58.031" fill="#f2f8fe"/><path d="M366.588 225.391h-11.784l8.372-9.172c1.359 2.977 2.497 6.045 3.412 9.172z" class="B"/><path d="M288.032 305.706l-4.547-2.21 6.703-7.341-2.156 9.551z" class="I"/><path d="M369.124 252.206c.857-8.99.011-18.14-2.536-26.818-.914-3.127-2.053-6.192-3.411-9.168l.154-.169c3.938 8.716 6.156 18.529 6.156 28.915 0 2.447-.124 4.861-.363 7.24" class="O"/><path d="M-22.46 491h604.921c.298 0 .539-.265.539-.592s-.241-.591-.539-.591H-22.46c-.297 0-.54.268-.54.591s.243.592.54.592z" fill="#283250"/></g></g></g><defs><clipPath id="A"><path d="M0 0h597v615H0z" class="H"/></clipPath><clipPath id="B"><path transform="matrix(1 -.000574 .000574 1 -.176758 0)" d="M0 0h597.166v615H0z" class="H"/></clipPath><clipPath id="C"><path d="M0 0h901v491H0z" class="H"/></clipPath></defs></svg>