<svg xmlns="http://www.w3.org/2000/svg" xmlns:xlink="http://www.w3.org/1999/xlink" width="597" height="615" fill="none" xmlns:v="https://vecta.io/nano"><style><![CDATA[.B{fill:#26b6a6}.C{fill:#87d6cb}.D{fill:#bee9e1}.E{fill:#33535f}.F{fill:#273e47}.G{fill:#17282f}.H{fill:#fff}.I{fill:#e2e2e0}.J{fill:#f6879f}.K{fill:#70cec3}.L{fill:#08917e}.M{fill:#91a7aa}.N{fill:#0b7768}.O{fill:#ededeb}]]></style><g clip-path="url(#A)"><path d="M509.575 332.655c116.571 64.59 116.571 169.312-.001 233.902S204 631.148 87.429 566.558s-116.571-169.311.002-233.902 305.573-64.591 422.145-.001z" fill="#ccc"/><g class="I"><path d="M567.186 424.011L400.79 520.199c-1.234.714-3.237.714-4.472 0L156.401 381.583c-1.235-.714-1.235-1.871 0-2.583l166.396-96.19c1.234-.713 3.235-.713 4.47 0l239.919 138.618c1.235.712 1.235 1.869 0 2.583zM251.19 557.095c39.035-22.553 39.035-59.117 0-81.67s-102.322-22.553-141.356 0-39.033 59.118 0 81.67 102.322 22.552 141.356 0z"/><path d="M357.852 481.448c30.726-17.753 30.726-46.534 0-64.286s-80.54-17.752-111.266 0-30.724 46.534 0 64.286 80.541 17.751 111.266 0zm154.262 48.954c19.286-11.142 19.286-29.208 0-40.351s-50.556-11.144-69.842 0-19.285 29.209 0 40.351 50.556 11.143 69.842 0z"/></g><path d="M404.416 348.363v147.799c0 .951-.667 2.108-1.49 2.583l-3.17 1.83c-.822.476-2.158.476-2.98 0l-3.169-1.83c-.823-.475-1.491-1.632-1.491-2.583V348.363c0-.951.668-1.336 1.491-.861l3.169 1.831c.822.475 2.158.475 2.98 0l3.17-1.831c.823-.475 1.49-.09 1.49.861z" class="F"/><path d="M396.776 500.575l-3.169-1.83c-.823-.475-1.491-1.632-1.491-2.583V348.363c0-.951.668-1.336 1.491-.861l3.169 1.831c.822.475 1.491 1.632 1.491 2.583l-.002 147.799c0 .951-.667 1.336-1.489.86z" class="E"/><path d="M539.556 270.237v147.799c0 .953-.667 2.108-1.489 2.583l-3.171 1.832c-.823.476-2.157.476-2.981 0l-3.168-1.832c-.823-.475-1.49-1.63-1.49-2.583V270.237c0-.951.667-1.336 1.49-.862l3.169 1.832c.823.475 2.157.475 2.98 0l3.171-1.832c.822-.474 1.489-.089 1.489.862z" class="F"/><path d="M531.915 422.451l-3.168-1.832c-.823-.476-1.49-1.631-1.49-2.583V270.237c0-.951.667-1.336 1.49-.862l3.169 1.832c.823.475 1.49 1.632 1.49 2.581v147.801c0 .951-.667 1.337-1.491.862z" class="E"/><path d="M222.419 243.262v147.801c0 .951-.668 2.107-1.491 2.583l-3.17 1.83c-.824.476-2.158.476-2.98 0l-3.17-1.83c-.823-.476-1.49-1.632-1.49-2.583V243.262c0-.951.667-1.336 1.49-.862l3.17 1.832c.822.476 2.158.476 2.98 0l3.17-1.832c.823-.474 1.491-.089 1.491.862z" class="F"/><path d="M214.778 395.476l-3.17-1.83c-.823-.476-1.49-1.632-1.49-2.583V243.262c0-.951.667-1.336 1.49-.861l3.17 1.831c.822.476 1.489 1.632 1.489 2.583v147.799c0 .952-.667 1.338-1.489.862z" class="E"/><path d="M568.96 280.751v-1.082c0-1.732-1.214-3.837-2.712-4.703L327.933 137.412c-1.498-.866-3.927-.866-5.425 0l-146.607 84.732c-1.497.866-2.712 2.971-2.712 4.703v1.082c0 1.73 1.215 3.835 2.712 4.701l238.316 137.554c1.497.866 3.925.866 5.424 0l146.607-84.732c1.498-.866 2.712-2.971 2.712-4.701z" class="B"/><path d="M416.928 370.834c-.982 0-1.963-.217-2.711-.65l-15.95-9.205-6.15-3.551-149.05-86.031.229-.345.015-.022.254-.383 2.081-3.117.963-1.439 167.608 96.742c.748.433 1.73.65 2.711.65s1.964-.217 2.713-.65l125.767-72.686-125.765 72.693c-.752.438-1.733.647-2.715.647v7.347z" fill="#0b584b"/><path d="M416.928 363.487v7.356c.981 0 1.962-.23 2.715-.648l146.601-84.736c1.503-.878 2.714-2.968 2.714-4.703v-1.086c0-1.525-.939-3.364-2.213-4.347.981.837.814 2.007-.501 2.781L419.643 362.84c-.753.438-1.734.647-2.715.647z" class="B"/><path d="M416.928 370.843v-7.356c.981 0 1.962-.209 2.715-.647l125.764-72.693 6.366 3.675-18.367 10.617-6.149 3.554-107.614 62.202c-.753.418-1.734.648-2.715.648z" fill="#0b7465"/><path d="M566.248 278.101l-146.607 84.732c-1.499.866-3.927.866-5.425 0L175.901 225.279c-1.498-.866-1.498-2.269 0-3.135l146.607-84.732c1.498-.866 3.927-.866 5.425 0l238.315 137.554c1.498.866 1.498 2.269 0 3.135z" class="B"/><path d="M416.928 363.483c-.981 0-1.963-.217-2.711-.65l-167.608-96.742.01-.015c3.067-4.568 5.848-11.558 6.942-18.821l6.921 6.175c3.411-2.778 6.666-5.329 8.168-6.224a16.72 16.72 0 0 1 3.629-1.606l88.013 50.781c.536.31 1.238.464 1.941.464s1.412-.156 1.951-.468l34.735-20.125c1.073-.624 1.073-1.631-.002-2.25l-102.619-59.21c-.536-.309-1.239-.464-1.942-.464s-1.412.156-1.95.468l-1.036.601c-1.195-.805-2.371-1.659-3.675-2.256-1.601-.734-3.353-1.054-5.118-1.054-1.258 0-2.524.163-3.745.455-1.011.241-1.997.563-2.962.947-1.833.729-3.587 1.676-5.289 2.683-6.443 3.817-11.423 12.03-17.526 16.722-1.322-4.875-4.052-9.126-8.741-11.907-4.51-2.677-6.382-3.458-12.523-6.395-.02.007-.042.013-.062.02l6.414-7.258-15.298-12.342 99.663-57.6c.75-.433 1.731-.65 2.713-.65s1.964.217 2.712.65l3.558 2.053v35.783c0 .466.088.96.248 1.451.427 1.328 1.371 2.623 2.467 3.257l6.423 3.71-14.228 8.22 54.546 31.516-13.477 7.655.008 3.036c.001 1.702 1.126 3.405 3.374 4.704l21.814 12.622c2.249 1.299 5.198 1.949 8.145 1.949s5.893-.65 8.142-1.949l10.201-5.943 60.028 34.682 30.556-17.655-20.369-11.768v-4.342l.001-.001v-15.8l23.363 13.486v24.761c0 1.353.949 2.99 2.114 3.663l30.561 17.645-125.766 72.686c-.75.433-1.732.65-2.714.65zm28.927-84.151c-2.439 0-4.851.466-6.743 1.416l-25.55 13.863c-4.083 2.048-4.187 5.559-.232 7.845l12.547 7.248c1.767 1.021 3.983 1.521 6.224 1.521 2.771 0 5.579-.765 7.621-2.252l20.694-15.121c3.692-2.689 3.483-6.725-.468-9.017l-6.29-3.647c-2.121-1.23-4.979-1.856-7.803-1.856z" class="L"/><path d="M362.232 296.845c-.703 0-1.404-.155-1.941-.464L272.278 245.6c2.916-.907 5.911-1.072 9.139-1.54 3.179-.461 6.265-1.401 9.338-2.339 1.082-.329 2.287-.763 2.75-1.796.59-1.307-.442-2.884-1.774-3.409-1.429-.564-3.309-.418-4.841-.665-.158-.025-.353-.034-.571-.034l-1.045.037-1.164.037c-1.017 0-1.967-.128-2.315-.723-.37-.63.088-1.411.546-1.981 2.87-3.584 6.503-7.423 11.1-8.5 1.425-.334 2.912-.678 4.043-1.606s1.769-2.642 1.019-3.9-2.414-1.498-3.793-1.981c-1.202-.418-2.279-1.092-3.34-1.804l1.036-.6c.537-.312 1.244-.468 1.95-.468s1.406.155 1.942.464l102.618 59.21c1.076.619 1.076 1.626.003 2.25l-34.735 20.125c-.539.312-1.246.468-1.952.468z" class="N"/><path d="M259.777 231.354c0-.408.267-.814.805-1.126l32.633-18.851c1.074-.62 2.817-.619 3.893.002l99.572 57.624c.536.312.805.718.804 1.125v3.423c.001.408-.268.816-.807 1.125l-32.615 18.849c-1.077.62-2.82.618-3.896-.004l-99.584-57.531c-.535-.309-.804-.714-.805-1.121v-3.515z" class="G"/><path d="M364.062 290.013l32.615-18.762c1.077-.62 1.079-1.626.003-2.248l-99.572-57.624c-1.076-.621-2.817-.621-3.893-.002l-32.633 18.851c-1.074.622-1.074 1.628 0 2.25l99.584 57.531c1.076.623 2.819.624 3.896.004z" class="F"/><path d="M362.239 290.477v3.501c.659-.015 1.32-.165 1.829-.45l32.604-18.848c.539-.315.81-.72.81-1.125v-3.433c0 .404-.271.809-.81 1.125l-32.604 18.773c-.509.284-1.17.442-1.829.457z" class="G"/><path d="M386.942 269.628l.027-.043 1.369-.809 2.736 1.579-1.404.868-2.72-1.571-.008-.024zm-4.47-2.584l.024-.043 1.371-.81 2.734 1.58-1.404.866-2.72-1.569-.005-.024zm-2.964 6.879l.024-.041 3.23-1.867 2.734 1.579-3.252 1.93-2.728-1.577-.008-.024zm-1.509-9.464l.022-.044 1.373-.808 2.733 1.58-1.403.865-2.72-1.569-.005-.024zm-2.964 6.88l.024-.042 3.229-1.866 2.734 1.58-3.251 1.929-2.728-1.577-.008-.024zm-1.509-9.464l.022-.043 1.371-.81 2.735 1.58-1.405.866-2.719-1.569-.004-.024zm-2.962 6.879l.021-.04 3.23-1.868 2.734 1.58-3.252 1.929-2.727-1.577-.006-.024zm-.585 5.506l.024-.041 3.231-1.868 2.732 1.58-3.251 1.929-2.728-1.577-.008-.023zm-.579 5.505l.021-.043 8.286-4.786 2.733 1.58-8.304 4.851-2.731-1.578-.005-.024zm-2.589-20.268l.024-.043 3.229-1.866 2.733 1.58-3.25 1.929-2.731-1.578-.005-.022zm-.722 6.673l.023-.042 3.229-1.866 2.734 1.58-3.251 1.929-2.727-1.579-.008-.022zm-.583 5.506l.024-.042 3.23-1.867 2.733 1.58-3.251 1.929-2.728-1.576-.008-.024zm-.58 5.504l.022-.041 3.23-1.866 2.732 1.58-3.25 1.93-2.729-1.579-.005-.024zm-2.588-20.268l.024-.042 3.228-1.867 2.734 1.58-3.25 1.929-2.731-1.576-.005-.024zm-1.305 12.179l.023-.041 3.232-1.868 2.732 1.58-3.252 1.929-2.728-1.576-.007-.024zm-.357-6.049l.023-.044 3.228-1.865 2.735 1.58-3.251 1.929-2.729-1.576-.006-.024zm-.223 11.554l.024-.041 3.227-1.868 2.733 1.581-3.25 1.929-2.729-1.576-.005-.025zm-.582 5.506l.021-.043 3.23-1.865 2.734 1.579-3.252 1.93-2.73-1.577-.003-.024zm-.584 5.506l.024-.044 8.284-4.785 2.734 1.578-8.304 4.852-2.733-1.578-.005-.023zm-1.421-31.28l.021-.043 3.23-1.866 2.734 1.58-3.252 1.929-2.728-1.576-.005-.024zm-1.663 6.129l.022-.044 3.229-1.864 2.735 1.579-3.253 1.929-2.727-1.577-.006-.023zm-.223 11.554l.022-.041 3.229-1.866 2.733 1.578-3.25 1.931-2.729-1.578-.005-.024zm-.361-6.049l.024-.043 3.228-1.865 2.735 1.58-3.251 1.929-2.731-1.577-.005-.024zm-.222 11.555l.022-.042 3.23-1.865 2.734 1.578-3.252 1.929-2.729-1.576-.005-.024zm-.583 5.506l.022-.044 3.228-1.863 2.736 1.578-3.252 1.931-2.729-1.579-.005-.023zm-2.411-31.851l.024-.043 3.228-1.866 2.732 1.58-3.249 1.929-2.73-1.576-.005-.024zm-.674 6.701l.023-.043 3.229-1.866 2.735 1.58-3.253 1.929-2.729-1.576-.005-.024zm-.583 5.506l.023-.044 3.229-1.865 2.735 1.578-3.251 1.931-2.731-1.578-.005-.022zm-.222 11.554l.021-.043 3.23-1.865 2.735 1.58-3.251 1.929-2.73-1.577-.005-.024zm-2.993-26.346l.021-.042 3.23-1.867 2.732 1.58-3.25 1.929-2.729-1.576-.004-.024zm-1.259 12.206l.024-.043 3.229-1.865 2.735 1.58-3.25 1.929-2.732-1.577-.006-.024zm-.804 17.061l.022-.041 3.228-1.868 7.208 4.166-3.251 1.928-7.203-4.162-.004-.023zm-1.674-24.335l.023-.043 3.229-1.863 4.854 2.803-3.252 1.929-4.846-2.802-.008-.024zm-.737-7.516l.022-.043 3.23-1.866 2.732 1.58-3.25 1.929-2.73-1.576-.004-.024zm-2.423 23.216l.022-.043 3.231-1.865 2.733 1.58-3.251 1.929-2.73-1.577-.005-.024zm-.583 5.507l.025-.045 3.23-1.864 2.731 1.58-3.252 1.929-2.728-1.577-.006-.023zm-.73-23.793l.023-.041 3.228-1.864 2.736 1.579-3.252 1.929-2.727-1.577-.008-.026zm-.737-7.515l.022-.042 3.229-1.865 2.735 1.578-3.252 1.929-2.729-1.577-.005-.023zm-2.67 11.391l.023-.043 3.23-1.866 2.731 1.58-3.252 1.929-2.726-1.576-.006-.024zm-.334 17.333l.023-.043 3.23-1.866 2.73 1.58-3.251 1.929-2.728-1.577-.004-.023zm-.733-23.792l.024-.041 3.228-1.865 2.736 1.578-3.252 1.929-2.728-1.577-.008-.024zm-2.683-8.642l.022-.041 3.229-1.867 2.735 1.58-3.251 1.929-2.731-1.577-.004-.024zm-.13 18.702l.024-.04 3.229-1.868 2.498 1.443c.174.101.468.162.788.162.334 0 .636-.062.827-.172l4.24-2.451 3.203 1.852-8.302 4.852-6.499-3.754-.008-.024zm-.593-6.186l.022-.042 3.229-1.867 2.733 1.58-3.248 1.929-2.73-1.577-.006-.023zm-.336 17.332l.022-.04 3.231-1.868 2.732 1.58-3.251 1.929-2.726-1.577-.008-.024zm-.731-23.792l.024-.041 3.229-1.865 2.733 1.58-3.25 1.929-2.728-1.577-.008-.026zm-2.684-8.639l.023-.043 3.229-1.866 2.735 1.58-3.253 1.929-2.729-1.577-.005-.023zm-.129 18.699l.022-.042 3.231-1.866 2.734 1.581-3.253 1.929-2.726-1.577-.008-.025zm-.594-6.184l.024-.043 3.23-1.866 2.734 1.58-3.252 1.929-2.731-1.578-.005-.022zm-1.065-6.459l.021-.043 3.233-1.865 2.731 1.58-3.252 1.929-2.726-1.577-.007-.024zm-1.042 16.926l.025-.043 3.228-1.866 8.62 4.981-3.252 1.929-8.615-4.979-.006-.022zm-.816 5.369l.022-.042 3.23-1.867 4.381 2.532-3.252 1.929-4.377-2.528-.004-.024zm-.827-30.937l.023-.041 3.228-1.867 2.736 1.58-3.253 1.929-2.729-1.577-.005-.024zm-.13 18.702l.024-.042 3.232-1.866 2.731 1.58-3.252 1.929-2.727-1.579-.008-.022zm-.593-6.186l.024-.042 3.228-1.867 2.735 1.58-3.251 1.929-2.731-1.577-.005-.023zm-1.066-6.458l.025-.044 3.227-1.863 2.733 1.578-3.251 1.93-2.728-1.577-.006-.024zm-1.043 16.924l.024-.041 3.23-1.867 2.733 1.58-3.251 1.929-2.728-1.577-.008-.024zm-1.521 4.962l.021-.043 3.23-1.864 3.441 1.987-3.251 1.929-3.437-1.985-.004-.024zm-.12-30.528l.023-.042 3.228-1.866 2.736 1.58-3.254 1.929-2.728-1.577-.005-.024zm-.129 18.701l.022-.042 3.231-1.866 2.732 1.58-3.251 1.929-2.728-1.577-.006-.024zm-.593-6.187l.022-.041 3.229-1.866 2.732 1.58-3.25 1.929-2.729-1.578-.004-.024zm-1.067-6.455l.022-.043 3.231-1.867 2.732 1.579-3.251 1.93-2.726-1.577-.008-.022zm-1.041 16.924l.024-.044 3.229-1.865 2.732 1.581-3.25 1.928-2.729-1.578-.006-.022zm-1.772-6.866l.024-.043 3.229-1.865 2.733 1.58-3.253 1.928-2.725-1.578-.008-.022zm-.459 11.419l.025-.044 3.228-1.865 3.44 1.988-3.25 1.93-3.435-1.986-.008-.023zm-.136-17.605l.024-.042 3.229-1.867 2.735 1.58-3.252 1.929-2.731-1.577-.005-.023zm-1.065-6.457l.024-.044 3.229-1.865 2.732 1.58-3.252 1.929-2.727-1.577-.006-.023zm-.159-7.183l.023-.042 3.23-1.865 2.735 1.579-3.252 1.929-2.73-1.577-.006-.024zm-.882 24.106l.024-.043 3.229-1.865 2.732 1.58-3.252 1.929-2.728-1.577-.005-.024zm-1.774-6.866l.023-.04 3.232-1.868 2.731 1.581-3.251 1.93-2.727-1.579-.008-.024zm-.592-6.184l.023-.043 3.228-1.866 2.734 1.58-3.251 1.929-2.73-1.578-.004-.022zm-.571 17.196l.024-.041 3.228-1.868 3.44 1.989-3.253 1.929-3.434-1.985-.005-.024zm-.494-23.653l.023-.044 3.229-1.865 2.732 1.579-3.251 1.93-2.728-1.578-.005-.022zm-.16-7.182l.024-.044 3.229-1.864 2.734 1.579-3.251 1.929-2.73-1.578-.006-.022zm-.881 24.105l.023-.042 3.228-1.866 2.732 1.58-3.249 1.929-2.73-1.577-.004-.024zm-1.775-6.865l.024-.042 3.23-1.866 2.733 1.58-3.251 1.929-2.728-1.579-.008-.022zm-.592-6.186l.021-.042 3.23-1.865 2.734 1.578-3.252 1.931-2.728-1.578-.005-.024zm-1.068-6.458l.024-.042 3.23-1.866 2.733 1.58-3.252 1.929-2.727-1.577-.008-.024zm-.157-7.181l.023-.044 3.228-1.865 2.736 1.58-3.252 1.929-2.729-1.577-.006-.023zm-.884 24.106l.024-.041 3.23-1.868 2.732 1.58-3.253 1.929-2.725-1.577-.008-.023zm-1.772-6.866l.026-.044 3.228-1.865 2.733 1.58-3.252 1.931-2.727-1.578-.008-.024zm-.593-6.185l.022-.043 3.23-1.866 2.734 1.58-3.252 1.929-2.729-1.578-.005-.022zm-1.067-6.457l.026-.044 3.228-1.865 2.733 1.58-3.252 1.929-2.728-1.578-.007-.022zm-.158-7.184l.024-.041 3.231-1.866 2.733 1.58-3.252 1.929-2.731-1.578-.005-.024zm-.881 24.107l.022-.043 3.23-1.865 2.732 1.58-3.25 1.929-2.729-1.577-.005-.024zm-1.771-6.865l.023-.042 3.228-1.867 2.732 1.58-3.251 1.93-2.728-1.577-.004-.024zm-.596-6.186l.022-.042 3.229-1.867 2.735 1.58-3.252 1.929-2.729-1.577-.005-.023zm-1.065-6.458l.022-.043 3.23-1.865 2.732 1.579-3.25 1.929-2.729-1.576-.005-.024zm-1.041 16.924l.022-.043 3.229-1.865 2.733 1.58-3.25 1.929-2.729-1.577-.005-.024zm-1.77-25.638l.023-.041 3.23-1.867 3.438 1.988-3.252 1.93-3.433-1.988-.006-.022zm-.005 18.775l.025-.043 3.23-1.868 2.732 1.58-3.251 1.931-2.728-1.578-.008-.022zm-.592-6.187l.022-.043 3.23-1.865 2.734 1.579-3.252 1.929-2.729-1.578-.005-.022zm-1.065-6.459l.022-.042 3.23-1.865 2.732 1.578-3.249 1.931-2.73-1.578-.005-.024zm-1.041 16.925l.022-.043 3.229-1.865 2.733 1.58-3.253 1.93-2.726-1.578-.005-.024zm-1.772-6.865l.022-.044 3.229-1.864 2.733 1.579-3.252 1.93-2.727-1.577-.005-.024zm-.597-6.186l.024-.042 3.229-1.867 2.734 1.58-3.252 1.929-2.729-1.577-.006-.023zm-1.063-6.458l.022-.043 3.229-1.866 2.733 1.58-3.25 1.93-2.729-1.577-.005-.024zm-1.043 16.925l.024-.043 3.229-1.866 2.731 1.58-3.248 1.929-2.73-1.577-.006-.023zm-1.77-6.866l.022-.044 3.229-1.863 2.733 1.578-3.25 1.929-2.729-1.576-.005-.024zm-.931 11.147l.023-.041 3.229-1.867 24.866 14.365-3.254 1.931-24.858-14.364-.006-.024zm-1.312-18.285l.022-.042 3.23-1.865 4.381 2.531-3.251 1.929-4.377-2.529-.005-.024zm-.462 11.42l.025-.044 3.23-1.865 2.731 1.58-3.248 1.929-2.73-1.577-.008-.023zm-3.406 3.873l.023-.042 3.228-1.866 3.443 1.988-3.252 1.929-3.435-1.987-.007-.022zm-1.065-6.457l.023-.043 3.23-1.865 2.734 1.578-3.252 1.93-2.729-1.578-.006-.022zm-.123-5.915l.022-.043 3.228-1.865 5.558 3.212-3.248 1.93-5.556-3.21-.004-.024zm-3.993 9.378l.023-.041 3.232-1.865 3.439 1.986-3.251 1.931-3.435-1.985-.008-.026zm-1.065-6.457l.024-.041 3.228-1.867 3.442 1.989-3.251 1.928-3.438-1.985-.005-.024zm-5.055 2.92l.023-.04 3.228-1.866 4.381 2.531-3.248 1.928-4.377-2.527-.007-.026z" class="B"/><path d="M479.181 280.158l-60.027-34.682 6.675-3.888.275-.16c1.193-.69 2.17-2.372 2.17-3.764v-3.361l53.286 30.786c.781.452 1.795.68 2.785.68.911 0 1.803-.194 2.477-.583 1.405-.811 2.546-2.875 2.546-4.608v-9.843l20.37 11.768-30.557 17.655zm-98.234-56.756L326.4 191.886l14.229-8.22 49.538 28.621v3.347c0 1.385-.971 3.07-2.171 3.763l-7.049 4.005z" class="N"/><path d="M392.666 251.42l-21.814-12.623c-2.248-1.299-3.373-3.002-3.374-4.704l-.008-3.036 20.526-11.66c1.2-.692 2.172-2.378 2.172-3.763v-26.915l38.101 22.032.002 26.915c0 1.385-.972 3.071-2.172 3.763l-17.146 9.991c-4.497 2.599-11.79 2.597-16.287 0z" class="I"/><path d="M419.122 242.432v3.023l6.982-4.027c1.193-.69 2.17-2.372 2.17-3.764v-26.912l-7.259-4.189-.465 5.607 5.093 2.948v21.029c0 1.392-.967 3.073-2.17 3.763l-4.351 2.522z" fill="#dadbd8"/><path d="M425.643 236.151c0 1.387-.972 3.071-2.172 3.764l-14.514 8.47c-4.498 2.598-11.791 2.599-16.289.001l-21.825-12.621c-4.498-2.598-4.498-6.809-.001-9.408l14.526-8.476c1.199-.693 2.172-2.378 2.172-3.765v-21.029l38.103 22.033v21.031z" fill="#f3f2f1"/><g fill="#e7e8e5"><path d="M380.946 220.44v-.004l4.422-2.555c1.2-.693 2.171-2.378 2.171-3.765v-21.029l38.105 22.033v21.031c0 1.387-.973 3.071-2.173 3.764l-4.346 2.511-38.179-21.986zm-13.474 10.618v3.037c0 1.706 1.129 3.399 3.375 4.704l21.816 12.616c2.157 1.254 4.953 1.882 7.774 1.932v-3.024c-2.821-.037-5.617-.69-7.774-1.932l-21.816-12.628c-2.246-1.292-3.375-2.998-3.375-4.705z"/></g><path d="M486.822 265.186c-1.407.813-3.762.769-5.261-.097l-147.355-85.133c-1.499-.867-2.713-2.974-2.713-4.706V46.181c0-1.732 1.141-3.795 2.546-4.608s3.761-.769 5.26.097l147.352 85.135c1.499.867 2.715 2.972 2.715 4.705l.002 129.068c0 1.733-1.14 3.797-2.546 4.608z" class="E"/><path d="M481.561 265.087l-147.355-85.135c-1.499-.866-2.715-2.972-2.715-4.704V46.177c0-1.732 1.216-2.434 2.715-1.568l147.352 85.135c1.5.866 2.714 2.972 2.714 4.705l.003 129.07c0 1.731-1.215 2.434-2.714 1.568z" class="F"/><path d="M481.958 265.625c1.505.666 3.587.641 4.866-.1 1.403-.815 2.546-2.874 2.546-4.617v-14.516l-5.091 2.948v14.516c0 1.581-1.003 2.296-2.321 1.769z" fill="#dadbd8"/><path d="M484.275 249.337v14.515c0 1.732-1.215 2.434-2.714 1.568l-147.355-85.134c-1.499-.866-2.715-2.972-2.715-4.705v-14.516l152.784 88.272z" class="H"/><path d="M479.183 238.293l-.002-102.154c0-1.039-.728-2.303-1.628-2.821L338.216 52.814c-.899-.521-1.629-.098-1.629.941l-.004 102.157c-.001 1.039.728 2.303 1.628 2.823l139.344 80.501c.9.52 1.628.099 1.628-.942z" class="B"/><path d="M478.281 239.458c-.218 0-.465-.072-.726-.223l-139.344-80.501c-.9-.52-1.629-1.784-1.628-2.823l.004-102.156c0-.738.367-1.164.901-1.164.22 0 .468.072.728.224l17.369 10.034v82.189c0 1.664 1.169 3.679 2.6 4.506l120.996 69.906.002 18.844c0 .738-.368 1.165-.902 1.165z" class="K"/><path d="M407.885 210.752c1.407.813 2.547 2.789 2.547 4.415s-1.14 2.284-2.547 1.471-2.547-2.79-2.547-4.415 1.14-2.283 2.547-1.471z" class="E"/><path d="M483.476 131.761c.489.854.79 1.819.803 2.685V249.34l5.091-2.948V131.51c0-.866-.315-1.832-.805-2.684l-5.089 2.935z" class="G"/><path d="M355.601 19.53l.044-.239.008-.052.059-.23.156-.332.084-.137.077-.093.17-.171.016-.017.222-.128c.47-.223 1.075-.163 1.748.221l171.965 99.31c1.432.828 2.6 2.85 2.6 4.506V246.72l-.001.021v.569c0 .704-.395 1.269-.936 1.562l-.111.075-.137.077-.222.076-.333.043c-.264.008-.563-.077-.86-.248l-.069-.039-.006-.002-2.477-1.431-169.413-97.88c-1.431-.827-2.6-2.842-2.6-4.506V19.855l.016-.325z" class="E"/><g class="B"><path d="M356.438 18.132c.469-.223 1.074-.162 1.747.221l171.965 99.31c1.432.828 2.6 2.85 2.6 4.506v8.498l3.317-1.945v-8.44c0-1.654-1.159-3.668-2.592-4.496l-171.972-99.31c-.743-.434-1.407-.444-1.885-.153l-3.18 1.809z"/><path d="M355.592 19.837c.008-1.641 1.166-2.305 2.595-1.48l171.964 99.309c1.434.829 2.598 2.844 2.598 4.501l-.003 8.504L355.592 28.369v-8.533z"/></g><path d="M534.546 116.671c-.327-.36-.689-.665-1.071-.885L361.503 16.475c-.397-.232-.771-.342-1.106-.352.335.008.711.119 1.107.349l171.967 99.31a4.48 4.48 0 0 1 1.075.888zm-178.07-98.56l3.142-1.791c.094-.057.196-.101.302-.134a1.33 1.33 0 0 0-.302.136l-3.142 1.789z" class="H"/><path d="M531.838 119.36c-.454-.71-1.044-1.323-1.687-1.694l-41.776-24.125-130.187-75.186c-.198-.113-.391-.2-.578-.259.185.057.377.143.575.256l171.965 99.311c.643.372 1.234.985 1.688 1.697z" class="M"/><g class="K"><path d="M531.974 119.583l-.136-.222c-.454-.713-1.045-1.326-1.688-1.698l-171.965-99.31c-.198-.113-.39-.198-.575-.256a1.97 1.97 0 0 0-.583-.096 1.39 1.39 0 0 0-.447.071l-.115.045 3.153-1.795a1.33 1.33 0 0 1 .302-.136 1.5 1.5 0 0 1 .437-.063h.04c.335.009.709.12 1.106.352l171.972 99.311c.382.22.744.525 1.071.885a6.17 6.17 0 0 1 .732 1.011l-3.304 1.901z"/><path d="M531.972 119.584c-.466-.804-1.117-1.504-1.823-1.918l-41.774-24.125 41.776 24.125c.643.372 1.233.984 1.687 1.694l.136.223-.002.001zM356.447 18.126c.006-.003.012-.007.018-.009a1.22 1.22 0 0 1 .115-.045l-.133.055z"/></g><path d="M532.75 130.668v-8.499 8.498l3.317-1.945v-8.44a4.08 4.08 0 0 0-.065-.711c.044.241.067.478.067.71l.002 8.441-2.657 1.559-.664.387z" fill="#d2d4d1"/><path d="M532.747 130.671l.003-8.504c0-.678-.197-1.416-.526-2.108.331.692.527 1.432.527 2.11v8.499l-.004.003z" fill="#29444e"/><g fill="#19b19d"><path d="M532.75 130.667v-8.498c0-.678-.196-1.418-.526-2.11l-.245-.467 3.299-1.91c.35.598.608 1.254.724 1.889.043.243.065.481.065.711v8.44l-3.317 1.945z"/><path d="M532.746 130.671v-8.502c0-.842-.294-1.765-.776-2.583l.002-.002.007.008.245.467c.329.692.525 1.43.525 2.108l-.003 8.504z"/></g><g fill="#5cc7b3"><path d="M531.979 119.592l3.299-1.91-3.299 1.91z"/><path d="M531.978 119.594l-.004-.011.004.011z"/></g><g class="E"><path d="M526.89 119.46c.811.469 1.468 1.861 1.468 3.11s-.657 1.882-1.468 1.413-1.467-1.86-1.467-3.109.656-1.881 1.467-1.414zm-5.284-3.057c.811.467 1.467 1.86 1.467 3.109s-.656 1.881-1.467 1.412-1.468-1.859-1.468-3.109.657-1.881 1.468-1.412zm-5.284-3.059c.81.468 1.469 1.86 1.469 3.11s-.659 1.881-1.469 1.412-1.468-1.86-1.468-3.11.658-1.881 1.468-1.412z"/></g><path d="M536.071 174.273l-3.32-1.915V130.67l.663-.389 2.657-1.548v-.011 45.551z" fill="#2c3c43"/><path d="M533.414 130.281l2.657-1.559v.01l-2.657 1.549z" fill="#28383f"/><path d="M408.264 72.695l36.256 20.908c.51.293.924.98.924 1.533s-.414.762-.924.468l-36.256-20.908c-.51-.294-.922-.982-.922-1.535s.412-.762.922-.466z" class="B"/><g class="I"><path d="M422.117 112.715l13.744 7.91c.509.294.923.98.923 1.533s-.414.762-.923.468l-13.744-7.91c-.508-.294-.922-.982-.922-1.533s.414-.762.922-.468zm0 8.004l13.744 7.91c.509.294.923.981.923 1.533s-.414.762-.923.468l-13.744-7.908c-.508-.296-.922-.982-.922-1.535s.414-.762.922-.468z"/></g><g class="B"><path d="M448.097 95.669l72.585 41.833c.51.293.924.981.924 1.533s-.414.763-.924.468L448.098 97.67c-.511-.294-.922-.982-.922-1.533s.411-.762.921-.468zm-25.68 73.175l22.103 12.797c.51.295.924.981.924 1.534s-.414.762-.924.467l-22.103-12.797c-.51-.294-.922-.982-.922-1.535s.412-.762.922-.466zm25.68 14.863l72.585 41.886c.51.295.924.982.924 1.534s-.414.762-.924.467l-72.584-41.886c-.511-.294-.922-.98-.922-1.533s.411-.762.921-.468zM408.264 80.718l18.262 10.499c.51.296.923.982.923 1.535s-.413.762-.923.468l-18.262-10.501c-.51-.296-.922-.982-.922-1.535s.412-.762.922-.466z"/></g><path d="M426.959 93.352c-.129 0-.277-.043-.433-.133l-18.262-10.5c-.51-.296-.922-.982-.922-1.535 0-.382.198-.601.488-.601.131 0 .277.044.434.135l18.262 10.499c.51.296.923.982.923 1.535 0 .384-.198.601-.49.601z" class="C"/><path d="M408.264 88.707l8.544 4.931c.51.294.923.98.923 1.533s-.413.762-.923.468l-8.544-4.93c-.51-.294-.922-.982-.922-1.535s.412-.761.922-.466z" class="B"/><path d="M417.242 95.771c-.13 0-.277-.043-.434-.133l-8.544-4.931c-.51-.294-.922-.982-.922-1.535 0-.382.198-.601.488-.601.129 0 .277.044.434.135l8.544 4.93c.51.294.923.981.923 1.533 0 .382-.199.601-.489.601z" class="C"/><path d="M408.264 104.713l8.544 4.93c.51.296.923.982.923 1.535s-.413.762-.923.468l-8.544-4.931c-.51-.294-.922-.982-.922-1.535s.412-.76.922-.467z" class="B"/><path d="M417.242 111.779c-.13 0-.277-.043-.434-.133l-8.544-4.931c-.51-.294-.922-.982-.922-1.535 0-.382.198-.6.49-.6.129 0 .275.042.432.133l8.544 4.93c.51.296.923.982.923 1.535 0 .384-.199.601-.489.601z" class="C"/><path d="M408.264 112.718l8.544 4.931c.51.294.923.98.923 1.533s-.413.762-.923.468l-8.544-4.932c-.51-.293-.922-.979-.922-1.534s.412-.762.922-.466z" class="B"/><path d="M417.242 119.783c-.129 0-.277-.043-.434-.134l-8.544-4.931c-.51-.293-.922-.98-.922-1.534 0-.382.198-.599.488-.599.131 0 .277.042.434.133l8.544 4.931c.51.294.923.98.923 1.533 0 .382-.199.601-.489.601z" class="C"/><path d="M430.104 93.284l10.952 6.348c.51.294.923.982.923 1.533s-.413.762-.923.468l-10.952-6.348c-.51-.294-.923-.98-.923-1.533s.413-.762.923-.468z" class="B"/><path d="M441.489 101.766c-.13 0-.276-.043-.433-.133l-10.952-6.348c-.51-.294-.923-.98-.923-1.533 0-.384.199-.601.489-.601.129 0 .277.043.434.133l10.952 6.348c.51.294.923.982.923 1.533 0 .384-.199.601-.49.601z" class="C"/><g class="H"><path d="M447.04 151.147l73.642 42.431c.51.294.924.982.924 1.533s-.414.762-.924.468l-73.642-42.431c-.51-.294-.923-.981-.923-1.533s.413-.762.923-.468zm62.691 28.066l10.951 6.348c.51.295.924.981.924 1.534s-.414.762-.924.468l-10.951-6.348c-.51-.296-.924-.982-.924-1.535s.414-.762.924-.467zm-77.222-44.497l73.644 42.43c.509.295.923.982.923 1.534s-.414.763-.923.467l-73.644-42.431c-.51-.293-.923-.98-.923-1.533s.413-.762.923-.467z"/></g><path d="M422.117 96.71l18.262 10.501c.51.294.923.982.923 1.533s-.413.762-.923.468l-18.262-10.501c-.508-.294-.922-.982-.922-1.533s.414-.762.922-.468z" class="B"/><path d="M440.813 109.345c-.129 0-.276-.043-.434-.133l-18.262-10.501c-.508-.294-.922-.982-.922-1.533 0-.384.198-.601.488-.601a.88.88 0 0 1 .434.133l18.262 10.501c.51.294.923.982.923 1.533 0 .384-.197.601-.489.601z" class="C"/><path d="M443.958 109.277l76.18 44.103c.511.294.924.982.924 1.534s-.413.762-.924.468l-76.18-44.104c-.51-.294-.924-.981-.924-1.533s.414-.762.924-.468z" class="B"/><path d="M520.572 155.515c-.13 0-.277-.042-.434-.133l-76.18-44.104c-.51-.295-.924-.981-.924-1.533 0-.383.199-.601.49-.601a.88.88 0 0 1 .434.133l76.18 44.103c.511.294.924.981.924 1.534 0 .383-.199.601-.49.601z" class="C"/><path d="M422.117 144.898l98.565 56.879c.51.295.924.982.924 1.535s-.414.761-.924.466l-98.565-56.879c-.508-.295-.922-.982-.922-1.534s.414-.763.922-.467z" class="I"/><path d="M408.264 136.896l8.544 4.931c.51.294.923.98.923 1.533s-.413.762-.923.468l-8.544-4.931c-.51-.294-.922-.982-.922-1.534s.412-.762.922-.467z" class="B"/><path d="M417.242 143.961a.89.89 0 0 1-.434-.133l-8.544-4.931c-.51-.294-.922-.982-.922-1.534 0-.383.198-.601.488-.601.131 0 .277.044.434.134l8.544 4.931c.51.294.923.98.923 1.533 0 .382-.199.601-.489.601z" class="C"/><path d="M422.117 152.899l98.565 56.88c.51.294.924.982.924 1.533s-.414.762-.924.469L422.117 154.9c-.508-.295-.922-.981-.922-1.535s.414-.761.922-.466z" class="I"/><path d="M408.264 144.898l8.544 4.93c.51.294.923.981.923 1.533s-.413.762-.923.468l-8.544-4.93c-.51-.295-.922-.982-.922-1.534s.412-.763.922-.467z" class="B"/><path d="M417.241 151.962c-.129 0-.276-.042-.433-.133l-8.544-4.931c-.51-.294-.922-.981-.922-1.533 0-.384.198-.602.49-.602.129 0 .275.044.432.134l8.544 4.931c.51.294.923.98.923 1.533 0 .384-.199.601-.49.601z" class="C"/><path d="M422.117 160.9l98.565 56.88c.51.296.924.982.924 1.534s-.414.763-.924.467l-98.565-56.88c-.508-.295-.922-.982-.922-1.534s.414-.762.922-.467z" class="I"/><path d="M408.264 152.899l8.544 4.93c.51.295.923.981.923 1.534s-.413.762-.923.467l-8.544-4.93c-.51-.295-.922-.981-.922-1.535s.412-.761.922-.466z" class="B"/><path d="M417.242 159.963a.88.88 0 0 1-.434-.133l-8.544-4.93c-.51-.295-.922-.981-.922-1.535 0-.382.198-.6.488-.6.131 0 .277.043.434.134l8.544 4.93c.51.295.923.981.923 1.534 0 .383-.199.6-.489.6z" class="C"/><g fill="#a6b7b9"><path d="M400.374 71.65c-.123 0-.26-.04-.406-.124l-5.023-2.901c-.503-.292-.91-.999-.91-1.581l-.002-1.848c0-.413.205-.651.505-.651a.83.83 0 0 1 .407.124l5.023 2.901c.503.292.91.999.91 1.581v1.848c0 .413-.205.651-.504.651zm0 8.08c-.123 0-.26-.04-.406-.125l-5.023-2.901a2.02 2.02 0 0 1-.91-1.58l-.002-1.848c0-.413.205-.651.505-.651a.83.83 0 0 1 .407.124l5.023 2.902c.503.292.91.999.91 1.581v1.848c0 .413-.205.651-.504.651zm0 8.08c-.123 0-.26-.04-.406-.125l-5.023-2.9c-.503-.292-.91-.999-.91-1.583l-.002-1.846c0-.413.205-.653.505-.653.122 0 .261.041.407.125l5.023 2.901c.503.292.91.999.91 1.581v1.848c0 .413-.205.651-.504.651zm0 8.079c-.123 0-.26-.04-.406-.124l-5.023-2.902a2.02 2.02 0 0 1-.91-1.581l-.002-1.846c0-.414.205-.653.505-.653a.83.83 0 0 1 .407.124l5.023 2.903a2.02 2.02 0 0 1 .91 1.58v1.848c0 .413-.205.651-.504.651zm0 8.079c-.123 0-.26-.04-.406-.124l-5.023-2.901c-.503-.292-.91-.999-.91-1.581l-.002-1.848c0-.413.205-.651.505-.651a.82.82 0 0 1 .407.125l5.023 2.9c.503.291.91.999.91 1.582v1.847c0 .413-.205.651-.504.651zm0 8.08c-.123 0-.261-.04-.406-.125l-5.023-2.901c-.503-.291-.91-.999-.91-1.581l-.002-1.848c0-.413.205-.652.505-.652.122 0 .261.04.407.125l5.023 2.901c.503.292.91.999.91 1.582v1.847c0 .412-.205.652-.504.652zm0 8.08c-.123 0-.26-.04-.406-.125l-5.023-2.901c-.503-.291-.91-.999-.91-1.581l-.002-1.848c0-.413.205-.651.505-.651a.83.83 0 0 1 .407.124l5.023 2.901c.503.291.91 1 .91 1.582v1.847c0 .412-.205.652-.504.652zm0 8.078c-.123 0-.26-.04-.406-.124l-5.023-2.901c-.503-.291-.91-.999-.91-1.581l-.002-1.847c0-.414.205-.653.505-.653.122 0 .261.04.407.126l5.023 2.901c.503.291.91.999.91 1.581v1.847c0 .413-.205.651-.504.651zm0 8.08c-.123 0-.261-.04-.406-.124l-5.023-2.901c-.503-.292-.91-.999-.91-1.582l-.002-1.847c0-.413.205-.652.505-.652a.83.83 0 0 1 .407.124l5.023 2.903c.503.29.91.998.91 1.58v1.848c0 .413-.205.651-.504.651zm0 8.08c-.123 0-.26-.04-.406-.125l-5.023-2.9c-.503-.292-.91-1-.91-1.582l-.002-1.848c0-.413.205-.651.505-.651a.83.83 0 0 1 .407.124l5.023 2.901c.503.292.91 1 .91 1.582v1.848c0 .413-.205.651-.504.651zm0 8.08c-.123 0-.26-.04-.406-.125l-5.023-2.902c-.503-.29-.91-.998-.91-1.58l-.002-1.848c0-.413.205-.651.505-.651a.83.83 0 0 1 .407.124l5.023 2.901c.503.291.91.999.91 1.582v1.847c0 .413-.205.652-.504.652zm0 8.08c-.123 0-.261-.04-.406-.126l-5.023-2.901c-.503-.291-.91-.999-.91-1.581l-.002-1.847c0-.413.205-.653.505-.653.122 0 .261.04.407.126l5.023 2.901c.503.29.91.998.91 1.581v1.847c0 .413-.205.653-.504.653z"/></g><path d="M361.63 38.424l27.157 15.689c1.007.582 1.823 1.998 1.823 3.163v31.38c0 1.164-.816 1.636-1.823 1.054L361.63 74.019c-1.007-.582-1.823-1.997-1.823-3.161v-31.38c0-1.164.816-1.636 1.823-1.054z" class="F"/><path d="M364.151 69.53l2.5 1.447c.51.294.924.98.924 1.535s-.414.762-.924.466l-2.5-1.447c-.51-.294-.923-.981-.923-1.533s.413-.762.923-.468z" class="B"/><path d="M367.085 73.11c-.129 0-.277-.043-.434-.133l-2.5-1.447c-.51-.294-.923-.981-.923-1.533 0-.382.198-.601.49-.601.129 0 .277.043.433.133l2.5 1.447c.51.294.924.98.924 1.535 0 .382-.199.599-.49.599z" class="C"/><path d="M364.151 43.832l2.5 1.447c.51.294.924.98.924 1.533s-.414.762-.924.468l-2.5-1.447c-.51-.296-.923-.982-.923-1.535s.413-.761.923-.466z" class="B"/><path d="M367.085 47.414c-.129 0-.277-.043-.434-.133l-2.5-1.447c-.51-.296-.923-.982-.923-1.535 0-.382.198-.601.49-.601.129 0 .277.044.433.135l2.5 1.447c.51.294.924.98.924 1.533 0 .382-.199.601-.49.601z" class="C"/><use xlink:href="#B" class="B"/><path d="M370.599 54.572c-.129 0-.277-.043-.434-.133l-2.5-1.447c-.51-.294-.922-.982-.922-1.535 0-.382.198-.601.488-.601.129 0 .277.044.434.135l2.5 1.447c.51.294.923.981.923 1.533 0 .382-.198.601-.489.601z" class="C"/><path d="M367.665 56.117l2.5 1.447c.51.294.923.981.923 1.533s-.413.762-.923.468l-2.5-1.447c-.51-.294-.922-.982-.922-1.535s.412-.761.922-.466z" class="B"/><path d="M370.598 59.698c-.129 0-.276-.043-.433-.133l-2.5-1.447c-.51-.294-.922-.982-.922-1.535 0-.382.198-.601.488-.601.129 0 .277.044.434.135l2.5 1.447c.51.294.923.98.923 1.533 0 .382-.198.601-.49.601z" class="C"/><path d="M364.151 59.246l2.5 1.447c.51.296.924.982.924 1.535s-.414.761-.924.468l-2.5-1.448c-.51-.293-.923-.98-.923-1.533s.413-.762.923-.468z" class="B"/><path d="M367.085 62.829c-.129 0-.277-.043-.434-.133l-2.5-1.448c-.51-.293-.923-.98-.923-1.533 0-.382.198-.601.49-.601.129 0 .277.043.433.133l2.5 1.447c.51.296.924.982.924 1.535 0 .382-.199.601-.49.601z" class="C"/><path d="M367.665 66.409l2.5 1.447c.51.294.923.982.923 1.533s-.413.762-.923.468l-2.5-1.447c-.51-.293-.922-.981-.922-1.533s.412-.762.922-.468z" class="B"/><path d="M370.599 69.992c-.129 0-.277-.044-.434-.135l-2.5-1.447c-.51-.293-.922-.98-.922-1.533 0-.382.198-.601.488-.601.129 0 .277.043.434.133l2.5 1.447c.51.294.923.982.923 1.533 0 .384-.198.602-.489.602z" class="C"/><use xlink:href="#C" class="B"/><path d="M386.698 58.745c-.129 0-.277-.043-.433-.133l-15.268-8.822c-.51-.294-.922-.98-.922-1.533 0-.382.197-.601.488-.601.129 0 .277.043.434.133l15.268 8.822c.509.294.923.982.923 1.533 0 .384-.198.601-.49.601z" class="D"/><path d="M370.997 73.488l15.268 8.821c.509.296.923.982.923 1.535s-.414.761-.923.468l-15.268-8.822c-.51-.294-.922-.982-.922-1.533s.412-.762.922-.468z" class="B"/><path d="M386.698 84.444c-.129 0-.277-.043-.433-.133l-15.268-8.822c-.51-.294-.922-.982-.922-1.533 0-.382.198-.602.488-.602.129 0 .277.044.434.135l15.268 8.821c.509.296.923.982.923 1.535 0 .382-.198.601-.49.601z" class="D"/><path d="M374.512 54.947l11.753 6.804c.509.294.923.982.923 1.533s-.414.762-.923.468l-11.753-6.804c-.51-.294-.924-.982-.926-1.535s.414-.761.926-.466z" class="B"/><path d="M386.698 63.885c-.129 0-.277-.043-.433-.133l-11.753-6.804c-.51-.294-.924-.982-.926-1.535 0-.382.199-.599.49-.599.129 0 .277.043.436.133l11.753 6.804c.509.294.923.982.923 1.533 0 .384-.199.601-.49.601z" class="D"/><path d="M374.512 60.087l11.753 6.804c.509.294.923.982.923 1.533s-.414.762-.923.468l-11.753-6.804c-.51-.294-.924-.98-.926-1.535s.414-.761.926-.466z" class="B"/><path d="M386.698 69.025c-.129 0-.277-.043-.433-.133l-11.753-6.804c-.51-.294-.924-.98-.926-1.535 0-.382.199-.601.49-.601a.9.9 0 0 1 .436.134l11.753 6.804c.509.294.923.982.923 1.533 0 .384-.199.601-.49.601z" class="D"/><path d="M370.997 63.208l15.268 8.822c.509.294.923.981.923 1.533s-.414.762-.923.468l-15.268-8.822c-.51-.294-.922-.981-.922-1.533s.412-.762.922-.468z" class="B"/><path d="M386.698 74.164c-.129 0-.277-.043-.433-.133l-15.268-8.822c-.51-.294-.922-.981-.922-1.533 0-.382.198-.601.488-.601.129 0 .277.043.434.133l15.268 8.822c.509.294.923.981.923 1.533 0 .382-.198.601-.49.601z" class="D"/><path d="M374.512 70.367l11.753 6.802c.509.294.923.98.923 1.533s-.414.762-.923.468l-11.753-6.802c-.51-.294-.924-.981-.926-1.533s.414-.762.926-.468z" class="B"/><path d="M386.698 79.304c-.129 0-.277-.043-.433-.133l-11.753-6.802c-.51-.294-.924-.981-.926-1.533 0-.384.199-.601.49-.601.129 0 .277.043.436.133l11.753 6.802c.509.294.923.981.923 1.533 0 .384-.199.601-.49.601z" class="D"/><path d="M361.63 79.925l27.157 15.689c1.007.582 1.823 1.997 1.823 3.161v62.008c0 1.164-.816 1.636-1.823 1.054l-27.157-15.691c-1.007-.581-1.823-1.997-1.823-3.162V80.978c0-1.164.816-1.637 1.823-1.054z" class="F"/><path d="M364.151 85.332l2.5 1.447c.51.294.924.981.924 1.533s-.414.762-.924.468l-2.5-1.447c-.51-.294-.923-.981-.923-1.533s.413-.762.923-.468z" class="B"/><path d="M367.085 88.913c-.129 0-.277-.043-.434-.133l-2.5-1.447c-.51-.294-.923-.981-.923-1.533 0-.382.198-.601.49-.601.129 0 .277.043.433.133l2.5 1.447c.51.294.924.981.924 1.533 0 .382-.199.601-.49.601z" class="C"/><path d="M367.665 92.49l2.5 1.447c.51.294.923.982.923 1.533s-.413.762-.923.468l-2.5-1.447c-.51-.294-.922-.981-.922-1.533s.412-.762.922-.468z" class="B"/><path d="M370.599 96.071c-.129 0-.277-.043-.434-.133l-2.5-1.447c-.51-.294-.922-.98-.922-1.533 0-.382.198-.601.488-.601.129 0 .277.043.434.133l2.5 1.447c.51.294.923.982.923 1.533 0 .384-.198.601-.489.601z" class="C"/><path d="M367.665 97.616l2.5 1.447c.51.294.923.982.923 1.534s-.413.762-.923.467l-2.5-1.447c-.51-.294-.922-.981-.922-1.533s.412-.762.922-.468z" class="B"/><path d="M370.598 101.197c-.129 0-.276-.042-.433-.133l-2.5-1.447c-.51-.294-.922-.981-.922-1.533 0-.382.198-.601.488-.601.129 0 .277.043.434.133l2.5 1.447c.51.294.923.982.923 1.533 0 .384-.198.601-.49.601z" class="C"/><path d="M364.151 100.747l2.5 1.447c.51.294.924.982.924 1.533s-.414.762-.924.468l-2.5-1.447c-.51-.294-.923-.981-.923-1.535s.413-.762.923-.466z" class="B"/><path d="M367.085 104.328a.89.89 0 0 1-.434-.133l-2.5-1.447c-.51-.295-.923-.981-.923-1.535 0-.382.198-.599.49-.599.129 0 .277.042.433.133l2.5 1.447c.51.294.924.982.924 1.533 0 .384-.199.601-.49.601z" class="C"/><path d="M370.997 89.29l15.268 8.821c.509.296.923.982.923 1.535s-.414.762-.923.468l-15.268-8.822c-.51-.296-.922-.982-.922-1.535s.412-.762.922-.466z" class="B"/><path d="M386.698 100.246c-.129 0-.277-.044-.433-.133l-15.268-8.822c-.51-.296-.922-.982-.922-1.535 0-.382.198-.599.488-.599.129 0 .277.043.434.133l15.268 8.821c.509.296.923.982.923 1.535 0 .383-.198.601-.49.601z" class="D"/><path d="M374.512 96.447l11.754 6.804c.508.294.922.982.922 1.533s-.414.764-.922.469l-11.754-6.804c-.51-.294-.924-.982-.925-1.533s.414-.762.925-.468z" class="B"/><path d="M386.698 105.385c-.129 0-.277-.042-.432-.133l-11.754-6.805c-.51-.294-.924-.982-.925-1.533 0-.382.198-.601.49-.601.13 0 .278.043.435.133l11.754 6.804c.508.294.922.982.922 1.533 0 .384-.198.602-.49.602z" class="D"/><path d="M374.512 101.586l11.754 6.804c.508.294.922.981.922 1.534s-.414.762-.922.467l-11.754-6.804c-.51-.294-.924-.982-.925-1.533s.414-.762.925-.468z" class="B"/><path d="M386.698 110.525a.88.88 0 0 1-.432-.134l-11.754-6.804c-.51-.294-.924-.982-.925-1.533 0-.384.198-.601.49-.601a.89.89 0 0 1 .435.133l11.754 6.804c.508.294.922.982.922 1.535 0 .382-.198.6-.49.6z" class="D"/><path d="M370.997 104.707l15.268 8.822c.509.295.923.982.923 1.534s-.414.762-.923.469l-15.268-8.824c-.51-.294-.922-.98-.922-1.533s.412-.762.922-.468z" class="B"/><path d="M386.698 115.665c-.129 0-.277-.044-.433-.133l-15.268-8.823c-.51-.295-.922-.981-.922-1.534 0-.382.197-.601.488-.601.129 0 .277.043.434.134l15.268 8.822c.509.294.923.981.923 1.533 0 .384-.198.602-.49.602z" class="D"/><path d="M367.665 107.939l2.5 1.447c.51.295.923.981.923 1.535s-.413.76-.923.466l-2.5-1.447c-.51-.294-.922-.982-.922-1.533s.412-.762.922-.468z" class="B"/><path d="M370.598 111.521c-.129 0-.276-.043-.433-.134l-2.5-1.446c-.51-.295-.922-.982-.922-1.534 0-.384.198-.601.488-.601.131 0 .277.043.434.134l2.5 1.446c.51.295.923.981.923 1.535 0 .382-.198.6-.49.6z" class="C"/><path d="M367.665 113.066l2.5 1.447c.51.294.923.981.923 1.533s-.413.762-.923.468l-2.5-1.447c-.51-.295-.922-.982-.922-1.534s.412-.762.922-.467z" class="B"/><path d="M370.599 116.647a.89.89 0 0 1-.434-.133l-2.5-1.447c-.51-.295-.922-.982-.922-1.534 0-.382.198-.6.488-.6a.88.88 0 0 1 .434.133l2.5 1.447c.51.294.923.981.923 1.533 0 .382-.198.601-.489.601z" class="C"/><path d="M374.512 111.896l11.754 6.805c.508.294.922.979.922 1.533s-.414.762-.922.467l-11.754-6.804c-.51-.294-.924-.98-.925-1.533s.414-.762.925-.468z" class="B"/><path d="M386.698 120.834c-.129 0-.277-.043-.432-.133l-11.754-6.804c-.51-.294-.924-.98-.925-1.533 0-.384.198-.601.49-.601.129 0 .278.043.435.133l11.754 6.805c.508.295.922.979.922 1.533 0 .383-.198.6-.49.6z" class="D"/><path d="M374.512 117.036l11.754 6.803c.508.295.922.982.922 1.535s-.414.761-.922.466l-11.754-6.803c-.51-.295-.924-.981-.925-1.535s.414-.761.925-.466z" class="B"/><path d="M386.698 125.974a.87.87 0 0 1-.432-.134l-11.754-6.803c-.51-.295-.924-.981-.925-1.535 0-.382.198-.599.49-.599a.88.88 0 0 1 .435.133l11.754 6.803c.508.295.922.982.922 1.535 0 .382-.198.6-.49.6z" class="D"/><path d="M364.151 126.506l2.5 1.447c.51.295.924.982.924 1.534s-.414.762-.924.467l-2.5-1.447c-.51-.294-.923-.98-.923-1.534s.413-.762.923-.467z" class="B"/><path d="M367.085 130.087a.88.88 0 0 1-.434-.133l-2.5-1.447c-.51-.294-.923-.98-.923-1.534 0-.383.198-.6.49-.6.129 0 .277.043.433.133l2.5 1.447c.51.295.924.982.924 1.534 0 .383-.199.6-.49.6z" class="C"/><path d="M370.997 130.467l15.268 8.822c.509.294.923.982.923 1.533s-.414.762-.923.468l-15.268-8.822c-.51-.294-.922-.98-.922-1.533s.412-.762.922-.468z" class="B"/><path d="M386.698 141.423c-.129 0-.277-.043-.433-.133l-15.268-8.822c-.51-.294-.922-.98-.922-1.533 0-.383.198-.601.488-.601a.88.88 0 0 1 .434.133l15.268 8.822c.509.294.923.982.923 1.533 0 .384-.198.601-.49.601z" class="D"/><path d="M367.665 133.699l2.5 1.447c.51.294.923.982.923 1.533s-.413.762-.923.468l-2.5-1.447c-.51-.294-.922-.982-.922-1.533s.412-.762.922-.468z" class="B"/><path d="M370.598 137.28c-.129 0-.276-.043-.433-.133l-2.5-1.447c-.51-.294-.922-.982-.922-1.533 0-.384.198-.601.488-.601.131 0 .277.042.434.133l2.5 1.447c.51.294.923.982.923 1.533 0 .384-.198.601-.49.601z" class="C"/><path d="M367.665 138.825l2.5 1.447c.51.295.923.982.923 1.533s-.413.763-.923.468l-2.5-1.447c-.51-.294-.922-.98-.922-1.534s.412-.761.922-.467z" class="B"/><path d="M370.598 142.406c-.129 0-.276-.042-.433-.133l-2.5-1.447c-.51-.294-.922-.98-.922-1.534 0-.383.198-.6.488-.6a.89.89 0 0 1 .434.133l2.5 1.447c.51.294.923.982.923 1.533 0 .384-.198.601-.49.601z" class="C"/><path d="M374.512 137.656l11.754 6.803c.508.296.922.982.922 1.535s-.414.762-.922.466l-11.754-6.803c-.51-.295-.924-.981-.925-1.534s.414-.762.925-.467z" class="B"/><path d="M386.698 146.595c-.129 0-.277-.044-.432-.135l-11.754-6.803c-.51-.295-.924-.981-.925-1.534 0-.383.198-.601.49-.601.13 0 .278.043.435.134l11.754 6.803c.508.296.922.982.922 1.535 0 .382-.198.601-.49.601z" class="D"/><path d="M374.512 142.795l11.754 6.804c.508.296.922.982.922 1.535s-.414.76-.922.466l-11.754-6.804c-.51-.294-.924-.981-.925-1.533s.414-.762.925-.468z" class="B"/><path d="M386.698 151.734a.88.88 0 0 1-.432-.134l-11.754-6.804c-.51-.294-.924-.982-.925-1.533 0-.384.198-.601.49-.601.129 0 .278.043.435.133l11.754 6.804c.508.296.922.982.922 1.535 0 .382-.198.6-.49.6z" class="D"/><path d="M367.665 118.165l2.5 1.447c.51.295.923.981.923 1.534s-.413.762-.923.466l-2.5-1.446c-.51-.294-.922-.981-.922-1.534s.412-.762.922-.467z" class="B"/><path d="M370.598 121.745c-.129 0-.276-.043-.433-.133l-2.5-1.446c-.51-.294-.922-.981-.922-1.534 0-.383.198-.601.488-.601.129 0 .277.044.434.134l2.5 1.447c.51.295.923.981.923 1.534 0 .382-.198.599-.49.599z" class="C"/><path d="M364.151 121.295l2.5 1.447c.51.294.924.982.924 1.534s-.414.762-.924.467l-2.5-1.446c-.51-.296-.923-.982-.923-1.534s.413-.762.923-.468z" class="B"/><path d="M367.085 124.877c-.129 0-.277-.044-.434-.134l-2.5-1.446c-.51-.296-.923-.982-.923-1.534 0-.384.198-.601.49-.601.129 0 .277.042.433.133l2.5 1.447c.51.294.924.982.924 1.534 0 .383-.199.601-.49.601z" class="C"/><path d="M374.512 122.136l11.754 6.803c.508.295.922.981.922 1.533s-.414.763-.922.468l-11.754-6.804c-.51-.294-.924-.981-.925-1.534s.414-.762.925-.466z" class="B"/><path d="M386.698 131.073c-.129 0-.277-.042-.432-.133l-11.754-6.804c-.51-.294-.924-.981-.925-1.534 0-.383.198-.601.49-.601.129 0 .278.044.435.134l11.754 6.804c.508.294.922.981.922 1.533 0 .383-.198.601-.49.601z" class="D"/><path d="M370.997 125.257l15.268 8.822c.509.294.923.98.923 1.533s-.414.762-.923.468l-15.268-8.822c-.51-.295-.922-.981-.922-1.535s.412-.761.922-.466z" class="B"/><path d="M386.698 136.213c-.129 0-.277-.043-.433-.133l-15.268-8.822c-.51-.295-.922-.981-.922-1.535 0-.382.198-.599.488-.599a.88.88 0 0 1 .434.133l15.268 8.822c.509.294.923.98.923 1.533 0 .382-.198.601-.49.601z" class="D"/><path d="M364.151 142.026l2.5 1.447c.51.295.924.982.924 1.535s-.414.761-.924.468l-2.5-1.449c-.51-.294-.923-.98-.923-1.533s.413-.762.923-.468z" class="B"/><path d="M367.085 145.609c-.129 0-.277-.044-.434-.133l-2.5-1.448c-.51-.295-.923-.981-.923-1.534 0-.382.198-.601.49-.601.129 0 .277.043.433.134l2.5 1.446c.51.295.924.982.924 1.535 0 .382-.199.601-.49.601z" class="C"/><path d="M370.997 145.989l15.268 8.821c.509.295.923.981.923 1.534s-.414.762-.923.467l-15.268-8.821c-.51-.295-.922-.981-.922-1.535s.412-.761.922-.466z" class="B"/><path d="M386.698 156.945c-.129 0-.277-.043-.433-.134l-15.268-8.822c-.51-.294-.922-.98-.922-1.534 0-.383.198-.6.488-.6.129 0 .277.043.434.134l15.268 8.821c.509.295.923.981.923 1.534 0 .382-.198.601-.49.601z" class="D"/><path d="M573.932 306.43c-.207 0-.44-.069-.671-.201l-21.487-12.407 14.47-8.363c1.31-.765 2.398-2.45 2.656-4.018a4.11 4.11 0 0 0 .06-.69v-1.082c0-.598-.145-1.24-.395-1.86a6.57 6.57 0 0 0-.587-1.124c-.47-.721-1.073-1.339-1.73-1.719l-53.515-30.888v-5.244l14.865 8.589 2.478 1.431.005.002.069.039c.284.164.569.248.824.248h.036l.333-.043.222-.076.137-.077.111-.075.031-.016-.003.002-.025.025.134-.076 2.74-1.585c.741-.421 1.238-1.173 1.355-2.016.017-.127.027-.253.027-.38v-11.967l13.887 8.017a.7.7 0 0 0 .352.11c.237 0 .398-.178.398-.489 0-.449-.336-1.008-.75-1.247l-13.887-8.018V219.85l13.887 8.017c.127.074.246.108.352.108.237 0 .398-.177.398-.487 0-.449-.336-1.008-.75-1.247l-13.887-8.018v-4.871l2.626 1.516c.127.073.246.108.352.108.237 0 .398-.178.398-.488 0-.45-.336-1.009-.75-1.247l-2.626-1.516v-24.258l39.298 22.666.004-.003v94.33c-.02.415-.097.77-.222 1.068a1.66 1.66 0 0 1-.389.554l-.117.104-.124.084-.11.063-.181.063-.271.033c-.009.001-.018.001-.028.001zm-21.815-65.119c0 .449.336 1.005.75 1.245l8.902 5.16a.72.72 0 0 0 .353.109c.235 0 .396-.177.396-.489 0-.449-.335-1.007-.749-1.247l-8.902-5.159c-.128-.074-.248-.108-.352-.108-.237 0-.398.177-.398.489zm0-13.011c0 .449.336 1.007.75 1.247l8.902 5.16c.126.073.246.108.351.108.237 0 .398-.177.398-.488 0-.45-.335-1.007-.749-1.247l-8.902-5.159a.72.72 0 0 0-.353-.11c-.237 0-.397.178-.397.489zm-11.261-12.999c0 .449.337 1.007.75 1.247l8.903 5.159c.127.073.246.108.352.108.236 0 .398-.177.398-.488 0-.448-.337-1.008-.75-1.246l-8.903-5.161c-.128-.074-.248-.108-.352-.108-.237 0-.398.177-.398.489zm-8.499 33.121c.243-.297.392-.678.392-1.112v-.569l.001-.022v-15.778l.001.001v16.365c0 .437-.149.82-.394 1.115zm.394-19.107h-.001v-11.383l.001.001v11.382zm0-13.009l-.001-.001v-4.872l.001.002v4.871zm0-6.498l-.001-.001v-24.256h.001v24.257z" fill="#58737c"/><g fill="#26545a"><path d="M545.408 290.147l15.939-9.213-15.939 9.213zm21.939-13.358a1.36 1.36 0 0 0 .025-.255c0-.363-.153-.726-.459-1.054.306.32.46.677.462 1.037 0 .091-.01.181-.028.272zm.631-.104c-.337-.514-.743-.975-1.192-1.33a3.08 3.08 0 0 0-.538-.389l-53.515-30.888 53.515 30.888c.657.38 1.26.998 1.73 1.719zm.922 4.756c.039-.232.059-.461.059-.685v-1.086c0-.595-.144-1.239-.395-1.861.251.62.397 1.262.397 1.86v1.082a4.11 4.11 0 0 1-.061.69z"/></g><path d="M551.773 293.822l-6.366-3.675 15.939-9.212 4.902-2.834c.636-.368 1.002-.833 1.098-1.312a1.32 1.32 0 0 0 .028-.272c-.001-.36-.156-.717-.462-1.037l-.126-.125c1.252.99 2.172 2.806 2.172 4.315v1.086c0 1.735-1.211 3.825-2.714 4.703l-14.471 8.363z" fill="#27595f"/><path d="M545.408 290.147l-30.561-17.645c-1.164-.673-2.114-2.31-2.114-3.663v-24.761l53.515 30.888c.749.433 1.124 1.001 1.124 1.568a1.36 1.36 0 0 1-.025.255c-.096.479-.462.944-1.099 1.312l-4.901 2.833-15.939 9.213z" fill="#276064"/><path d="M530.974 249.143c-.255 0-.54-.084-.824-.248l-.069-.039-.005-.003-2.478-1.43-14.865-8.589v-15.827l7.949 4.587a.88.88 0 0 0 .434.133c.292 0 .49-.217.49-.6 0-.552-.414-1.239-.924-1.534l-7.949-4.588v-5.811l7.949 4.587c.157.09.305.134.434.134.292 0 .49-.218.49-.601 0-.552-.414-1.238-.924-1.534l-7.949-4.587v-6l7.949 4.588c.157.089.305.133.434.133.245 0 .424-.154.476-.43l3.579 2.066c.128.073.248.108.353.108.237 0 .398-.177.398-.488 0-.449-.337-1.007-.751-1.247l-6.944-4.007c-.127-.074-.247-.109-.352-.109-.137 0-.248.058-.317.168l-4.825-2.785v-6l4.753 2.743a1.65 1.65 0 0 0 .741 1.115l14.523 8.385v4.872l-3.263-1.884c-.128-.073-.247-.108-.353-.108-.235 0-.398.178-.398.488 0 .45.337 1.007.751 1.247l3.263 1.884v11.383l-3.263-1.883c-.128-.075-.247-.11-.353-.11-.236 0-.398.178-.398.489 0 .449.337 1.007.751 1.246l3.263 1.884v15.778l-.001.022v.568c0 .435-.149.816-.392 1.113a1.68 1.68 0 0 1-.415.36l-.084.058-.014.016-.031.016-.111.075-.137.077-.222.076-.333.043h-.036zm-13.497-21.33c0 .449.335 1.007.75 1.247l6.944 4.007c.128.073.248.109.353.109.237 0 .398-.177.398-.489 0-.449-.337-1.007-.751-1.247l-6.944-4.007c-.127-.075-.247-.109-.352-.109-.237 0-.398.177-.398.489zm0-6.507c0 .45.335 1.009.75 1.248l6.944 4.008c.128.073.248.108.353.108.236 0 .398-.178.398-.488v-.003c0-.449-.337-1.007-.751-1.247l-6.944-4.007c-.127-.073-.247-.109-.352-.109-.237 0-.398.177-.398.489zm0-6.505c0 .449.335 1.007.75 1.247l6.944 4.007c.128.075.248.109.353.109.236 0 .398-.177.398-.488 0-.449-.337-1.008-.751-1.247l-6.944-4.008a.72.72 0 0 0-.352-.108c-.237 0-.398.178-.398.488zm15.273-4.994l-11.146-6.435.002-.06c0-.553-.414-1.24-.924-1.535l-7.949-4.588v-6.191l7.949 4.581a.89.89 0 0 0 .434.133c.292 0 .49-.217.49-.601 0-.552-.414-1.239-.924-1.533l-7.949-4.581v-6.042l7.949 4.608a.89.89 0 0 0 .434.133c.292 0 .49-.219.49-.601 0-.553-.414-1.239-.924-1.535l-7.949-4.608v-13.864l.014-.264.013-.069a2.47 2.47 0 0 0-.021.32v6.934l20.011 11.542v24.256z" class="E"/><path d="M531.815 248.883l.026-.025.002-.002c.196-.112.372-.258.514-.434.245-.295.394-.678.394-1.115v-16.365l3.32 1.917v11.967c0 .127-.009.253-.026.38-.117.843-.614 1.595-1.355 2.016l-2.74 1.585-.135.076zm4.256-17.651l-3.32-1.917v-11.382l3.32 1.917v11.382zm0-13.009l-3.32-1.917v-4.872l3.32 1.918v4.871zm0-6.498l-3.32-1.917v-24.257l3.32 1.916v24.258z" fill="#314f59"/><path d="M531.843 248.856l.015-.016.084-.058c.157-.096.297-.218.416-.36-.143.176-.319.322-.515.434z" fill="#2d4b56"/><path d="M521.116 227.728c-.129 0-.277-.043-.434-.134l-7.949-4.586v-2.003l7.949 4.588c.51.295.924.982.924 1.534 0 .383-.198.601-.49.601z" fill="#277576"/><g fill="#57747c"><path d="M521.116 195.712a.89.89 0 0 1-.434-.133l-7.949-4.58v-2.001l7.949 4.58c.51.294.924.982.924 1.533 0 .384-.198.601-.49.601zm0-8.016a.89.89 0 0 1-.434-.133l-7.949-4.608v-2.003l7.949 4.609c.51.295.924.981.924 1.534 0 .383-.198.601-.49.601z"/></g><g fill="#536f77"><path d="M521.604 203.372l-3.377-1.95a.71.71 0 0 0-.352-.108c-.237 0-.398.177-.398.487 0 .043.002.088.009.132l-4.753-2.743v-2.001l7.949 4.588c.51.295.924.982.924 1.535l-.002.06zm-.488 8.542c-.129 0-.277-.044-.434-.133l-7.949-4.588v-2.003l4.825 2.785c-.052.08-.081.188-.081.319 0 .451.335 1.009.751 1.247l3.364 1.943c-.052.276-.231.43-.476.43zm0 8.002c-.129 0-.277-.044-.434-.135l-7.949-4.587v-2.001l7.949 4.587c.51.296.924.982.924 1.535 0 .382-.198.601-.49.601z"/></g><path d="M554.862 188.95l-18.791-10.838v-.001l18.791 10.839zm-22.111-12.752l-.001-.002v-.001l.001.001v.002z" fill="#58737c"/><path d="M532.75 176.196l-17.903-10.326c-.249-.144-.487-.231-.708-.267a1.84 1.84 0 0 1 .351.095 2.63 2.63 0 0 1 .358.171l17.902 10.326v.001z" class="E"/><path d="M536.071 178.112l-3.32-1.914v-.002l3.32 1.915v.001z" fill="#314f59"/><path d="M512.829 166.434l.008-.032.007-.016a.44.44 0 0 0-.015.048zm.388-.615l.016-.014.012-.014.04-.022-.068.05z" class="E"/><g class="B"><path d="M513.425 165.687c.381-.18.874-.131 1.422.181l58.414 33.691c1.162.674 2.113 2.318 2.113 3.662v6.908l3.367-1.946v-6.86c0-1.345-.943-2.981-2.108-3.654l-58.421-33.693c-.603-.353-1.143-.361-1.532-.125l-3.255 1.836z"/><path d="M512.738 167.075c.007-1.335.948-1.875 2.109-1.205l58.414 33.692c1.165.674 2.11 2.313 2.11 3.66l-.001 6.911-62.632-36.124v-6.934z"/></g><path d="M577.624 198.527c-.296-.353-.632-.652-.991-.858l-40.562-23.394v-.002l40.56 23.393c.358.204.697.504.993.861zm-44.873-26.166l-.001-.001v-.003l.001.001v.003z" class="H"/><path d="M532.75 172.36l-14.538-8.384c-.335-.197-.652-.286-.933-.286a1.15 1.15 0 0 0-.599.161l-3.231 1.824 3.231-1.826a1.17 1.17 0 0 1 .601-.159c.282 0 .597.089.934.285l14.535 8.382v.003z" class="M"/><path d="M536.071 174.275l-3.32-1.914v-.003l3.32 1.915v.002z" fill="#8f9c9c"/><path d="M514.82 165.852a2.48 2.48 0 0 0-.33-.154 2.53 2.53 0 0 1 .33.154z" class="M"/><path d="M574.743 201.121c-.381-.655-.904-1.225-1.482-1.559l-18.399-10.612-18.791-10.839v-.002l37.19 21.45c.577.335 1.1.906 1.482 1.562zm-41.992-24.925l-.001-.001v-.001l.001.001v.001z" fill="#a5b7b8"/><path d="M532.75 176.195l-17.902-10.326a2.62 2.62 0 0 0-.358-.17c.107.04.217.092.329.153l.028.016 17.903 10.326v.001z" class="M"/><path d="M536.071 178.111l-3.32-1.915v-.001l3.32 1.915v.001z" fill="#90a4a6"/><g class="K"><path d="M574.743 201.121c-.382-.656-.905-1.227-1.482-1.562l-37.19-21.45-3.32-1.914-.001-.001-17.903-10.326c-.009-.006-.018-.011-.028-.016-.113-.063-.223-.114-.331-.155-.206-.077-.402-.116-.583-.116-.151 0-.289.026-.416.078-.016.006-.031.013-.046.02l3.237-1.828c.174-.104.376-.161.6-.161.28 0 .597.089.933.286l14.537 8.384.001.001 3.32 1.914 40.562 23.394c.358.206.695.505.991.858.174.21.335.441.475.682l-3.356 1.912z"/><path d="M574.742 201.122c-.378-.654-.908-1.223-1.483-1.56l-18.397-10.612 18.399 10.612c.578.334 1.101.905 1.482 1.559l-.001.001zm-61.308-35.439l.055-.024-.055.024z"/></g><path d="M575.374 210.13v-6.908 6.907l3.367-1.946v-6.86a3.39 3.39 0 0 0-.063-.626 3.22 3.22 0 0 1 .064.625l.001 6.869-.002.001v-.009l-3.367 1.946v.001z" fill="#d2d4d1"/><path d="M575.371 210.133l.001-6.911c0-.678-.238-1.429-.625-2.093h.001c.387.666.627 1.417.627 2.093v6.908l-.004.003z" fill="#486068"/><g fill="#19b19d"><path d="M575.374 210.129v-6.908c0-.675-.24-1.426-.626-2.092l3.351-1.92a4.88 4.88 0 0 1 .579 1.488c.04.212.062.422.062.626v6.86l-3.366 1.946z"/><path d="M575.371 210.133v-6.91c0-.685-.239-1.435-.631-2.1l.002-.001c.392.671.63 1.422.63 2.1l-.001 6.911z"/></g><path d="M574.747 201.129h0z" fill="#8a9a9c"/><g fill="#5cc7b3"><path d="M574.748 201.129l3.351-1.92-3.351 1.92z"/><path d="M574.747 201.129l-.004-.008z"/></g><g class="E"><path d="M572.301 202.404c.659.381 1.193 1.513 1.193 2.527s-.534 1.529-1.193 1.149-1.193-1.512-1.193-2.527.536-1.529 1.193-1.149zm-4.294-2.486c.657.381 1.193 1.513 1.193 2.527s-.536 1.531-1.193 1.15-1.193-1.512-1.193-2.528.534-1.529 1.193-1.149zm-4.295-2.486c.659.381 1.193 1.512 1.193 2.528s-.534 1.528-1.193 1.147-1.194-1.51-1.194-2.527.535-1.529 1.194-1.148z"/></g><path d="M574.597 306.234l.049-.048.117-.104c.166-.153.292-.339.389-.554a2.63 2.63 0 0 0 .222-1.068v-94.331l3.367-1.937v94.369c0 .409-.091.797-.244 1.117a1.62 1.62 0 0 1-.283.43 1.22 1.22 0 0 1-.36.291l-.265.146-1.134.629-.554.318-.029.015-.351.201-.008.007-.651.367-.265.152z" fill="#3a5059"/><path d="M575.151 305.528a3.12 3.12 0 0 0 .223-1.069c0 .388-.083.756-.223 1.069z" fill="#2b434d"/><path d="M575.374 210.129l3.367-1.946v.009l-3.367 1.938" fill="#364c55"/><g class="B"><path d="M517.587 185.683c0-.127.037-.217.108-.27l1.517-1.39.071-.013.037.016.12.145.049.213v1.057c0 .134-.009.231-.032.29l-.106.163-.8.736.8 1.662.106.287a1.28 1.28 0 0 1 .032.327v1.056l-.049.155-.12.009-.037-.028-.071-.095-1.517-3.144c-.071-.135-.108-.267-.108-.393v-.783zm5.554-1.468l.114-.177.224.017.57.329.12.147.049.212-.015.098-2.602 8.096-.11.176-.23-.015-.547-.317-.118-.145-.051-.213.016-.098 2.58-8.11zm4.027 7.787c0 .126-.036.216-.108.269l-1.516 1.391-.071.012-.037-.015-.12-.147-.049-.213v-1.055c0-.136.011-.232.029-.292l.108-.163.802-.736-.802-1.661-.108-.288c-.018-.082-.029-.192-.029-.326v-1.055l.049-.156.12-.008.037.028.071.093 1.516 3.144c.072.136.108.268.108.394v.784zm4.22 4.147l.148.178.062.263v1.163l-.062.189-.148.011-.716-.415-.146-.178-.062-.261v-1.163l.062-.191.146-.01.716.414zm2.396 1.384l.148.18.06.26v1.163l-.06.19-.148.011-.716-.414-.146-.18-.062-.261v-1.162l.062-.191.146-.01.716.414zm2.395 1.383l.147.18.061.261v1.163l-.061.19-.147.01-.716-.413-.145-.18-.063-.261v-1.163l.063-.189.145-.011.716.413zm-17.952-4.015l35.098 20.277c.412.24.749.798.749 1.247s-.337.62-.749.381l-35.098-20.279a1.61 1.61 0 0 1-.75-1.247c0-.449.335-.619.75-.379z"/></g><g class="I"><path d="M529.487 220.925l35.097 20.278c.414.239.75.798.75 1.247s-.336.619-.75.379l-35.097-20.277c-.414-.24-.751-.798-.751-1.247s.337-.62.751-.38zm0 13.012l16.799 9.713c.414.24.75.798.75 1.246s-.336.619-.75.381l-16.799-9.713c-.414-.24-.751-.798-.751-1.246s.337-.621.751-.381z"/></g><g class="B"><path d="M556.232 216.859l13.982 8.05c.415.238.751.796.751 1.245s-.336.62-.751.38l-13.982-8.049c-.414-.239-.751-.797-.751-1.247s.337-.618.751-.379zm-38.005 49.602l35.098 20.278c.412.24.749.798.749 1.247s-.337.619-.749.379l-35.098-20.277c-.415-.24-.75-.798-.75-1.247s.335-.619.75-.38zm38.005 21.958l13.982 8.049c.415.24.751.798.751 1.247s-.336.62-.751.38l-13.982-8.049c-.414-.24-.751-.798-.751-1.247s.337-.62.751-.38zm0-19.484l13.982 8.049c.415.24.751.799.751 1.247s-.336.62-.751.381l-13.982-8.049c-.414-.24-.751-.798-.751-1.247s.337-.619.751-.381zm0 6.505l13.982 8.05c.415.238.751.798.751 1.247s-.336.619-.751.379l-13.982-8.049c-.414-.24-.751-.798-.751-1.247s.337-.619.751-.38zm-11.924-13.412l7.857 4.539c.414.24.749.798.749 1.247s-.335.619-.749.379l-7.857-4.538c-.414-.24-.75-.798-.75-1.247s.336-.62.75-.38zm-26.081-60.606l20.471 11.819c.414.239.75.797.75 1.247s-.336.619-.75.38l-20.471-11.82c-.415-.239-.75-.798-.75-1.247s.335-.618.75-.379z"/></g><path d="M539.05 214.976c-.106 0-.225-.035-.352-.108l-2.626-1.516-3.321-1.917-.001-.002-14.523-8.385c-.375-.217-.685-.692-.741-1.115-.007-.044-.009-.089-.009-.132 0-.31.161-.487.398-.487a.71.71 0 0 1 .352.108l20.471 11.819c.414.239.75.797.75 1.247 0 .31-.162.488-.398.488z" class="C"/><path d="M518.227 207.916l6.944 4.008c.414.239.751.797.751 1.246s-.337.619-.751.38l-6.944-4.008a1.61 1.61 0 0 1-.75-1.247c0-.449.335-.619.75-.379z" class="B"/><path d="M525.524 213.658c-.105 0-.225-.035-.353-.108l-3.58-2.066-3.364-1.943c-.415-.238-.75-.796-.75-1.246 0-.311.161-.488.398-.488.105 0 .225.035.352.109l6.944 4.007c.414.24.751.798.751 1.247 0 .311-.161.488-.398.488z" class="C"/><path d="M518.227 214.422l6.944 4.007c.414.24.751.798.751 1.247s-.337.619-.751.379l-6.944-4.007c-.415-.24-.75-.798-.75-1.247s.335-.619.75-.379z" class="B"/><path d="M525.524 220.165a.71.71 0 0 1-.353-.11l-6.944-4.007c-.415-.24-.75-.798-.75-1.247 0-.31.161-.487.398-.487.105 0 .225.034.352.107l6.944 4.008c.414.239.751.798.751 1.247 0 .311-.162.489-.398.489z" class="C"/><path d="M518.227 220.927l6.944 4.008c.414.239.751.797.751 1.247s-.337.62-.751.38l-6.944-4.008c-.415-.239-.75-.798-.75-1.248s.335-.618.75-.379z" class="B"/><path d="M525.922 226.181c0-.449-.337-1.007-.751-1.246l-6.944-4.009c-.127-.073-.247-.107-.352-.107-.237 0-.398.177-.398.487 0-.313.161-.49.398-.49.105 0 .225.036.352.109l6.944 4.007c.414.24.751.798.751 1.247v.002z" fill="#a6b7b9"/><path d="M525.524 226.668c-.105 0-.225-.036-.353-.109l-6.944-4.007c-.415-.24-.75-.797-.75-1.246 0-.31.161-.487.398-.487a.71.71 0 0 1 .352.108l6.944 4.008c.414.239.751.797.751 1.246 0 .31-.162.487-.398.487z" class="C"/><path d="M550.311 240.986a.7.7 0 0 1-.352-.11l-13.888-8.017v-1.626l13.888 8.017c.414.24.75.798.75 1.247 0 .311-.161.489-.398.489zm-17.56-10.044l-.001-.001v-1.626h.001v1.627z" fill="#98dccd"/><g fill="#90d9ca"><path d="M532.75 230.941l-3.263-1.884c-.414-.239-.751-.797-.751-1.246 0-.311.161-.489.398-.489.106 0 .225.035.353.11l3.263 1.883v1.626z"/><path d="M536.071 232.859l-3.32-1.917v-1.627l3.32 1.918v1.626z"/></g><path d="M562.122 247.825a.72.72 0 0 1-.353-.109l-8.902-5.16c-.414-.239-.75-.796-.75-1.245 0-.312.161-.489.398-.489.104 0 .224.034.352.108l8.902 5.159c.414.24.749.798.749 1.247 0 .312-.161.489-.396.489z" fill="#98dccd"/><path d="M518.227 227.433l6.944 4.008c.414.239.751.797.751 1.246s-.337.62-.751.38l-6.944-4.007c-.415-.24-.75-.798-.75-1.247s.335-.62.75-.38z" class="B"/><path d="M525.524 233.176c-.105 0-.225-.036-.353-.109l-6.944-4.007c-.415-.24-.75-.798-.75-1.247 0-.312.161-.489.398-.489.105 0 .225.035.352.109l6.944 4.007c.414.24.751.798.751 1.247 0 .312-.161.489-.398.489z" class="C"/><path d="M541.605 214.92l8.904 5.161c.413.238.749.798.749 1.247s-.336.618-.749.379l-8.904-5.159c-.412-.24-.749-.798-.749-1.247s.335-.62.749-.381z" class="B"/><path d="M550.86 221.815c-.105 0-.225-.034-.351-.108l-8.904-5.159c-.412-.24-.749-.798-.749-1.247 0-.312.161-.489.398-.489a.71.71 0 0 1 .351.108l8.904 5.161c.413.238.749.798.749 1.247 0 .31-.161.487-.398.487z" class="C"/><g class="H"><path d="M537.933 245.314l20.472 11.819a1.61 1.61 0 0 1 .75 1.247c0 .449-.335.618-.75.378l-20.472-11.818c-.414-.239-.75-.797-.75-1.246s.336-.62.75-.38zm11.81 13.355l20.471 11.819c.415.24.752.799.752 1.246s-.337.62-.752.381l-20.471-11.819c-.414-.24-.749-.798-.749-1.247s.335-.62.749-.38zm11.57.143l8.901 5.16c.415.241.751.798.751 1.246s-.336.62-.751.381l-8.901-5.16a1.61 1.61 0 0 1-.75-1.247c-.002-.448.335-.619.75-.38z"/></g><path d="M561.313 284.581l8.901 5.159c.415.24.751.798.751 1.247s-.336.62-.751.38l-8.901-5.16c-.415-.24-.75-.798-.75-1.247s.335-.619.75-.379z" class="I"/><path d="M529.487 214.421l20.472 11.82c.414.239.75.798.75 1.247s-.336.618-.75.379l-20.472-11.819c-.414-.24-.751-.797-.751-1.247s.337-.619.751-.38z" class="B"/><path d="M550.311 227.975c-.106 0-.225-.034-.352-.108l-13.887-8.017-3.321-1.917-.001-.001-3.263-1.884c-.414-.24-.751-.797-.751-1.247 0-.31.163-.487.398-.487a.72.72 0 0 1 .353.107l20.472 11.82c.414.24.75.798.75 1.247 0 .31-.161.487-.398.487z" class="C"/><path d="M552.867 227.921l8.902 5.159c.414.24.749.797.749 1.247s-.335.62-.749.38l-8.902-5.16c-.414-.24-.75-.798-.75-1.247s.336-.619.75-.379z" class="B"/><path d="M562.12 234.815c-.105 0-.225-.035-.351-.108l-8.902-5.16c-.414-.239-.75-.798-.75-1.247 0-.311.16-.488.397-.488.105 0 .225.036.353.109l8.902 5.159c.414.24.749.797.749 1.247 0 .311-.161.488-.398.488z" class="C"/><path d="M432.101 311.225c-2.241 0-4.457-.5-6.224-1.522l-12.547-7.247c-3.955-2.286-3.851-5.797.232-7.845l25.55-13.863c1.892-.95 4.304-1.416 6.743-1.416 2.824 0 5.682.626 7.803 1.856l6.29 3.647c3.951 2.292 4.16 6.328.468 9.017l-20.694 15.121c-2.042 1.487-4.85 2.252-7.621 2.252z" class="N"/><path d="M460.761 287.281l-14.32 11.203-10.567 8.274c-1.025.48-2.199.743-3.373.81-1.786.1-3.605-.248-5.011-1.059l-11.226-6.487-.017-.016-.064-.037c-3.941-2.294-4.869-7.621-2.269-11.368a13.73 13.73 0 0 1 .332-.459c2.134-2.879 5.309-4.965 9.028-5.726l5.689-1.142c9.211-1.87 16.767-2.78 17.643-2.185l14.071 8.159.084.033z" class="F"/><path d="M452.756 293.548l.803-.632-12.626-7.295 11.05-3.422-1.119-.646-11.049 3.422-7.53-4.351-1.427.271 21.898 12.653z" class="B"/><path d="M437.116 306.078l.066-.049.015-.017 10.055-7.263 13.574-9.813v-1.539l-.065-.116-.084-.033c-1.007-.348-6.894 1.422-14.004 4.252l-4.713 1.87a14.67 14.67 0 0 0-4.018 2.383c-3.39 2.796-5.441 7.016-5.441 11.567v.248c1.175-.067 2.349-.331 3.374-.81l1.241-.68z" class="G"/><path d="M462.031 507.091c-13.816-14.265-21.931-72.323-8.456-83.637h68.563c13.473 11.31 5.367 69.348-8.441 83.624-.119.133-.253.261-.378.393l-.476.47c-.39.383-.804.757-1.25 1.123l-.328.264c-.34.268-.674.537-1.044.797-.589.422-1.184.816-1.785 1.155-11.365 6.638-29.79 6.638-41.153 0h-.002-.001c-.607-.341-1.205-.739-1.798-1.163-.344-.243-.654-.495-.971-.744l-.409-.324c-.428-.354-.828-.716-1.203-1.084-.185-.176-.368-.361-.549-.543l-.319-.331z" class="B"/><path d="M487.859 516.258c-7.447 0-14.894-1.659-20.576-4.978h-.001-.002c-.607-.341-1.204-.739-1.798-1.163-.344-.243-.654-.495-.971-.744-.135-.109-.273-.21-.408-.324a19.08 19.08 0 0 1-1.204-1.084c-.185-.176-.367-.361-.548-.543l-.32-.331c-8.845-9.132-15.352-36.208-15.356-57.482-.001-5.005.358-9.688 1.132-13.742.178 5.849 4.087 11.667 11.727 16.13 7.821 4.569 18.073 6.855 28.325 6.855s20.504-2.286 28.325-6.855c7.632-4.459 11.541-10.269 11.727-16.112.771 4.047 1.129 8.722 1.129 13.716-.001 21.268-6.503 48.338-15.343 57.477-.118.133-.253.261-.378.393l-.475.47c-.39.383-.804.757-1.25 1.123l-.329.264c-.339.268-.674.537-1.044.797-.588.422-1.183.816-1.785 1.155-5.682 3.319-13.13 4.978-20.577 4.978z" class="K"/><path d="M516.185 418.897c15.643 9.14 15.643 23.959-.001 33.1s-41.007 9.14-56.651 0-15.643-23.96 0-33.1 41.007-9.141 56.652 0z" class="B"/><path d="M487.859 458.852c-10.252 0-20.504-2.286-28.326-6.855-7.803-4.561-11.715-10.533-11.733-16.508 2.407 3.128 9.304 10.987 19.283 13.149a45.21 45.21 0 0 0 3.134.565c5.212 2.287 11.427 3.432 17.642 3.432 7.529 0 15.057-1.679 20.802-5.035.013-.008.024-.014.037-.022 2.106-1.235 3.823-2.609 5.153-4.072 4.495-1.568 8.301-4.489 11.385-8.059a28.75 28.75 0 0 0 2.336-3.079 13.81 13.81 0 0 1 .345 3.079c0 5.989-3.911 11.979-11.733 16.55s-18.074 6.855-28.325 6.855zM447.9 433.787c.245-2.019.936-4.024 2.071-5.958a66.35 66.35 0 0 1 7.431-.404c1.554 0 3.009.05 4.32.123a14.81 14.81 0 0 0-1.645 2.234c-5.063 1.353-10.069 3.199-12.177 4.005z" fill="#a1dfd6"/><path d="M508.661 423.293c11.488 6.712 11.488 17.594 0 24.307s-30.116 6.712-41.605 0-11.488-17.594.002-24.307 30.114-6.713 41.603 0z" class="B"/><path d="M487.859 452.635c-6.215 0-12.43-1.145-17.642-3.432l.001.001c5.211 2.286 11.426 3.431 17.641 3.431zm20.802-5.035c.012-.008.025-.014.037-.022-.013.008-.024.014-.037.022zm.038-.024c2.096-1.228 3.793-2.597 5.111-4.055.013-.005.027-.009.041-.015-1.33 1.463-3.047 2.837-5.152 4.07zm-48.622-17.794a14.81 14.81 0 0 1 1.645-2.234c3.981.224 6.624.674 6.624.674-2.412.161-5.35.779-8.269 1.56z" fill="#06ab91"/><path d="M467.058 434.828c11.487-6.711 30.114-6.711 41.603 0 3.192 1.866 5.463 4.057 6.881 6.386-1.418 2.33-3.689 4.521-6.881 6.386-11.489 6.712-30.116 6.712-41.603 0-3.191-1.865-5.464-4.056-6.883-6.386 1.419-2.329 3.692-4.52 6.883-6.386z" fill="#f3f2f1"/><path d="M482.242 405.532c-.767-1.561-1.412-3.183-1.748-5.007-.768-4.179.273-8.971 3.653-11.543 1.346-1.025 3.095-1.784 3.668-3.375.314-.876.195-1.845.033-2.761-.627-3.569-1.832-7.244-.84-10.727.919-3.224 3.624-5.695 6.651-7.132s6.383-1.989 9.689-2.533c1.761-.291 3.565-.599 5.122-1.471 1.916-1.073 2.511-2.967 3.705-4.63 1.314-1.831 3.024-3.527 4.7-5.025 3.49-3.122 7.863-5.691 12.697-5.478 10.084.447 9.799 9.131 6.888 15.715s-3.677 8.726 2.624 15.583 6.313 15.312-1.204 20.047-12.408 5.358-9.433 14.472c2.657 8.135 4.304 15.083-3.211 23.78-4.856 5.619-11.498 9.631-19.805 9.29-2.355-.097-7.529-1.18-9.715-2.267-2.287-1.138-.746-2.918-1.518-5.176l-4.98-14.553c-1.285-3.754-2.263-7.92-3.961-11.477-.951-1.997-2.074-3.819-3.015-5.732z" class="B"/><path d="M506.414 444.757a23.19 23.19 0 0 1-.983-.02c-2.182-.09-6.782-1.027-9.185-2.027 6.01-5.604 9.1-13.138 9.156-22.456v-.161c0-6.239-2.154-11.668-4-15.175 7.817-27.352 22.156-42.896 22.355-43.108.282-.3.271-.775-.028-1.062-.142-.138-.327-.207-.512-.207a.74.74 0 0 0-.537.231c-.198.212-14.284 15.463-22.296 42.338-.913-1.52-1.582-2.377-1.582-2.377-1.907 9.921-10.242 15.307-10.242 15.307 3.7-4.782 6.338-13.343 7.124-18.954-.971-2.164-2.653-4.567-6.019-7.541-.902-.798-2.018-1.548-3.165-2.219.577-.473 1.062-1.014 1.315-1.719.144-.401.197-.82.197-1.245 0-.505-.075-1.018-.164-1.516-.455-2.593-1.217-5.241-1.217-7.832-.001-.976.107-1.943.377-2.895.919-3.224 3.624-5.695 6.651-7.132s6.383-1.989 9.689-2.533c1.761-.291 3.565-.599 5.122-1.471 1.916-1.073 2.511-2.967 3.705-4.63 1.314-1.831 3.024-3.527 4.7-5.025 3.353-3.001 7.524-5.49 12.133-5.49.187 0 .375.004.564.012 6.441.285 8.652 3.93 8.651 8.243-.002 2.439-.711 5.093-1.763 7.472-1.305 2.951-2.179 5.009-2.178 7.001 0 2.45 1.325 4.798 4.802 8.582 3.014 3.281 4.589 6.929 4.589 10.359-.002 3.738-1.873 7.219-5.793 9.688-5.987 3.774-10.311 4.936-10.315 9.864-.002 1.256.278 2.756.882 4.608 1.222 3.742 2.231 7.234 2.233 10.759.001 4.137-1.386 8.324-5.444 13.021-4.663 5.396-10.972 9.31-18.822 9.31z" fill="#0cad96"/><g class="H"><path d="M495.953 442.429c.294-.102.502-.384.499-.716-.426-49.847 27.028-79.608 27.305-79.903.282-.3.27-.775-.028-1.062s-.765-.277-1.049.024-28.144 30.469-27.711 80.952c.003.416.338.749.747.746l.237-.041z"/><path d="M503.944 396.062l.151-.071c8.932-5.626 24.875-9.824 25.034-9.868.401-.105.635-.513.531-.914s-.507-.645-.904-.541c-.663.172-16.322 4.3-25.447 10.046-.349.22-.454.681-.237 1.034a.74.74 0 0 0 .872.314zm2.759-6.835l.04-.015a.75.75 0 0 0 .404-.977c-3.126-7.73-8.033-13.624-8.24-13.871-.265-.316-.736-.359-1.045-.088s-.352.742-.085 1.059c.049.06 4.962 5.967 7.998 13.464a.74.74 0 0 0 .928.428z"/></g><path d="M488.953 447.828s-9.323 3.53-21.87.81-20.224-14.445-20.224-14.445 13.572-5.442 21.488-5.971c0 0-12.282-2.094-23.772.51 0 0-7.264-2.707-5.887-14.982 0 0 6.836-5.042 22.572-3.067 0 0-7.885-5.632-21.71-7.295-1.087.011.385-15.98 1.703-23.107s3.933-6.027 9.586-5.411 22.373 4.423 24.495 8.527.06 14.568.06 14.568 4.596-5.723 4.614-13.695c0 0 6.293 2.302 9.657 5.275s5.048 5.377 6.019 7.541c-.785 5.611-3.424 14.172-7.124 18.954 0 0 8.335-5.386 10.242-15.307 0 0 6.665 8.52 6.6 19.521-.076 12.545-5.648 21.859-16.449 27.574z" class="B"/><path d="M476.674 449.668a45.23 45.23 0 0 1-9.591-1.03c-12.548-2.719-20.224-14.445-20.224-14.445s13.572-5.442 21.488-5.971c0 0-2.644-.45-6.625-.674-1.311-.073-2.766-.123-4.32-.123-2.309 0-4.837.11-7.431.404-1.785.204-3.599.496-5.397.903 0 0-6.054-2.256-6.061-11.994a26.74 26.74 0 0 1 .175-2.988s4.781-3.525 15.546-3.525c2.11 0 4.446.135 7.026.459 0 0-7.885-5.633-21.71-7.296h-.001c-.265 0-.378-.952-.377-2.496 0-4.779 1.085-15.225 2.081-20.611.888-4.796 2.362-5.867 4.952-5.867 1.261 0 2.785.253 4.634.456 5.654.614 22.373 4.423 24.495 8.527.721 1.395.959 3.524.959 5.727 0 4.281-.899 8.841-.899 8.841s4.596-5.723 4.614-13.695c0 0 6.293 2.302 9.657 5.275s5.048 5.377 6.019 7.541c-.786 5.611-3.424 14.172-7.124 18.954 0 0 8.335-5.386 10.242-15.307 0 0 6.6 8.437 6.6 19.36v.161c-.056 9.318-3.146 16.853-9.156 22.456-2.082 1.94-4.515 3.647-7.293 5.118 0 0-4.858 1.84-12.279 1.84z" fill="#1db3a0"/><path d="M490.612 446.713a.72.72 0 0 1-.453-.615c-1.898-23.788-28.495-60.948-40.252-68.408a.73.73 0 0 1-.225-.996c.211-.338.654-.435.985-.228 11.948 7.585 38.986 45.348 40.911 69.516.032.397-.26.744-.652.776l-.314-.045z" class="H"/><path d="M250.086 431.84c-.048-.266-4.273-15.711-4.273-15.711s1.391 1.422 10.316-.935c4.539-1.197 9.705-4.076 9.705-4.076l2.548 11.291c2.376 4.346 10.256 2.345 18.887 1.362 1.452-.165 2.943-.409 4.435-.666l.089-.011c4.662-.256 9.34 2.546 4.494 6.524s-12.838 5.483-20.207 6.816c-8.862 1.602-24.406 4.207-25.994-4.594z" class="J"/><path d="M312.053 430.473s.936 1.788.646 4.746c-.169 1.72-4.42 7.557-11.929 11.129s-16.802 3.813-21.15 5.065-8.332 3.751-13.458 5c-5.279 1.287-10.19 1.912-15.328-1.474-.945-1.46-1.994-4.832-1.69-5.161.817-.883 62.909-19.305 62.909-19.305z" class="G"/><path d="M269.736 423.913c3.305 2.288 10.144.7 17.533-.142 6.967-.794 14.813-3.244 19.549-1.601s8.697 7.222 2.296 14.375c-1.852 2.069-5.771 5.71-8.902 6.832-7.957 2.851-15.096 3.081-20.215 4.344-6.659 1.646-10.299 4.596-16.46 5.312-7.971.926-13.014-1.125-14.393-3.255s-2.659-19.303.759-18.948c0 0 1.439 5.557 14.46.16 5.685-2.357 5.595-5.826 5.373-7.077z" class="B"/><path d="M259.741 453.262c-5.781 0-9.452-1.714-10.597-3.483-.726-1.124-1.425-6.419-1.423-11.13 0-4.138.54-7.824 2.079-7.824.033 0 .068.002.103.006 0 0 .652 2.517 5.049 2.517 2.135 0 5.155-.594 9.411-2.358 4.686-1.942 5.449-4.64 5.447-6.229 0-.338-.036-.627-.074-.847 1.263.874 3.043 1.181 5.172 1.181 2.343 0 5.109-.373 8.078-.775l7.131 18.507.252.015 1.097 2.869c-4.401.848-8.318 1.234-11.469 2.011-6.659 1.645-10.299 4.596-16.46 5.311-1.35.157-2.618.229-3.796.229z" class="L"/><g fill="#fafaf9"><path d="M291.834 433.13s-.748-7.253-6.103-9.174c0 0-1.726-.792-2.952.389 0 0 4.971.722 6.599 9.228 0 0 .257.563 1.34.367.364-.065 1.167-.211 1.116-.81zm-13.622-8.22s-.007-.241 1.258-.477c.911-.169 1.468.161 1.468.161s3.995 1.731 4.744 9.312c0 0-.034.914-1.232 1.166s-1.428-.742-1.428-.742-.823-7.976-4.81-9.42zm-4.287.156s.225-.457 1.165-.452c1.185.007 1.459.465 1.459.465s2.844 2.918 2.876 9.253c0 0 .118 1.075-1.373 1.183s-1.279-1.104-1.279-1.104-.514-8.071-2.848-9.345z"/></g><path d="M244.572 326.824c6.525 19.623 23.831 87.202 23.831 87.202s-11.261 10.126-23.482 5.513l-29.11-84.151 28.761-8.564z" class="F"/><path d="M294.879 453.656c-1.332-1.981-6.337-15.725-6.337-15.725s5.226 2.988 14.206.851c4.568-1.087 8.836-6.049 8.836-6.049l3.835 13.213c2.269 4.402 9.597 2.945 18.25 2.175 1.455-.131 2.952-.337 4.449-.557l.091-.009c4.666-.14 9.275 2.775 4.332 6.633s-12.969 5.166-20.368 6.317c-8.899 1.384-22.302.568-27.294-6.849z" class="J"/><path d="M362.004 453.242s.957 1.945.568 5.112c-.228 1.842-4.946 7.997-13.101 11.634s-18.137 3.65-22.837 4.88-9.045 3.807-14.579 5.013c-5.704 1.241-10.992 1.782-16.418-1.987-.976-1.593-2.015-5.242-1.679-5.585.901-.926 68.046-19.067 68.046-19.067z" class="G"/><path d="M316.83 444.957l1.636 1.015c.591.304 1.162.289 1.817.368 1.45.176 2.902.182 4.36.11 3.657-.181 7.285-.732 10.93-1.057 7.5-.668 15.988-3.092 21.028-1.203s9.645 7.961 2.584 15.471c-2.041 2.172-6.245 5.836-9.461 7.183-8.374 3.504-17.061 2.848-22.589 4.071-7.194 1.589-11.178 4.661-17.811 5.268-8.583.783-13.942-1.551-15.366-3.874-.794-1.298.089-8.031-.987-13.261-.926-4.502-.683-7.57.935-7.361.254.58.855 1.102 1.254 1.591.519.635 1.174 1.132 1.904 1.505 1.01.519 2.119.806 3.22 1.085 1.958.495 3.962.976 5.977.822.575-.045 1.176-.153 1.624-.517.591-.481.784-1.286.944-2.032l.422-1.986c.077-.36.157-.73.362-1.036.244-.364.637-.596 1.02-.81 1.209-.676 2.507-1.338 3.268-2.494.597-.906.791-2.011.96-3.083.028-.187.068-.39.214-.506.247-.196.601-.03.864.138.299.189.594.392.891.593z" class="B"/><path d="M306.03 476.337c-6.663 0-10.841-2.018-12.072-4.028-.794-1.298.089-8.031-.987-13.261-.355-1.727-.539-3.244-.537-4.444 0-1.829.427-2.927 1.32-2.927.049 0 .1.004.152.011.254.579.855 1.101 1.254 1.59.519.636 1.174 1.133 1.904 1.506 1.01.518 2.119.806 3.22 1.084 1.704.43 3.443.851 5.192.851.262 0 .523-.009.785-.029.575-.045 1.176-.153 1.624-.517.592-.481.785-1.285.944-2.032l.422-1.986c.078-.36.157-.73.362-1.036.244-.364.637-.596 1.02-.81 1.209-.676 2.507-1.338 3.268-2.494.597-.906.791-2.01.96-3.083.028-.186.068-.39.215-.506.078-.064.169-.089.264-.089.2 0 .421.113.6.227.298.19.593.392.89.593.535.364 1.074.728 1.636 1.015.591.304 1.162.289 1.817.368.906.109 1.811.153 2.719.153a34.63 34.63 0 0 0 1.641-.042c3.657-.182 7.285-.733 10.93-1.058 5.471-.488 11.47-1.909 16.27-1.909 1.78 0 3.395.196 4.758.706 3.186 1.194 6.196 4.058 6.2 7.899.001 2.238-1.017 4.807-3.616 7.572-2.041 2.173-6.245 5.836-9.461 7.183-8.374 3.504-17.061 2.848-22.589 4.071-7.194 1.59-11.178 4.662-17.81 5.268-1.157.105-2.257.154-3.295.154z" class="L"/><g fill="#fafaf9"><path d="M340.227 455.562s-.612-7.807-6.311-10.009c0 0-1.832-.898-3.178.338 0 0 5.317.907 6.841 10.082 0 0 .261.61 1.429.429.394-.061 1.258-.196 1.219-.84zm-14.408-9.185s-.001-.258 1.363-.478c.981-.159 1.571.21 1.571.21s4.245 1.964 4.847 10.124c0 0-.059.98-1.353 1.219s-1.512-.836-1.512-.836-.673-8.584-4.916-10.239zm-4.607.055s.253-.484 1.264-.454c1.271.038 1.553.538 1.553.538s2.976 3.207 2.844 10.009c0 0 .098 1.156-1.506 1.233s-1.343-1.217-1.343-1.217-.339-8.68-2.812-10.109z"/></g><g class="E"><path d="M290.491 349.995c5.138 15.813 18.256 60.834 24.25 83.988 0 0-10.771 9.69-24.624 8.844l-33.404-86.677 13.304-8.239 20.474 2.084zM180.513 566.394c1.196 0 2.166-.969 2.166-2.167V424.892c0-1.199-.97-2.168-2.166-2.168s-2.166.969-2.166 2.168v139.335c0 1.198.969 2.167 2.166 2.167zm-86.147-50.717a2.16 2.16 0 0 0 2.013-1.372l42.697-108.143c.439-1.114-.106-2.373-1.218-2.811a2.16 2.16 0 0 0-2.809 1.219L92.352 512.715c-.439 1.113.106 2.372 1.219 2.81a2.14 2.14 0 0 0 .795.152z"/><path d="M99.494 502.688a2.16 2.16 0 0 0 1.574-.679l79.446-84.13 79.304 83.774c.821.873 2.192.909 3.06.083a2.17 2.17 0 0 0 .083-3.063l-80.876-85.438a2.17 2.17 0 0 0-1.573-.677h-.001c-.595 0-1.165.245-1.572.679l-81.018 85.796a2.17 2.17 0 0 0 .086 3.064c.419.394.952.591 1.487.591z"/><path d="M266.658 515.677c.264 0 .534-.048.795-.152 1.113-.438 1.658-1.697 1.218-2.81L225.975 404.57c-.439-1.115-1.697-1.664-2.808-1.219-1.113.438-1.66 1.697-1.219 2.811l42.696 108.143a2.16 2.16 0 0 0 2.014 1.372z"/></g><path d="M267.703 377.107c1.554-8.741-5.563-15.561-18.949-24.602s-30.502-18.002-38.786-21.807c-11.199-5.145-22.657-4.671-36.994 2.701-19.918 10.242-79.863 46.62-79.863 46.62s89.619 50.632 106.863 48.361 60.341-30.317 63.754-40.188l3.975-11.085z" class="B"/><path d="M191.807 427.329l-.49-9.6c-1.568-1.711-3.039-3.594-4.433-5.636 3.471-.229 6.811-.825 9.948-1.864 18.334-6.073 50.717-27.986 69.605-41.413.972 1.933 1.476 3.897 1.476 5.954 0 .765-.069 1.543-.21 2.337 0 0-.031.065-.12.287-.857 1.979-6.713 13.879-28.679 28.143-14.725 9.564-25.701 17.313-35.329 17.313-4.282 0-8.299-1.533-12.258-5.121l.49 9.6zm-91.214-43.15l-7.482-4.16 3.195-1.935c1.195 2.123 2.629 4.15 4.287 6.095z" class="L"/><path d="M191.317 417.729c12.865 11.656 26.313 1.624 47.587-12.192 24.078-15.635 28.799-28.431 28.799-28.431s0 9.587-1.797 14.081-5.687 9.586-23.052 21.569-29.938 17.977-41.613 20.201l-9.212-1.274-.712-13.954z" class="B"/><path d="M263.566 395.362c1.133-1.542 1.823-2.883 2.339-4.175.769-1.919 1.208-4.766 1.459-7.399-.251 2.633-.69 5.48-1.459 7.399-.516 1.292-1.206 2.633-2.339 4.175z" fill="#636769"/><path d="M242.629 412.912l.225-.156c12.371-8.537 17.904-13.576 20.713-17.394-2.809 3.818-8.342 8.857-20.713 17.394l-.225.156z" fill="#0f191d"/><path d="M201.241 432.957l-.561-.078-6.864-.948-1.787-.248-.712-13.954c3.959 3.588 7.975 5.121 12.258 5.121 9.628.002 20.604-7.749 35.329-17.313 24.078-15.635 28.799-28.431 28.799-28.431s0 3.148-.338 6.681c-.252 2.634-.691 5.481-1.459 7.4-.517 1.292-1.206 2.633-2.339 4.175-2.809 3.818-8.342 8.858-20.713 17.394l-.225.156c-3.752 2.585-7.28 4.888-10.624 6.934l-3.77 2.242-.866.497c-9.922 5.64-18.231 8.867-26.128 10.372z" fill="#0b7465"/><g class="B"><path d="M97.724 498.706l-6.596 15.217c-.041.132-.066.262-.071.394l-.013.281c.038.32.419.744.838 1.019.958.619 2.559.694 3.571.168.37-.194.611-.438.729-.698l.01-.026.054-.208 6.122-14.27-4.644-1.877zm165.99.641l5.645 14.907a1.44 1.44 0 0 1 .051.383v.27c-.051.305-.436.694-.851.939-.948.551-2.487.551-3.435 0-.347-.202-.567-.448-.668-.703l-.009-.024-.043-.204-5.233-13.975 4.543-1.593zm-85.699 54.091v12.332c0 .369.244.739.731 1.02.976.564 2.556.564 3.532 0 .487-.281.731-.651.731-1.02v-12.332c-1.664-.835-3.328-.835-4.994 0z"/></g><path d="M129.005 324.859c5.104 5.949 51.552-7.422 63.856-9.099 19.847-2.706 36.004-4.683 42.738-2.564s9.597 5.553 11.661 13.628l3.697 14.373s-32.976 12.666-58.978 15.716-62.974-32.054-62.974-32.054z" class="F"/><path d="M120.339 333.582c-5.149 19.63-9.774 42.469 2.142 54.972 8.025 8.421 48.341 30.292 74.351 21.675 25.622-8.489 78.676-47.905 84.001-51.873 5.336-3.978 10.167-6.673 9.658-8.361-7.155-23.771-17.611-25.628-37.003-21.36-23.713 5.221-75.774 26.482-75.774 26.482l-57.375-21.535z" class="E"/><path d="M238.142 207.354l-17.888 20.242-28.893-13.719 20.199-27.967 26.582 21.444z" class="J"/><path d="M260.334 168.907s7.324 10.584 6.542 11.658-5.968 2.146-5.968 2.146l-.574-13.804z" fill="#f47089"/><path d="M268.233 167.133h-.805c0 1.979-.798 3.763-2.094 5.06a7.12 7.12 0 0 1-10.113 0 7.13 7.13 0 0 1 0-10.119c1.297-1.297 3.079-2.096 5.056-2.097a7.12 7.12 0 0 1 5.057 2.097c1.296 1.297 2.094 3.081 2.094 5.059h.805.802c0-4.84-3.92-8.763-8.758-8.764s-8.757 3.924-8.757 8.764 3.921 8.764 8.757 8.765 8.758-3.923 8.758-8.765h-.802z" class="G"/><path d="M240.003 139.629c14.391 2.695 18.67 8.9 20.54 31.636 1.955 23.757-.301 31.29-3.35 34.565-2.06 2.209-13.766 2.87-19.714 1.374-7.443-1.872-24.295-7.417-32.397-19.203-9.532-13.868-12.387-32.892-2.708-40.945 13.623-11.335 31.773-8.524 37.629-7.427z" class="J"/><path d="M238.143 207.354c6.193 1.4 15.61.554 18.407-1.052-.266.072-4.698 1.219-10.417-.384-5.898-1.653-9.543-4.21-9.543-4.21l1.553 5.646z" fill="#f47089"/><g class="G"><path d="M263.21 148.933l-.042.028c-4.017 2.772-8.916 3.927-13.738 4.677.381 3.856-.833 7.67-2.031 11.353-.831 2.55-3.824 10.558-7.081 6.162-2.355-3.176-4.496-6.067-9.002-5.288-7.43 1.284-8.218 10.815-3.389 16.485s9.159 3.354 9.159 3.354.684 10.248-4.716 17.491c0 0-8.06 4.958-19.373 1.228-7.14-2.354-17.444-11.362-21.241-18.394-10.449-19.349-10.503-37.888 2.17-43.591 1.173-9.275 8.351-13.586 16.597-15.681 11.432-2.906 23.309 4.271 34.361-.466 2.327-.998 4.469-2.412 6.849-3.276 1.338-.487 2.922-.765 4.114.014 1.032.673 1.472 1.948 1.76 3.146.527 2.202.731 4.664-.435 6.605 1.669-.805 3.366-1.619 5.194-1.916s3.838-.012 5.253 1.184c1.316 1.114 1.947 2.865 2.106 4.582.452 4.845-2.518 9.528-6.515 12.303z"/><path d="M193.776 145.537l-8.685-4.858c1.34-2.401 4.372-3.259 6.771-1.916a4.98 4.98 0 0 1 1.914 6.774zm46.667 26.288l27.824-5.203-.25-1.344-27.825 5.202"/></g><path d="M298.503 219.181c-.751-1.255-2.414-1.498-3.793-1.981-2.557-.892-4.553-2.932-7.016-4.059-2.742-1.256-5.928-1.299-8.862-.599-1.012.241-1.997.563-2.962.947-1.833.729-3.588 1.676-5.289 2.683-7.05 4.176-12.35 13.616-19.282 17.947l-7.374 4.538 16.557 14.773c3.411-2.778 6.666-5.329 8.167-6.224 4.077-2.426 8.189-2.482 12.768-3.146 3.179-.461 6.265-1.401 9.338-2.339 1.082-.329 2.287-.763 2.75-1.796.59-1.307-.442-2.884-1.774-3.409-1.429-.564-3.309-.418-4.841-.665-.382-.061-.97-.029-1.616.003-1.369.068-2.998.136-3.479-.686-.37-.63.088-1.411.546-1.981 2.87-3.584 6.503-7.423 11.1-8.5 1.425-.334 2.912-.678 4.043-1.606s1.769-2.642 1.019-3.9z" class="J"/><g class="B"><path d="M199.466 202.655c-17.586-9.601-33.597-3.436-39.367 8.914-5.221 11.175-16.196 54.413-16.196 54.413 5.275 9.897 55.563-63.327 55.563-63.327z"/><path d="M196.832 206.13l2.633-3.475c-19.853-9.438-37.63 2.962-53.287 27.333-16.874 26.269-25.73 63.986-25.815 103.793 0 0 3.369 17.887 25.956 26.836 23.961 9.493 57.389 5.471 67.806-19.384 0 0 .209-24.827 7.755-37.051 4.881-7.91 16.265-25.492 24.734-38.1 7.374-10.976 13.104-35.956-2.3-45.095-4.51-2.677-6.382-3.457-12.523-6.395-14.013 4.629-36.768-2.894-34.959-8.462z"/></g><path d="M171.404 365.339a69.29 69.29 0 0 1-3.558-.093l3.558.093z" fill="#afe4db"/><path d="M197.311 208.386c-.424-.61-.628-1.219-.572-1.81l.095-.133c-.132.633.042 1.287.477 1.943z" fill="#fcdbe2"/><g fill="#afe4db"><path d="M196.739 206.576a2.2 2.2 0 0 1 .093-.446l2.634-3.475-2.574 3.564c-.024.073-.044.148-.058.224l-.095.133z"/><path d="M181.072 326.997c-5.873.001-11.439-7.122-14.648-12.075-5.257-8.109-9.772-18.24-16.308-25.359-4.721-5.142-11.578-11.479-18.208-11.479a9.65 9.65 0 0 0-4.115.903 184.14 184.14 0 0 0-1.645 6.268l-1.214 5.299-.756-.509c4.11-22.946 11.505-43.717 22-60.057 12.091-18.82 25.443-30.499 40.041-30.499 4.307 0 8.724 1.017 13.246 3.166l-2.633 3.475c-.048.148-.078.297-.093.446-.056.591.148 1.2.571 1.81 2.514 3.805 13.721 7.658 24.337 7.658 3.565 0 7.065-.434 10.144-1.452 6.141 2.937 8.013 3.718 12.523 6.394 7.145 4.24 9.743 11.888 9.739 19.965-.001 2.089-.177 4.208-.492 6.304-1.094 7.263-3.875 14.253-6.943 18.821l.003-.005c.266-.396.53-.815.789-1.246.079-.129.156-.265.233-.397l.561-.989.242-.449a44.07 44.07 0 0 0 .595-1.171l.151-.305c.251-.523.496-1.06.735-1.608l.026-.064.04-.096c.213-.496.419-1.002.62-1.518l.142-.37.539-1.484.041-.117.057-.166c.314-.927.609-1.877.876-2.844l.007-.021c.269-.969.512-1.954.727-2.952l.005-.027.017-.083c1.017-4.785 1.364-9.822.619-14.469-3.602 8.441-8.675 16.255-14.992 22.912-8.08 8.516-18.057 15.147-25.554 24.181-7.938 9.569-13.645 21.138-20.293 31.587-2.668 4.196-6.309 12.285-11.267 12.607-.155.011-.311.015-.465.015zm62.239-55.967l.01-.016.244-.367-.254.383z"/></g><path d="M231.956 288.354l11.111-16.957-6.997 10.631-1.14 1.747-2.973 4.579h-.001z" fill="#ddf3ee"/><path d="M222.419 303.313v-.001l9.537-14.958h.001l-4.101 6.366-.076.119-.184.289-2.805 4.407-.177.278-.009.018-2.186 3.482z" fill="#d1efe5"/><path d="M218.17 312.746c.981-3.16 2.198-6.115 3.71-8.564l.539-.87v.001l-.539.869c-1.512 2.449-2.729 5.404-3.71 8.564z" fill="#215054"/><path d="M243.067 271.397l.244-.368-.015.023-.229.345z" fill="#0c6a5b"/><path d="M171.404 365.339c18.069 0 35.669-7.278 42.721-24.106l.002-.135-.002.135c-7.052 16.828-24.65 24.106-42.721 24.106z" fill="#2d646a"/><path d="M243.564 270.647l3.045-4.556-.964 1.439-2.081 3.117z" fill="#0c6a5b"/><path d="M246.609 266.091l.007-.009z" fill="#069c87"/><path d="M171.404 365.339a69.29 69.29 0 0 1-3.558-.093L161.55 345.1c-9.997-30.902-22.031-44.639-36.616-54.546l1.214-5.299c.517-2.113 1.064-4.203 1.645-6.268a9.65 9.65 0 0 1 4.116-.903c6.629 0 13.487 6.337 18.207 11.479 6.537 7.12 11.051 17.25 16.308 25.359 3.21 4.953 8.776 12.076 14.648 12.075a6.63 6.63 0 0 0 .466-.015c4.957-.322 8.598-8.411 11.266-12.606 6.648-10.45 12.355-22.019 20.294-31.588 7.496-9.034 17.474-15.664 25.553-24.181 6.317-6.657 11.39-14.471 14.993-22.912.744 4.647.398 9.684-.619 14.47l-.018.082-.005.027a51.07 51.07 0 0 1-.727 2.952l-.007.021c-.267.967-.561 1.917-.876 2.845l-.057.165-.041.117c-.173.502-.354.998-.539 1.484l-.141.37c-.201.516-.408 1.022-.621 1.518l-.04.096-.026.064a46.9 46.9 0 0 1-.735 1.608l-.151.305a44.07 44.07 0 0 1-.595 1.171c-.079.152-.161.299-.242.449l-.56.989-.233.397a29.43 29.43 0 0 1-.79 1.246l-.002.005-3.054 4.571-.244.367-.011.016-.243.367-21.187 32.784c-7.546 12.225-7.755 37.052-7.755 37.052-7.053 16.828-24.652 24.106-42.721 24.106z" fill="#99dcd2"/><path d="M345.137 274.343c-1.24 1.536-2.662 2.935-4.126 4.263-6.073 5.504-13.17 8.144-21.417 13.506-6.668 4.333-16.952 10.645-25.617 16.05-9.74 6.076-21.485 11.015-27.893 12.899-8.051 2.368-12.555 2.467-17.315-10.438-2.335-6.328-4.185-12.823-6.2-19.26l-8.844-28.789s-10.705-26.416 13.246-39.685c10.423 5.968 14.394 8.386 17.663 20.878 3.908 14.954 10.246 44.475 10.246 44.475 8.472-2.927 16.734-6.554 24.756-10.545 3.04-1.512 6.776-2.56 8.944-5.267 1.474-1.837 2.67-3.874 3.809-5.931 1.02-1.841 1.757-3.844 2.882-5.604 2.085-3.265 5.098-6.011 7.872-8.675.543-.524 1.152-1.075 1.902-1.128.794-.058 1.537.489 1.933 1.179.883 1.537.062 3.046-.388 4.62l-1.545 5.382c6.117-3.625 11.304-8.386 15.28-14.333.361-.543.718-1.098 1.205-1.53s1.132-.731 1.778-.651c1.604.2 3.192 2.791 3.27 4.27.083 1.506-.253 3.049.12 4.51.357 1.395 1.301 2.538 1.737 3.898.426 1.331.767 2.917.912 4.314.336 3.239-.806 6.292-2.43 9.04-.528.896-1.129 1.743-1.78 2.552z" class="J"/><g class="B"><path d="M245.54 221.783c9.13 3.693 15.7 7.864 19.86 21.796 4.184 14.011 8.674 36.291 8.674 36.291s.086 4.676-10.993 11.212-21.444 2.892-21.444 2.892l-8.367-26.906s-14.833-35.987 12.27-45.285zm-53.511 209.9c-7.325-.368-13.059-5.751-30.479-13.014-32.162-13.41-56.285-24.14-65.474-41s-15.699-65.522-13.401-86.596c.304-2.797.848-5.095 1.575-6.986l-2.261-.332 5.859-4.991.003.015c6.009-4.912 15.789-.533 23.159 3.481 21.057 11.468 37.524 22.608 50.541 62.84 9.793 30.263 16.251 57.869 29.767 72.63l.712 13.953z"/></g><path d="M192.029 431.683c-3.069-.154-5.861-1.19-9.35-2.875l-4.332-2.19-4.103-2.099-4.071-1.999-8.623-3.851-23.42-10.11-3.931-1.835c-18.314-8.695-31.779-17.414-38.123-29.055-7.928-14.545-13.862-52.766-13.865-76.517-.001-3.777.149-7.187.464-10.079.304-2.797.848-5.095 1.575-6.986l-2.261-.332 5.859-4.991.003.015c1.901-1.553 4.18-2.178 6.639-2.178 5.317 0 11.481 2.915 16.52 5.659 21.057 11.468 37.524 22.608 50.541 62.84 9.793 30.263 16.251 57.869 29.767 72.63l.712 13.953z" fill="#06ab91"/><g class="B"><path d="M104.906 287.442c21.057 11.468 37.523 22.607 50.542 62.839s20.139 75.779 45.793 82.676c0 0-11.6 4.613-47.146-10.433-11.31-4.786-25.035-13.515-34.052-18.577-17.666-9.924-28.377-18.055-30.07-21.096-9.338-16.778-15.698-65.522-13.401-86.596s17.789-14.557 28.335-8.813zm118.351-178.438l-5.815-10.943 4.679-13.518v-8.274l-14.32 8.274v8.274l6.157 10.672a.89.89 0 0 0 .418.372l-.004.005 8.885 5.137z"/></g><path d="M223.194 108.968l-8.822-5.101.004-.006c-.167-.074-.315-.191-.418-.371l-1.654-2.866 4.488-2.595 6.145 10.65c.069.121.157.216.257.289z" fill="#14b099"/><path d="M257.456 10.494c0-2.74-1.922-6.072-4.293-7.443l-3.496-2.02c-2.371-1.37-6.216-1.37-8.586 0l-53.615 31.031c-2.371 1.371-4.294 4.703-4.294 7.443v59.031c0 2.74 1.923 6.072 4.294 7.443l3.497 2.019c2.371 1.37 6.215 1.37 8.586 0l17.243-9.97 6.145 10.65a.92.92 0 0 0 1.66-.157l6.494-18.759 22.072-12.796c2.371-1.37 4.293-4.701 4.293-7.442V10.494z" class="B"/><path d="M191.334 108.197l-.025-.012.025.012zm-.029-.014l-.342-.184-3.497-2.019c-2.371-1.371-4.294-4.703-4.294-7.443 0 2.74 1.923 6.072 4.294 7.443l3.497 2.019.342.184z" fill="#c3c5c2"/><path d="M195.228 109.02c-1.375 0-2.749-.269-3.866-.81-.01-.004-.018-.01-.028-.014l-.025-.012-.346-.185-3.497-2.019c-2.371-1.371-4.294-4.703-4.294-7.443V39.505c0-1.371.481-2.888 1.258-4.234l.015.007 5.991 3.461 6.077 3.512c-.776 1.347-1.257 2.864-1.257 4.235v59.031c0 1.943.967 3.063 2.375 3.063a3.33 3.33 0 0 0 1.185-.236c-1.068.451-2.328.676-3.588.676z" fill="#14b099"/><path d="M230.766 7.001l10.305-5.967.377-.198-.367.196-10.315 5.97zm25.347-.887c-.604-1.01-1.374-1.914-2.23-2.577.858.659 1.628 1.565 2.23 2.577z" class="H"/><path d="M196.522 42.255l-6.086-3.516-5.991-3.461c.78-1.363 1.843-2.525 3.024-3.207l43.297-25.071 10.315-5.97.367-.196c1.133-.549 2.531-.823 3.927-.823 1.555 0 3.108.341 4.29 1.022l3.505 2.025c.243.14.482.3.713.478.856.662 1.626 1.567 2.23 2.577.593.995 1.02 2.093 1.202 3.159-.326-1.188-1.146-1.849-2.225-1.849-.578 0-1.229.189-1.92.588l-53.623 31.038c-1.181.681-2.263 1.844-3.025 3.207z" class="K"/><path d="M190.436 38.739l-5.992-3.46 5.992 3.46z" fill="#6ecdbc"/><g class="H"><path d="M203.139 69.665c0-.478.074-.887.219-1.227a8.22 8.22 0 0 1 .626-1.147l11.656-18.857.189-.222.132-.096c.175-.101.321-.096.437.016s.176.304.176.574v7.273c0 .598-.113 1.103-.337 1.517l-.597.997-6.009 9.174 6.009 2.764c.175.049.373.145.597.285s.337.51.337 1.108v5.166c0 .269-.059.528-.176.774s-.262.421-.437.522l-.132.053-.189-.004-11.656-5.387c-.273-.111-.481-.253-.626-.424s-.219-.493-.219-.974v-1.885zm25.411-29.131a6.02 6.02 0 0 1 .436-1.172c.194-.397.477-.702.847-.915l3.903-2.257c.176-.1.326-.089.453.032s.189.317.189.585c0 .121-.02.267-.059.44l-9.85 42.012a5.51 5.51 0 0 1-.408 1.132c-.193.412-.485.73-.874.955l-3.818 2.206c-.173.1-.324.089-.45-.032s-.19-.318-.19-.586a1.93 1.93 0 0 1 .06-.438l9.761-41.962zm21.418 6.795c0 .481-.073.89-.218 1.226s-.356.724-.628 1.15l-11.656 18.856-.189.222-.132.099c-.176.101-.321.096-.436-.017s-.175-.304-.175-.573v-7.274c0-.598.112-1.096.334-1.495l.598-.974 5.099-7.887-5.099-1.945c-.174-.051-.374-.152-.598-.306s-.334-.533-.334-1.131v-7.273c0-.27.057-.528.175-.775s.26-.42.436-.521l.132-.055.189.003 11.656 5.389c.272.112.481.252.628.422s.218.496.218.972v1.886z"/></g><path d="M94.335 3.108L22.596 44.464c-.983.568-1.781 1.949-1.781 3.085v40.076c0 1.136.802 2.507 1.791 3.067l7.08 4.029c.989.558 2.587.55 3.57-.017l71.739-41.357c.983-.567 1.78-1.949 1.78-3.085V10.188c0-1.136-.801-2.51-1.79-3.068l-7.081-4.029c-.989-.56-2.587-.551-3.57.017z" class="G"/><path d="M106.753 9.864c-.14-.897-.871-1.218-1.76-.707L33.261 50.515c-.493.289-.938.774-1.258 1.334l-10.629-6.117c.321-.536.749-.997 1.225-1.267l71.741-41.36c.979-.568 2.574-.576 3.569-.016l7.078 4.029c.897.509 1.644 1.687 1.768 2.747z" class="E"/><path d="M104.997 9.159l-71.74 41.356c-.983.569-1.78 1.95-1.78 3.085v40.074c0 1.136.797 1.596 1.781 1.028l71.74-41.357c.982-.567 1.78-1.949 1.78-3.085V10.187c0-1.136-.798-1.596-1.78-1.028z" class="F"/><g class="O"><path d="M49.205 60.787l-.035 1.291-.011 1.683.011 1.688.035 1.268a7.89 7.89 0 0 0 .205 1.433c.107.432.275.771.504 1.014s.519.377.871.398.785-.119 1.305-.42.946-.639 1.283-1.023.61-.77.823-1.164.379-.79.494-1.186l.263-1.068c.077-.421.16-.734.252-.941s.268-.384.528-.534l3-1.733c.137-.08.255-.071.354.024s.151.249.151.461c-.016 1.21-.208 2.449-.573 3.72s-.871 2.479-1.512 3.626a17.32 17.32 0 0 1-2.257 3.156c-.863.958-1.798 1.727-2.805 2.31-1.1.636-2.082.95-2.944.942s-1.6-.27-2.211-.787-1.08-1.263-1.409-2.239-.515-2.097-.56-3.364l-.047-3.08.047-3.201c.03-1.312.213-2.648.55-4.006a18.98 18.98 0 0 1 1.409-3.867 15.83 15.83 0 0 1 2.211-3.343 11.46 11.46 0 0 1 2.955-2.466c1.007-.582 1.942-.893 2.805-.933s1.615.142 2.257.549 1.146 1.032 1.512 1.88.557 1.866.573 3.056a1.46 1.46 0 0 1-.151.634c-.1.209-.217.354-.354.434l-3 1.733c-.26.151-.435.177-.528.076s-.175-.317-.252-.647c-.061-.248-.148-.502-.263-.767s-.28-.466-.494-.614-.488-.218-.823-.213-.765.159-1.283.46-.954.663-1.305 1.09a6.24 6.24 0 0 0-.871 1.403c-.229.508-.398 1.042-.504 1.597s-.175 1.112-.205 1.672zm19.494-21.003c.978-.565 1.875-.866 2.693-.902s1.522.113 2.119.452 1.06.822 1.396 1.452a4.55 4.55 0 0 1 .528 2.06 1.48 1.48 0 0 1-.15.633c-.1.211-.211.352-.332.421l-3.001 1.735c-.215.124-.385.176-.515.156a.84.84 0 0 1-.4-.192l-.218-.225a1.11 1.11 0 0 0-.424-.269c-.183-.072-.412-.091-.688-.06s-.609.157-1.007.386a6.78 6.78 0 0 0-.836.572 4.87 4.87 0 0 0-.71.693c-.207.249-.375.529-.504.839a2.54 2.54 0 0 0-.195.995c0 .352.073.605.218.755s.389.229.733.229.797-.065 1.363-.204l2.107-.547c.84-.227 1.573-.321 2.198-.282s1.151.236 1.57.594.732.881.939 1.573.309 1.592.309 2.698a11.91 11.91 0 0 1-.526 3.517c-.351 1.144-.845 2.236-1.478 3.271a14.8 14.8 0 0 1-2.245 2.832 13.94 13.94 0 0 1-2.83 2.165c-1.038.599-1.984.935-2.841 1.006s-1.591-.063-2.21-.4-1.102-.838-1.455-1.507-.534-1.444-.55-2.329c0-.212.049-.422.15-.634s.21-.349.333-.421l3-1.733c.213-.124.381-.18.504-.168a.71.71 0 0 1 .366.16 4.39 4.39 0 0 1 .274.298 1.57 1.57 0 0 0 .494.368c.207.103.464.151.778.135s.699-.157 1.157-.422c.81-.468 1.486-.992 2.028-1.577s.812-1.228.812-1.934c0-.353-.098-.59-.297-.71s-.497-.165-.893-.137-.905.129-1.524.298l-2.187.558c-1.574.39-2.722.191-3.448-.602s-1.089-2.201-1.089-4.224c0-1.011.151-2.064.447-3.152a14.62 14.62 0 0 1 1.295-3.184 14.58 14.58 0 0 1 2.05-2.86 11.32 11.32 0 0 1 2.691-2.173zm16.585-9.583c.978-.565 1.874-.866 2.692-.902s1.524.113 2.119.452 1.062.822 1.398 1.452.511 1.316.526 2.06c0 .212-.049.422-.148.634s-.211.35-.333.421l-3.002 1.733c-.214.124-.385.176-.514.156s-.264-.081-.401-.191l-.218-.227a1.1 1.1 0 0 0-.423-.269 1.49 1.49 0 0 0-.689-.06c-.277.031-.61.157-1.007.386-.29.169-.569.358-.835.572s-.504.445-.711.693a3.34 3.34 0 0 0-.504.839c-.129.31-.194.642-.194.995s.072.605.218.755.387.23.732.23.797-.067 1.363-.205l2.108-.547c.839-.226 1.572-.321 2.199-.282s1.15.236 1.569.594.733.881.939 1.573.309 1.592.309 2.698a11.88 11.88 0 0 1-.527 3.517c-.352 1.143-.844 2.235-1.477 3.27a14.82 14.82 0 0 1-2.245 2.832 13.95 13.95 0 0 1-2.829 2.165c-1.04.599-1.985.935-2.841 1.006s-1.592-.063-2.209-.4-1.104-.838-1.455-1.507-.536-1.444-.551-2.329c0-.212.049-.422.151-.634s.209-.349.331-.421l3.001-1.733c.215-.124.383-.179.505-.168a.7.7 0 0 1 .365.16 5.07 5.07 0 0 1 .276.298c.122.141.287.265.492.369s.465.149.778.133.7-.157 1.158-.422c.809-.468 1.485-.992 2.027-1.577s.813-1.227.813-1.934c0-.352-.098-.589-.298-.709s-.497-.166-.893-.137-.905.128-1.523.297l-2.188.558c-1.573.39-2.722.191-3.448-.602s-1.088-2.201-1.088-4.224c0-1.011.149-2.064.447-3.152a14.71 14.71 0 0 1 1.295-3.184 14.46 14.46 0 0 1 2.05-2.86 11.31 11.31 0 0 1 2.69-2.173z"/></g><path d="M94.335 86.389l-71.739 41.357c-.983.568-1.781 1.949-1.781 3.085v40.076c0 1.135.802 2.508 1.791 3.066l7.08 4.03c.989.558 2.587.55 3.57-.019l71.739-41.356c.983-.567 1.78-1.949 1.78-3.085V93.468c0-1.135-.801-2.508-1.79-3.068l-7.081-4.029c-.989-.558-2.587-.55-3.57.017z" class="G"/><path d="M106.753 93.145c-.14-.898-.871-1.218-1.76-.709l-71.732 41.36c-.493.288-.938.774-1.258 1.332l-10.629-6.116c.321-.535.749-.996 1.225-1.267l71.741-41.359c.979-.568 2.574-.576 3.569-.016l7.078 4.027c.897.51 1.644 1.687 1.768 2.748z" class="E"/><path d="M104.997 92.439l-71.74 41.357c-.983.568-1.78 1.949-1.78 3.086v40.072c0 1.137.797 1.598 1.781 1.029l71.74-41.356c.982-.567 1.78-1.949 1.78-3.085V93.468c0-1.135-.798-1.596-1.78-1.028z" class="F"/><g class="O"><path d="M49.549 134.482c.168-.097.314-.086.434.031s.184.306.184.565v22.8c0 .259-.061.516-.184.776s-.267.437-.434.534l-3.002 1.733c-.167.097-.313.088-.434-.03s-.185-.305-.185-.564v-8.649l-5.084 2.939v8.648a1.79 1.79 0 0 1-.185.776c-.121.259-.266.436-.434.533l-3 1.733c-.169.099-.313.094-.435-.012s-.184-.299-.184-.582v-22.799a1.8 1.8 0 0 1 .184-.778c.123-.26.266-.436.435-.534l3-1.734c.168-.097.314-.085.434.032s.185.307.185.565v8.506l5.084-2.939v-8.506c0-.258.061-.517.185-.776s.266-.437.434-.535l3.002-1.733zm16.744-9.674c.167-.099.313-.087.435.029s.184.308.184.566v3.741a1.81 1.81 0 0 1-.184.777c-.122.26-.268.437-.435.534l-4.032 2.329v18.106a1.81 1.81 0 0 1-.183.776c-.122.259-.267.436-.435.533l-3 1.733c-.169.098-.315.088-.437-.03s-.184-.305-.184-.564v-18.106l-4.031 2.33c-.168.096-.313.087-.434-.032s-.183-.306-.183-.565v-3.74a1.8 1.8 0 0 1 .183-.777c.123-.26.266-.437.434-.534l12.301-7.106zm10.526 12.395c-.13-.125-.232-.26-.309-.405l-2.153-4.579v11.683c0 .259-.061.517-.183.776s-.268.437-.436.534l-3.001 1.733c-.169.097-.313.088-.435-.03s-.183-.306-.183-.564v-22.799a1.81 1.81 0 0 1 .183-.778c.122-.258.266-.437.435-.535l2.657-1.534c.305-.178.534-.179.687-.008a2.15 2.15 0 0 1 .299.393l3.71 7.631 3.712-11.92c.044-.145.145-.39.296-.736s.382-.611.69-.788l2.656-1.534c.168-.098.314-.086.436.03s.183.308.183.566v22.8a1.8 1.8 0 0 1-.183.776c-.122.259-.268.436-.436.533l-3.001 1.735c-.168.097-.313.086-.435-.031s-.184-.306-.184-.565v-11.682l-2.153 7.066a6.59 6.59 0 0 1-.309.762c-.13.276-.309.479-.538.61l-1.465.848c-.23.132-.41.137-.54.012zm24.82-13.759c.168-.098.314-.086.434.032s.185.305.185.565v3.74c0 .259-.061.517-.185.777s-.266.436-.434.533l-10.606 6.128c-.169.097-.313.088-.435-.031s-.184-.305-.184-.563v-22.801c0-.258.061-.517.184-.776s.266-.437.435-.535l3.001-1.733c.168-.097.314-.086.434.031s.185.306.185.565v18.104l6.986-4.036z"/></g><path d="M94.335 169.67l-71.739 41.357c-.983.567-1.781 1.949-1.781 3.084v40.077c0 1.135.802 2.507 1.791 3.065l7.08 4.029c.989.558 2.587.55 3.57-.018l71.739-41.355c.983-.569 1.78-1.951 1.78-3.086v-40.074c0-1.135-.801-2.51-1.79-3.068l-7.081-4.028c-.989-.559-2.587-.552-3.57.017z" class="G"/><path d="M106.753 176.425c-.14-.896-.871-1.217-1.76-.707l-71.732 41.36c-.493.287-.938.772-1.258 1.332l-10.629-6.118c.321-.535.749-.995 1.225-1.267l71.741-41.358c.979-.567 2.574-.577 3.569-.017l7.078 4.028c.897.511 1.644 1.687 1.768 2.747z" class="E"/><path d="M104.997 175.721l-71.74 41.357c-.983.567-1.78 1.949-1.78 3.085v40.073c0 1.136.797 1.596 1.781 1.028l71.74-41.355c.982-.569 1.78-1.951 1.78-3.086v-40.074c0-1.136-.798-1.596-1.78-1.028z" class="F"/><g class="O"><path d="M50.602 226.542l-.034 1.291-.011 1.684.011 1.687.034 1.267a8.01 8.01 0 0 0 .206 1.435c.107.432.275.77.505 1.014a1.25 1.25 0 0 0 .87.397c.351.021.787-.119 1.307-.418s.945-.641 1.282-1.023.611-.772.824-1.165a5.98 5.98 0 0 0 .494-1.185l.263-1.07c.077-.42.16-.734.252-.941s.267-.383.527-.533l3.001-1.734c.138-.079.256-.071.355.024s.15.25.15.462c-.016 1.208-.206 2.449-.572 3.718a17.11 17.11 0 0 1-1.513 3.626c-.642 1.147-1.394 2.201-2.256 3.157s-1.798 1.727-2.805 2.31c-1.1.635-2.082.949-2.945.941s-1.599-.269-2.21-.787-1.08-1.263-1.409-2.239-.515-2.096-.56-3.364l-.046-3.079.046-3.203c.03-1.312.214-2.647.549-4.005a18.88 18.88 0 0 1 1.411-3.868 15.77 15.77 0 0 1 2.21-3.341c.87-1.01 1.855-1.83 2.955-2.466 1.007-.582 1.942-.894 2.805-.934s1.615.144 2.256.55 1.145 1.031 1.513 1.879.556 1.866.572 3.057a1.47 1.47 0 0 1-.15.634c-.099.211-.217.355-.355.433l-3.001 1.735c-.26.149-.435.176-.527.074s-.175-.315-.252-.647a4.87 4.87 0 0 0-.263-.766 1.42 1.42 0 0 0-.494-.616c-.215-.148-.489-.217-.824-.211s-.763.158-1.282.458-.956.663-1.307 1.09a6.22 6.22 0 0 0-.87 1.404 7.11 7.11 0 0 0-.505 1.597 12.46 12.46 0 0 0-.206 1.671zm21.028-4.703v5.824c0 .26-.061.517-.182.776s-.267.438-.435.534l-2.888 1.668c-.167.097-.313.088-.434-.031s-.184-.305-.184-.563v-5.826l-3.552 2.052c-.168.097-.312.088-.434-.031s-.184-.305-.184-.563v-3.565c0-.259.061-.519.184-.777s.266-.437.434-.534l3.552-2.052v-5.823c0-.257.06-.517.184-.777s.266-.435.434-.533l2.888-1.668c.168-.097.312-.086.435.031s.182.307.182.565v5.823l3.528-2.038c.168-.097.314-.087.436.032s.184.305.184.563v3.565c0 .26-.061.518-.184.777s-.268.436-.436.533l-3.528 2.038zm15.189-8.775v5.826a1.82 1.82 0 0 1-.182.775c-.121.26-.269.437-.437.533l-2.886 1.668c-.168.097-.313.088-.434-.031s-.184-.305-.184-.563v-5.825l-3.55 2.052c-.168.096-.314.086-.434-.032s-.184-.305-.184-.564v-3.565a1.78 1.78 0 0 1 .184-.776c.121-.259.266-.437.434-.535l3.55-2.051v-5.823c0-.257.061-.517.184-.777s.266-.436.434-.533l2.886-1.668c.168-.097.313-.086.437.031s.182.308.182.565v5.823l3.528-2.038c.168-.098.314-.087.434.032s.183.305.183.563v3.565a1.78 1.78 0 0 1-.183.777c-.121.258-.266.435-.434.533l-3.528 2.038z"/></g></g><defs><clipPath id="A"><path d="M0 0h597v615H0z" class="H"/></clipPath><path id="B" d="M367.665 50.991l2.5 1.447c.51.294.923.981.923 1.533s-.413.762-.923.468l-2.5-1.447c-.51-.294-.922-.982-.922-1.535s.412-.761.922-.466z"/><path id="C" d="M370.997 47.789l15.268 8.822c.509.294.923.982.923 1.533s-.414.762-.923.468l-15.268-8.822c-.51-.294-.922-.98-.922-1.533s.412-.762.922-.468z"/></defs></svg>