<svg xmlns="http://www.w3.org/2000/svg" width="60" height="60" fill="#0a7f2e" xmlns:v="https://vecta.io/nano"><path d="M25.161 22.258a.97.97 0 0 0 .968-.968.97.97 0 0 0-.968-.968.97.97 0 0 0-.968.968.97.97 0 0 0 .968.968zm9.678 0a.97.97 0 0 0 .968-.968.97.97 0 0 0-.968-.968.97.97 0 0 0-.968.968.97.97 0 0 0 .968.968zm-2.903 3.871A1.94 1.94 0 0 1 30 28.065a1.94 1.94 0 0 1-1.936-1.935h-1.935c0 2.134 1.736 3.87 3.871 3.87s3.871-1.736 3.871-3.871h-1.936z"/><path d="M46.262 37.594l-9.488-2.532v-2.664c1.656-1.369 2.882-3.233 3.473-5.359 2.397-.285 4.269-2.308 4.269-4.781v-7.742C44.516 6.512 38.004 0 30 0S15.484 6.512 15.484 14.516v7.742c0 2.473 1.872 4.495 4.269 4.781.591 2.126 1.817 3.99 3.473 5.359v2.664l-9.488 2.531c-2.96.79-5.028 3.481-5.028 6.545V60H51.29V44.138a6.78 6.78 0 0 0-5.028-6.544zm-5.657-12.598c.02-.266.041-.531.041-.802v-4.661c1.124.401 1.935 1.465 1.935 2.725 0 1.274-.831 2.349-1.976 2.738zm-23.185-2.738a2.9 2.9 0 0 1 1.936-2.725v4.661c0 .271.02.536.041.802-1.145-.389-1.976-1.463-1.976-2.738zm1.936-9.677v4.936c-.719.147-1.37.466-1.935.894v-3.895C17.419 7.579 23.063 1.935 30 1.935a12.6 12.6 0 0 1 12.581 12.581v3.896a4.79 4.79 0 0 0-1.935-.894v-4.937H38.71v3.835a14.95 14.95 0 0 1-7.36-2.486l-3.863-2.575 1.266 5.063c-2.799-.206-5.406-1.361-7.461-3.294v-.543h-1.936zm1.935 11.613v-8.562a14.06 14.06 0 0 0 8.378 2.756h1.573l-.664-2.651a16.87 16.87 0 0 0 8.133 2.616v5.841c0 4.802-3.907 8.71-8.71 8.71s-8.71-3.908-8.71-8.71zm14.751 12.678l.733.195v6.671l-5.127-3.204 4.395-3.662zM30 39.385l-4.839-4.033v-1.69c1.453.746 3.096 1.176 4.839 1.176s3.385-.43 4.839-1.175v1.689L30 39.385zm-6.774-2.319l.733-.195 4.395 3.662-5.127 3.204v-6.671zm-12.581 7.071c0-2.043 1.296-3.839 3.188-4.53 1.534 3.738 2.402 7.658 2.579 11.683h-5.767v-7.153zm5.807 13.927h-5.806v-4.839h5.807v4.839zm8.858 0h-6.922v-5.21a36.65 36.65 0 0 0-2.684-13.782l5.588-1.49v9.648l4.265-2.666 1.503 3.007-1.749 10.493zm1.962 0l1.613-9.677h2.232l1.613 9.677h-5.458zm4.066-11.613h-2.675l-1.458-2.918L30 41.786l2.796 1.748-1.458 2.918zm10.276 11.613h-6.922l-1.749-10.493 1.503-3.007 4.265 2.666v-9.648l5.588 1.49a36.63 36.63 0 0 0-2.684 13.782v5.21zm7.742 0h-5.806v-4.839h5.806v4.839zm0-6.774h-5.768c.178-4.025 1.046-7.944 2.579-11.683 1.893.691 3.189 2.487 3.189 4.53v7.153z"/></svg>