<svg xmlns="http://www.w3.org/2000/svg" width="20" height="20" fill="none" xmlns:v="https://vecta.io/nano"><path d="M19.94 5.877c-.049-1.064-.218-1.791-.465-2.427a4.9 4.9 0 0 0-1.153-1.771A4.9 4.9 0 0 0 16.55.525C15.914.278 15.187.109 14.123.06L10 0 5.877.06C4.813.109 4.086.278 3.45.525a4.9 4.9 0 0 0-1.771 1.153A4.9 4.9 0 0 0 .525 3.45C.278 4.086.109 4.813.06 5.877L0 10l.06 4.123c.049 1.064.218 1.791.465 2.427a4.9 4.9 0 0 0 1.153 1.771 4.9 4.9 0 0 0 1.771 1.153c.636.247 1.363.416 2.427.465L10 20l4.123-.06c1.064-.049 1.791-.218 2.427-.465a5.11 5.11 0 0 0 2.925-2.924c.247-.636.416-1.363.465-2.427L20 10l-.06-4.123zm-1.8 8.164c-.044.975-.207 1.505-.344 1.857a3.31 3.31 0 0 1-1.898 1.898c-.352.137-.882.3-1.857.344L10 18.198c-2.67 0-2.987-.01-4.041-.058-.975-.044-1.504-.207-1.857-.344a3.1 3.1 0 0 1-1.15-.748 3.1 3.1 0 0 1-.748-1.15c-.137-.352-.3-.882-.344-1.857L1.802 10l.058-4.041c.045-.975.207-1.505.344-1.857a3.1 3.1 0 0 1 .748-1.15c.323-.332.715-.588 1.15-.748.352-.137.882-.3 1.857-.344L10 1.802h0l4.041.058c.975.044 1.504.207 1.857.344a3.1 3.1 0 0 1 1.15.748c.332.323.588.715.748 1.15.137.352.3.882.344 1.857L18.198 10l-.058 4.041z" fill="url(#A)"/><path d="M10 4.865c-2.836 0-5.135 2.299-5.135 5.135S7.164 15.135 10 15.135s5.135-2.299 5.135-5.135S12.836 4.865 10 4.865zm0 8.468c-1.841 0-3.333-1.492-3.333-3.333S8.159 6.667 10 6.667 13.333 8.159 13.333 10 11.841 13.333 10 13.333z" fill="url(#B)"/><path d="M16.538 4.662a1.2 1.2 0 1 1-2.4 0 1.2 1.2 0 1 1 2.4 0z" fill="url(#C)"/><defs><linearGradient id="A" x1="1.678" y1="18.322" x2="18.322" y2="1.678" gradientUnits="userSpaceOnUse"><stop stop-color="#ffd600"/><stop offset=".5" stop-color="#ff0100"/><stop offset="1" stop-color="#d800b9"/></linearGradient><linearGradient id="B" x1="6.369" y1="13.631" x2="13.631" y2="6.369" gradientUnits="userSpaceOnUse"><stop stop-color="#ff6400"/><stop offset=".5" stop-color="#ff0100"/><stop offset="1" stop-color="#fd0056"/></linearGradient><linearGradient id="C" x1="14.489" y1="5.51" x2="16.186" y2="3.813" gradientUnits="userSpaceOnUse"><stop stop-color="#f30072"/><stop offset="1" stop-color="#e50097"/></linearGradient></defs></svg>