<svg xmlns="http://www.w3.org/2000/svg" width="60" height="60" fill="none" xmlns:v="https://vecta.io/nano"><path d="M42.347 37.48a4.57 4.57 0 0 0-3.255-1.348 4.57 4.57 0 0 0-3.255 1.348l-3.328 3.328a7.55 7.55 0 0 0-7.539-7.501 7.55 7.55 0 0 0-7.539 7.5l-3.328-3.328c-.869-.869-2.025-1.348-3.255-1.348a4.57 4.57 0 0 0-3.254 1.348 4.61 4.61 0 0 0 0 6.509l9.635 9.635v4.911c0 .809.656 1.465 1.465 1.465h12.552c.809 0 1.465-.656 1.465-1.465v-4.911l9.635-9.635a4.61 4.61 0 0 0 0-6.509zm-17.376-1.243c2.542 0 4.61 2.068 4.61 4.61s-2.068 4.61-4.61 4.61-4.61-2.068-4.61-4.61 2.068-4.61 4.61-4.61zm15.304 5.681L30.212 51.982c-.275.275-.429.647-.429 1.036v4.052h-9.622v-4.052c0-.389-.154-.761-.429-1.036L9.667 41.918c-.652-.652-.652-1.714 0-2.366a1.66 1.66 0 0 1 1.183-.49 1.66 1.66 0 0 1 1.183.49l8.406 8.407c.275.275.647.429 1.036.429h6.992c.389 0 .761-.154 1.036-.429l8.406-8.407a1.66 1.66 0 0 1 1.183-.49 1.66 1.66 0 0 1 1.183.49c.652.652.652 1.714 0 2.366zm-21.78-18.037l-1.028 5.99c-.094.55.132 1.105.582 1.433a1.47 1.47 0 0 0 .861.28c.233 0 .467-.056.682-.169l5.379-2.828 5.379 2.828a1.46 1.46 0 0 0 .681.169c.812-.002 1.467-.657 1.467-1.465a1.48 1.48 0 0 0-.037-.328l-1.014-5.91 4.352-4.242c.399-.389.543-.971.371-1.502s-.631-.917-1.182-.997l-6.014-.874-2.69-5.45c-.247-.5-.756-.816-1.313-.816a1.47 1.47 0 0 0-1.314.816l-2.689 5.45-6.014.874a1.46 1.46 0 0 0-1.182.997c-.172.531-.029 1.113.371 1.502l4.352 4.242zm3.657-4.826a1.47 1.47 0 0 0 1.103-.801l1.717-3.479 1.717 3.479c.213.432.626.732 1.103.801l3.839.558-2.778 2.708c-.345.337-.503.821-.421 1.297l.656 3.823-3.433-1.805a1.46 1.46 0 0 0-1.363 0l-3.434 1.805.656-3.823c.082-.475-.076-.96-.421-1.297l-2.778-2.708 3.839-.558z" fill="#666"/><rect x="40" width="20" height="20" rx="10" fill="#0a7f2e" fill-opacity=".5"/></svg>