<svg xmlns="http://www.w3.org/2000/svg" xmlns:xlink="http://www.w3.org/1999/xlink" width="60" height="60" fill="none" xmlns:v="https://vecta.io/nano"><g clip-path="url(#A)" fill="#0a7f2e"><path d="M22.258 17.419h-1.312c1.978-1.598 3.248-4.039 3.248-6.774V7.504C24.194 3.367 20.827 0 16.69 0h-2.412c-4.137 0-7.504 3.367-7.504 7.504v3.141c0 2.735 1.27 5.176 3.248 6.774H8.71c-4.803 0-8.71 3.908-8.71 8.71v9.677c0 3.202 2.604 5.806 5.806 5.806V60h19.355V41.613c3.202 0 5.806-2.604 5.806-5.806V26.13a8.72 8.72 0 0 0-8.71-8.71zM8.71 7.504c0-3.07 2.498-5.568 5.568-5.568h2.412c3.071 0 5.568 2.499 5.568 5.568v.374a7.39 7.39 0 0 1-1.396-1.555 3.32 3.32 0 0 0-2.772-1.484h-5.213c-1.117 0-2.153.555-2.805 1.534-.378.568-.843 1.071-1.363 1.508v-.376zm0 3.141v-.415c1.184-.698 2.214-1.645 3.007-2.835.259-.388.693-.62 1.161-.62h5.213c.467 0 .902.232 1.194.672a9.13 9.13 0 0 0 2.973 2.784v.415c0 3.735-3.04 6.774-6.774 6.774S8.71 14.381 8.71 10.645zm10.407 8.71c-.534 1.124-1.953 1.935-3.633 1.935s-3.099-.812-3.633-1.935h7.266zM5.806 39.677c-2.135 0-3.871-1.736-3.871-3.871v-7.742h3.871v11.613zm8.71 18.387H7.742v-1.935h6.774v1.935zm8.71 0h-6.774v-1.935h6.774v1.935zm0-3.871h-6.774V43.548h-1.935v10.645H7.742v-9.775a4.85 4.85 0 0 0 3.871-4.741h7.742a4.85 4.85 0 0 0 3.871 4.741v9.775zm0-23.226v6.774H7.742v-6.774h15.484zM7.742 29.032v-1.935h15.484v1.935H7.742zm15.484 10.645v2.725c-1.124-.401-1.935-1.465-1.935-2.725h1.935zm-13.548 0a2.9 2.9 0 0 1-1.935 2.725v-2.725h1.935zm19.355-3.871c0 2.135-1.736 3.871-3.871 3.871V28.064h3.871v7.742zm-3.871-9.677v-1.935h-1.935v.968H7.742v-.968H5.807v1.935H1.935c0-3.735 3.04-6.774 6.774-6.774h1.085c.54 2.205 2.885 3.871 5.689 3.871s5.149-1.665 5.689-3.871h1.085c3.735 0 6.774 3.039 6.774 6.774H25.16zm10.645 2.903h5.806v1.935H38.71v1.935h2.903 9.677 2.903v-1.935H51.29v-1.935h5.806A2.91 2.91 0 0 0 60 26.129V12.581a2.91 2.91 0 0 0-2.903-2.903h-21.29a2.91 2.91 0 0 0-2.903 2.903v13.548a2.91 2.91 0 0 0 2.903 2.903zm13.548 1.936h-5.806v-1.935h5.806v1.935zM34.839 12.581a.97.97 0 0 1 .968-.968h21.29a.97.97 0 0 1 .968.968v10.645H34.839V12.581zm0 12.581h23.226v.968a.97.97 0 0 1-.968.968h-5.806-9.677-5.806a.97.97 0 0 1-.968-.968v-.968zm-1.935 9.677v11.613H60V34.839H32.904zm25.161 9.678H34.839v-7.742h23.226v7.742z"/><use xlink:href="#B"/><path d="M41.613 37.742h-1.935v1.935h1.935v-1.935zm3.871 0h-1.935v1.935h1.935v-1.935zm3.871 0H47.42v1.935h1.935v-1.935zm3.871 0H51.29v1.935h1.935v-1.935zm3.871 0h-1.935v1.935h1.935v-1.935zm-19.355 3.871h-1.935v1.935h1.935v-1.935zm15.484 0H39.678v1.935h13.548v-1.935zm3.871 0h-1.935v1.935h1.935v-1.935zM42.864 13.832l-3.587 3.587 3.587 3.587 1.368-1.368-2.219-2.219 2.219-2.219-1.368-1.368zm5.807 1.368l2.219 2.219-2.219 2.219 1.368 1.368 3.587-3.587-3.587-3.587-1.368 1.368z"/></g><defs><clipPath id="A"><path fill="#fff" d="M0 0h60v60H0z"/></clipPath><path id="B" d="M37.742 37.742h-1.935v1.935h1.935v-1.935z"/></defs></svg>