<svg xmlns="http://www.w3.org/2000/svg" width="20" height="20" fill="none" xmlns:v="https://vecta.io/nano"><g clip-path="url(#A)"><path d="M18.353 2.588H1.647A1.65 1.65 0 0 0 0 4.235v11.529a1.65 1.65 0 0 0 1.647 1.647h16.706A1.65 1.65 0 0 0 20 15.765V4.235a1.65 1.65 0 0 0-1.647-1.647zm.235 13.176c0 .128-.108.235-.235.235H1.647c-.128 0-.235-.108-.235-.235V6.71l8.113 4.77c.218.128.489.13.709.004l8.355-4.787v9.068zm0-10.695l-8.701 4.985-8.475-4.983v-.836c0-.128.108-.235.235-.235h16.706c.127 0 .235.108.235.235v.834z" fill="#000"/></g><defs><clipPath id="A"><path fill="#fff" d="M0 0h20v20H0z"/></clipPath></defs></svg>