<svg xmlns="http://www.w3.org/2000/svg" width="20" height="20" fill="none" xmlns:v="https://vecta.io/nano"><g clip-path="url(#A)" fill="#0a7f2e"><path d="M17.917 15h-2.5c-.23 0-.417-.187-.417-.417s.187-.417.417-.417h2.5a1.25 1.25 0 0 0 1.25-1.25V7.083a1.25 1.25 0 0 0-1.25-1.25H2.083a1.25 1.25 0 0 0-1.25 1.25v5.833a1.25 1.25 0 0 0 1.25 1.25h2.5c.23 0 .417.187.417.417S4.813 15 4.583 15h-2.5C.934 15 0 14.065 0 12.917V7.083C0 5.935.934 5 2.083 5h15.833C19.066 5 20 5.935 20 7.083v5.833C20 14.065 19.066 15 17.917 15zm-5.834 2.5h-5c-.23 0-.417-.187-.417-.417s.187-.417.417-.417h5c.23 0 .417.187.417.417s-.187.417-.417.417zm0-1.667h-5c-.23 0-.417-.187-.417-.417S6.853 15 7.083 15h5c.23 0 .417.187.417.417s-.187.417-.417.417zm-3.334-1.666H7.083c-.23 0-.417-.187-.417-.417s.187-.417.417-.417H8.75c.23 0 .417.187.417.417s-.187.417-.417.417z"/><path d="M15.416 5.833c-.23 0-.417-.187-.417-.417V2.083a1.25 1.25 0 0 0-1.25-1.25h-7.5a1.25 1.25 0 0 0-1.25 1.25v3.333c0 .23-.187.417-.417.417s-.417-.187-.417-.417V2.083A2.09 2.09 0 0 1 6.249 0h7.5c1.149 0 2.083.935 2.083 2.083v3.333c0 .23-.187.417-.417.417zM13.749 20h-7.5c-1.149 0-2.083-.935-2.083-2.083V11.25c0-.23.187-.417.417-.417h10.833c.23 0 .417.187.417.417v6.667c0 1.148-.934 2.083-2.083 2.083zm-8.75-8.333v6.25a1.25 1.25 0 0 0 1.25 1.25h7.5a1.25 1.25 0 0 0 1.25-1.25v-6.25h-10z"/></g><defs><clipPath id="A"><path fill="#fff" d="M0 0h20v20H0z"/></clipPath></defs></svg>