<svg xmlns="http://www.w3.org/2000/svg" width="60" height="60" fill="#0a7f2e" xmlns:v="https://vecta.io/nano"><path d="M24.194 17.419c-10.139 0-18.387 8.248-18.387 18.387s8.248 18.387 18.387 18.387 18.387-8.248 18.387-18.387-8.248-18.387-18.387-18.387zm0 34.839c-9.072 0-16.452-7.38-16.452-16.452s7.38-16.452 16.452-16.452 16.452 7.38 16.452 16.452-7.38 16.452-16.452 16.452zm-8.983-5.046c.55.433 1.129.826 1.725 1.17l.967-1.676a12.41 12.41 0 0 1-1.492-1.014l-1.199 1.52zm17.878-2.51c-3.754 3.753-9.495 4.746-14.287 2.476l-.83 1.749a14.46 14.46 0 0 0 6.202 1.394c3.775 0 7.503-1.469 10.283-4.249.302-.302.586-.613.856-.933l-1.482-1.246c-.233.279-.481.549-.742.809zM19.355 38.71c0-2.135-1.736-3.871-3.871-3.871a1.94 1.94 0 0 1-1.935-1.936 1.94 1.94 0 0 1 1.935-1.935 1.94 1.94 0 0 1 1.935 1.935h1.935c0-2.135-1.736-3.871-3.871-3.871s-3.871 1.736-3.871 3.871 1.736 3.871 3.871 3.871a1.94 1.94 0 0 1 1.935 1.935 1.94 1.94 0 0 1-1.935 1.935 1.94 1.94 0 0 1-1.935-1.935h-1.936c0 2.135 1.736 3.871 3.871 3.871s3.871-1.736 3.871-3.871zm7.742 1.935h-3.871v-3.871h3.871v-1.935h-3.871v-3.871h3.871v-1.936H21.29V42.58h5.806v-1.935zm5.806-11.613c-2.135 0-3.871 1.736-3.871 3.871v5.806c0 2.135 1.736 3.871 3.871 3.871s3.871-1.736 3.871-3.871v-5.806c0-2.135-1.736-3.871-3.871-3.871zm1.936 9.677a1.94 1.94 0 0 1-1.936 1.935 1.94 1.94 0 0 1-1.935-1.935v-5.806a1.94 1.94 0 0 1 1.935-1.935 1.94 1.94 0 0 1 1.936 1.935v5.806zm19.169-26.076a9.66 9.66 0 0 0-9.492-7.794 9.68 9.68 0 0 0-3.804.787C39.175 2.31 35.824 0 31.936 0a9.69 9.69 0 0 0-9.677 9.677 9.76 9.76 0 0 0 .202 1.935h-1.85l-.857 2.385a21.97 21.97 0 0 0-7.839 3.247l-2.294-1.08-5.068 5.067 1.081 2.295c-1.589 2.395-2.68 5.025-3.248 7.838L0 32.223v7.167l2.385.858c.568 2.812 1.659 5.443 3.248 7.838l-1.081 2.295 5.068 5.067 2.294-1.08a21.94 21.94 0 0 0 7.839 3.247L20.61 60h7.167l.857-2.385a21.97 21.97 0 0 0 7.839-3.247l2.294 1.08 5.068-5.067-1.081-2.295c1.589-2.395 2.68-5.025 3.248-7.838l2.385-.858v-7.167l-2.385-.858c-.37-1.83-.983-3.574-1.79-5.236h9.014c3.735 0 6.774-3.04 6.774-6.774 0-3.456-2.601-6.315-5.992-6.722zm-7.556 20.951v4.446l-2.154.774-.098.552a20.06 20.06 0 0 1-3.35 8.086l-.322.46.976 2.072-3.144 3.143-2.068-.976-.46.321a20.06 20.06 0 0 1-8.086 3.351l-.552.098-.776 2.152h-4.445l-.774-2.153-.552-.098a20.06 20.06 0 0 1-8.086-3.351l-.461-.32-2.071.976-3.143-3.143.976-2.072-.322-.46a20.05 20.05 0 0 1-3.35-8.086l-.098-.552-2.152-.774v-4.446l2.154-.775.098-.552a20.06 20.06 0 0 1 3.35-8.086l.322-.46-.978-2.072 3.144-3.143 2.071.976.46-.321a20.06 20.06 0 0 1 8.086-3.351l.552-.098.774-2.153h4.445l.774 2.153.552.098a20.05 20.05 0 0 1 8.086 3.351l.461.321 2.071-.976 3.144 3.143-.976 2.072.322.46a20.05 20.05 0 0 1 3.35 8.086l.098.552 2.151.775zm6.774-9.39H43.152c-.135-.221-.253-.449-.397-.666l1.081-2.295-5.068-5.067-2.294 1.08c-2.394-1.589-5.025-2.68-7.839-3.247l-.857-2.386h-3.34c-.162-.629-.244-1.277-.244-1.935 0-4.269 3.473-7.742 7.742-7.742s7.742 3.473 7.742 7.742h1.936c0-.763-.098-1.501-.265-2.213.991-.445 2.07-.69 3.168-.69a7.73 7.73 0 0 1 7.692 6.882l.151.86h.867c2.668 0 4.839 2.171 4.839 4.839s-2.171 4.839-4.839 4.839zM26.129 9.677h1.935c0-2.135 1.736-3.871 3.871-3.871V3.871c-3.202 0-5.806 2.604-5.806 5.806zm18.387-.967v1.935c2.135 0 3.871 1.736 3.871 3.871h1.936c0-3.202-2.604-5.806-5.806-5.806z"/></svg>