<svg xmlns="http://www.w3.org/2000/svg" width="67" height="67" fill="none" xmlns:v="https://vecta.io/nano"><g clip-path="url(#A)" fill="#0a7f2e"><path d="M48.83 2.633L10.169.047c-1.26-.083-2.353.872-2.438 2.132l-.302 4.522H2.29C1.027 6.702 0 7.729 0 8.992v55.676c0 1.263 1.027 2.29 2.29 2.29h29.593a.99.99 0 0 0 .693-.286l4.467-4.447a.98.98 0 0 0 .139.02l7.627.51a2.35 2.35 0 0 0 2.438-2.132l3.715-55.552a2.31 2.31 0 0 0-2.132-2.438zM32.864 63.601v-6.818c0-.18.147-.327.327-.327h6.792l-7.119 7.145zm12.424-3.109c-.032.198-.148.299-.348.305l-6.056-.405 4.155-4.137a.98.98 0 0 0 .289-.696V8.992c0-1.263-1.027-2.29-2.29-2.29H30.832c-1.269 0-1.269 1.963 0 1.963h10.206c.181 0 .327.147.327.327v45.501h-8.174c-1.263 0-2.29 1.027-2.29 2.29v8.212H2.29c-.18 0-.327-.147-.327-.327V8.992c0-.18.147-.327.327-.327h23.315c1.269 0 1.269-1.963 0-1.963H9.396l.294-4.391c.032-.198.148-.299.348-.305l38.661 2.586c.198.032.299.148.305.348l-3.716 55.552zM35.048 31.02H8.28a.981.981 0 0 0 0 1.963h26.768a.982.982 0 0 0 0-1.963zm0 6.842H8.28a.982.982 0 0 0 0 1.963h26.768a.982.982 0 0 0 0-1.963zM7.299 25.159a.98.98 0 0 0 .981.981h26.768a.982.982 0 1 0 0-1.963H8.28a.98.98 0 0 0-.981.981zm4.715-6.842a.98.98 0 0 0 .981.981h17.337a.982.982 0 0 0 0-1.963H12.995a.98.98 0 0 0-.981.982zM25.486 57.42l-5.295.011-1.78.002c-1.075.001-1.799-.215-2.04-1.397-.204-1-1.618-.865-1.893 0-.679 2.138-1.802 1.3-2.432-.138s-.789-3.04-1.063-4.567c-.202-1.122-1.898-.807-1.928.261-.039 1.407-.17 2.791-.527 4.156-.368 1.408-.92 2.761-1.469 4.106-.478 1.173 1.422 1.677 1.893.522l1.334-3.627c.673 1.617 2.064 3.447 4.047 2.369a3.98 3.98 0 0 0 1.016-.818c1.031 1.192 2.566 1.098 4.002 1.096l6.135-.012c1.263-.003 1.265-1.966 0-1.963zm40.72-25.171c-.51-.508-1.211-.768-1.923-.787l-.742.004v-1.403a2.72 2.72 0 0 0-1.234-2.207V25.88c0-4.066-6.33-4.048-6.33.019v1.976c-.741.458-1.237 1.275-1.237 2.205v1.437c-3.267.223-3.276 5.201.004 5.396l-.004 13.182c-.006 1.232 1.956 1.304 1.963.01l.004-13.194 4.869-.024-.006 21.04c0 3.185-4.87 3.206-4.87-.033l.002-1.79c.077-1.267-1.883-1.385-1.959-.118v1.679c0 1.439.445 2.659 1.307 3.516a8.21 8.21 0 0 0 2.404 5.49c.419.416 1 .289 1.406-.024a8.09 8.09 0 0 0 2.377-5.55c.648-.645 1.297-1.295 1.297-3.52v-8.944c1.697.483 3.467-.831 3.467-2.61V34.16a2.68 2.68 0 0 0-.794-1.911zm-9.503-.749v-1.419a.63.63 0 0 1 .468-.606l3.929-.02a.62.62 0 0 1 .293.161c.12.119.186.278.186.447v1.412l-4.876.024zm2.443-6.805c.603 0 1.198.591 1.198 1.186v1.592l-2.404.012V25.9a1.21 1.21 0 0 1 1.206-1.205zm-.002 39.768a6.26 6.26 0 0 1-.97-2.147c.304.066.612.1.919.1a4.36 4.36 0 0 0 1.026-.125 6.12 6.12 0 0 1-.975 2.172zm5.893-18.438c0 .929-1.499 1.002-1.499.017l.003-10.139a.99.99 0 0 0-.989-.983l-7.641.038c-.948 0-.926-1.483.01-1.487l9.372-.046c.453.039.701.284.744.735v11.865h0z"/></g><defs><clipPath id="A"><path fill="#fff" d="M0 0h67v67H0z"/></clipPath></defs></svg>