<svg xmlns="http://www.w3.org/2000/svg" width="67" height="67" fill="#0a7f2e" xmlns:v="https://vecta.io/nano"><path d="M55.856 0a11.16 11.16 0 0 0-11.144 11.144c0 2.739 1.003 5.373 2.825 7.415a.982.982 0 1 0 1.465-1.307c-1.501-1.682-2.327-3.852-2.327-6.109 0-5.062 4.118-9.181 9.181-9.181s9.181 4.118 9.181 9.18-4.118 9.181-9.181 9.181a9.32 9.32 0 0 1-1.11-.066c-.536-.064-1.027.319-1.092.857a.98.98 0 0 0 .857 1.092c.443.053.895.08 1.344.08A11.16 11.16 0 0 0 67 11.144 11.16 11.16 0 0 0 55.856 0zm-1.55 17.005a6.05 6.05 0 0 0 1.551.201 6.07 6.07 0 0 0 6.063-6.062 6.07 6.07 0 0 0-6.062-6.062 6.07 6.07 0 0 0-6.062 6.062 6.06 6.06 0 0 0 2.718 5.055L42.33 35.637a3.53 3.53 0 0 0-.7-.07 3.51 3.51 0 0 0-2.465 1.009l-14.43-8.116c.061-.258.092-.527.092-.803 0-1.942-1.58-3.522-3.522-3.522s-3.522 1.58-3.522 3.522c0 1.02.436 1.941 1.132 2.585L4.04 59.994a3.54 3.54 0 0 0-.518-.038C1.58 59.956 0 61.536 0 63.478S1.58 67 3.522 67s3.522-1.58 3.522-3.522c0-1.063-.473-2.017-1.22-2.663l14.847-29.693a3.53 3.53 0 0 0 .635.057 3.51 3.51 0 0 0 2.465-1.009L38.2 38.286c-.06.258-.092.527-.092.803 0 1.942 1.58 3.522 3.522 3.522s3.522-1.58 3.522-3.522a3.51 3.51 0 0 0-1.084-2.539l10.238-19.545zm-2.549-5.861c0-2.26 1.839-4.1 4.099-4.1s4.1 1.839 4.1 4.1-1.839 4.1-4.1 4.1-4.099-1.839-4.099-4.1zM3.522 65.037a1.56 1.56 0 0 1-1.559-1.559 1.56 1.56 0 0 1 1.559-1.559 1.56 1.56 0 0 1 1.559 1.559 1.56 1.56 0 0 1-1.559 1.559zm17.784-35.821a1.56 1.56 0 0 1-1.559-1.559 1.56 1.56 0 0 1 1.559-1.559 1.56 1.56 0 0 1 1.559 1.559 1.56 1.56 0 0 1-1.559 1.559zM41.63 40.648a1.56 1.56 0 0 1-1.559-1.559 1.56 1.56 0 0 1 1.559-1.559 1.56 1.56 0 0 1 1.559 1.559 1.56 1.56 0 0 1-1.559 1.559z"/></svg>