<svg xmlns="http://www.w3.org/2000/svg" xmlns:xlink="http://www.w3.org/1999/xlink" width="370" height="278" fill="none" xmlns:v="https://vecta.io/nano"><style><![CDATA[.B{fill:#fff}.C{fill:#f37a50}.D{fill:#de623c}.E{fill:#2c2858}.F{fill:#95a6db}.G{fill:#000}.H{fill:#201d40}.I{fill:#e62552}.J{fill:#7fe19d}.K{fill:#c3d0e5}.L{fill:#768fdb}.M{fill:#ff4f78}.N{fill:#90c1f5}.O{fill:#e8b475}.P{fill:#e4ecf9}.Q{fill:#d6e1f2}]]></style><g clip-path="url(#A)"><path d="M370 277.278H0V0h370v277.278z" class="B"/><path d="M55.728 269.112C30.534 241.7-3.9 213.397 9.602 170.644c8.881-28.122 30.656-35.96 48.757-53.3 8.933-8.558 3.314-21.015 3.149-33.377C61.129 52.306 96.49 27.738 129 28.251c35.213.556 50.456 35.93 79.995 37.826 11.599.177 21.984-6.624 32.248-12.027 30.407-16.009 78.658-5.801 81.096 32.916.63 20.909-23.186 54.547.676 65.544 19.017 8.765 38.23 11.992 41.657 43.34 4.486 41.03-19.229 63.549-50.132 74.108l-258.812-.846z" class="J"/><path d="M286.763 69h-38.234c-4.733 0-8.569 3.833-8.569 8.562v17.81c0 4.729 3.836 8.562 8.569 8.562h.285l-3.07 10.272a.49.49 0 0 0 .764.527l14.164-10.799h26.091c4.733 0 8.569-3.833 8.569-8.562v-17.81c0-4.729-3.836-8.562-8.569-8.562z" class="B"/><g fill="#e3eaff"><path d="M286.439 84.053h-38.497c-1.909 0-3.456-1.547-3.456-3.455v-.864c0-1.908 1.547-3.453 3.456-3.453h38.497c1.909 0 3.456 1.546 3.456 3.453v.864c0 1.908-1.547 3.455-3.456 3.455zm-18.791 11.751h-18.026a3.89 3.89 0 0 1-3.89-3.886 3.89 3.89 0 0 1 3.89-3.886h18.026a3.89 3.89 0 0 1 3.889 3.886 3.89 3.89 0 0 1-3.889 3.886z"/></g><g class="B"><path d="M358.083 206.956h-40.212c-.712 0-1.288-.576-1.288-1.287v-34.586c0-.711.576-1.286 1.288-1.286s1.287.575 1.287 1.286v33.301h38.925c.712 0 1.288.575 1.288 1.285a1.29 1.29 0 0 1-1.288 1.287zm-37.169-8.454c-.322 0-.645-.121-.895-.362-.511-.493-.524-1.307-.03-1.819l12.997-13.432a1.29 1.29 0 0 1 1.626-.186l6.145 3.983 6.481-7.524a1.29 1.29 0 0 1 1.817-.136c.538.463.599 1.276.135 1.814l-7.215 8.376c-.419.488-1.136.591-1.676.24l-6.199-4.018-12.26 12.672a1.29 1.29 0 0 1-.926.392z"/><path d="M349.219 184.677l-1.835-3.713-3.947-1.259 8.788-4.36-3.006 9.332zM87.922 68.108a5.65 5.65 0 0 0-5.644 5.639 5.65 5.65 0 0 0 5.644 5.64 5.65 5.65 0 0 0 5.644-5.64 5.65 5.65 0 0 0-5.644-5.639zm0 13.423a7.8 7.8 0 0 1-7.79-7.785 7.8 7.8 0 0 1 7.79-7.783 7.8 7.8 0 0 1 7.79 7.783 7.8 7.8 0 0 1-7.79 7.785z"/></g><path d="M325.573 133.647a4.14 4.14 0 0 0-4.133 4.132 4.14 4.14 0 0 0 4.133 4.131 4.14 4.14 0 0 0 4.135-4.131 4.14 4.14 0 0 0-4.135-4.132zm0 9.832a5.71 5.71 0 0 1-5.705-5.7 5.71 5.71 0 0 1 5.705-5.701 5.71 5.71 0 0 1 5.707 5.701 5.71 5.71 0 0 1-5.707 5.7z" class="J"/><g class="B"><path d="M26.035 165.904c-2.047 0-3.712 1.664-3.712 3.709s1.665 3.71 3.712 3.71 3.712-1.664 3.712-3.71-1.665-3.709-3.712-3.709zm0 8.829a5.13 5.13 0 0 1-5.123-5.12 5.13 5.13 0 0 1 5.123-5.118 5.13 5.13 0 0 1 5.123 5.118 5.13 5.13 0 0 1-5.123 5.12zM300.661 58.827c0 1.538-1.247 2.785-2.788 2.785a2.79 2.79 0 0 1-2.787-2.785c0-1.539 1.249-2.785 2.787-2.785a2.79 2.79 0 0 1 2.788 2.785z"/></g><g class="J"><path d="M56.358 110.39a5.48 5.48 0 0 1-10.961 0 5.48 5.48 0 0 1 10.961 0zm260.958-62.361a4.12 4.12 0 0 1-4.12 4.118 4.12 4.12 0 0 1-4.119-4.118 4.12 4.12 0 0 1 4.119-4.116 4.12 4.12 0 0 1 4.12 4.116zm20.161 98.851c0 1.941-1.575 3.514-3.516 3.514s-3.517-1.573-3.517-3.514 1.575-3.513 3.517-3.513 3.516 1.572 3.516 3.513z"/></g><g class="B"><path d="M307.035 69.317c0 2.419-1.963 4.381-4.384 4.381s-4.384-1.962-4.384-4.381 1.962-4.381 4.384-4.381 4.384 1.962 4.384 4.381zM105.386 61.36c0 2.454-1.991 4.443-4.448 4.443s-4.447-1.989-4.447-4.443 1.991-4.443 4.447-4.443 4.448 1.989 4.448 4.443z"/></g><path d="M315.705 271.512H52.461c-.859 0-1.555-.696-1.555-1.555s.696-1.554 1.555-1.554h263.244c.859 0 1.556.696 1.556 1.554s-.697 1.555-1.556 1.555z" class="H"/><g class="C"><path d="M139.539 135.444h.004l4.04.015.916 9.536-4.718 2.488-5.029-2.461.813-9.563 3.974-.015z"/><path d="M128.439 131.234c2.487 6.209 8.459 9.661 13.34 7.709s6.821-8.568 4.335-14.776-8.46-9.662-13.341-7.71-6.821 8.568-4.334 14.777z"/></g><g class="G"><path d="M143.991 126.204c.288.415.857.517 1.272.229s.517-.857.229-1.271-.859-.516-1.273-.229-.517.858-.228 1.271zm-6.849 2.794a.99.99 0 1 0 1.626-1.13c-.313-.447-.93-.558-1.379-.246a.99.99 0 0 0-.247 1.376z"/></g><path d="M142.602 127.663l2.782 2.149s.015 1.489-1.726 2.134c.631-.571 1.183-1.331.528-2.209l-1.584-2.074z" class="D"/><g class="H"><path d="M135.341 128.403a.49.49 0 0 1-.107-.013c-.245-.058-.396-.305-.338-.549.16-.669.83-1.935 2.221-1.942.254.003.457.202.458.455s-.202.456-.454.457c-1.03.006-1.334 1.228-1.337 1.241-.05.209-.237.351-.443.351zm7.693-4.13c-.065 0-.132-.016-.192-.052a.38.38 0 0 1-.136-.52c.017-.028.417-.696 1.172-.836.516-.096 1.049.073 1.584.502a.38.38 0 0 1 .06.533.38.38 0 0 1-.534.06c-.357-.284-.683-.402-.972-.348-.41.076-.652.47-.655.473a.38.38 0 0 1-.327.188zm-17.992 2.323c-2.103-5.983 3.02-9.423 3.02-9.423s-1.374-.123-1.539-2.052c1.029.32 2.183.298 3.196-.069 6.83-2.471 11.532-2.437 11.532.482 0 1.04 4.511.327 4.132 7.319.027-.494-1.584-3.368-3.108-3.655s-.148 1.747-3.33 2.184c-3.212.441-5.573-.338-7.535 1.471-1.535 1.578-1.915 9.61-1.682 10.093-.535-1.108-3.762-3.72-4.686-6.35z"/><path d="M147.053 127.663s.291 3.644-.235 4.771c-.548-1.461-1.721.087-2.824.233-2.667.352-7.478-.535-7.955 3.46-3.258 1.03-6.31-5.939-6.31-5.939-.188 7.786 5.515 12.207 13.721 10.912 5.405-.853 5.908-8.375 3.603-13.437z"/></g><path d="M141.434 135.128c-.527-.126-1.077-.341-1.647-.645-.147-.079-.204-.263-.125-.411s.264-.204.412-.125c1.263.674 2.394.866 3.364.57 1.198-.365 1.746-1.374 1.751-1.384.079-.148.262-.205.41-.128s.207.261.129.409a3.73 3.73 0 0 1-2.102 1.681c-.677.209-1.409.219-2.192.033z" class="D"/><path d="M129.652 130.238c1.372.771 1.974 2.304 1.343 3.427s-2.255 1.407-3.627.637-1.974-2.305-1.343-3.426 2.255-1.407 3.627-.638z" class="C"/><path d="M129.442 133.6a.36.36 0 0 0 .105-.117c.377-.699.315-1.41-.166-1.904-.492-.504-1.286-.65-1.889-.345-.17.086-.237.292-.152.462s.293.237.463.151c.33-.167.807-.074 1.085.212.268.274.287.664.053 1.096-.09.167-.028.376.139.466.119.064.258.051.362-.021z" class="D"/><g class="G"><path d="M144.214 262.792c.859-2.333 2.698-2.592 2.698-2.592 3.572 4.926 12.346 1.903 12.056 8.565-13.343-.086-18.888 0-18.888 0 .018-1.53.281-5.162.589-6.584l.695.127 2.85.484zm-19.962.129c.86-2.333 2.697-2.592 2.697-2.592 3.573 4.926 12.347 1.903 12.057 8.565-13.343-.086-18.888 0-18.888 0 .018-1.531.282-5.162.589-6.584l.696.128 2.849.483z"/></g><path d="M153.088 185.004s2.168 31.569 1.287 38.587-3.996 16.017-3.643 39.232c-4.349 1.087-10.652 0-10.652 0s-.933-26.25 3.665-37.974c-1.87-11.39-7.87-37.474-7.87-37.474l17.213-2.371z" class="H"/><path d="M144.857 185.867s-4.374 35.44-6.515 42.163-6.317 12.407-10.193 35.276h-8.632s.603-29.009 7.564-35.606c.236-11.549-1.125-41.606-1.125-41.606l18.901-.227z" class="E"/><path d="M124.693 145.644s7.597-2.657 10.13-1.439c7.871 3.786 9.678 0 9.678 0 2.515.217 10.108 1.439 10.108 1.439 0 8.472.566 16.975.412 23.387-.108 5.584.956 20.779.956 20.779s-8.375 2.194-16.299 2.251c-7.924-.051-15.988-2.163-15.988-2.163l.775-21.11c-.114-6.412.228-14.694.228-23.144z" class="I"/><path d="M168.113 158.237c-3.135-7.476-12.44-12.231-13.504-12.593l-2.158 9.597c4.471 2.641 7.715 5.498 7.715 5.498-.55 2.673-.458 5.293-2.007 8.673 0 0 1.345-1.853 3.004-.757 1.613 1.066 4.578-1.11 4.578-1.11s4.769-3.598 2.372-9.308z" fill="#c4204a"/><path d="M166.366 177.129a.93.93 0 0 0 .162.032h.179a.85.85 0 0 0 .721-.591l8.36-26.931c.017-.054.028-.108.033-.163.004-.036.002-.071.002-.106-.002-.022.001-.043 0-.065l-.011-.054c-.05-.306-.265-.574-.582-.672-.051-.017-.104-.03-.159-.035-.061-.007-.122-.006-.181 0h-21.045l-8.432 28.617h20.966l-.013-.032z" class="F"/><path d="M154.037 148.578a.85.85 0 0 0-1.063.558l-8.307 26.863-.018.064c-.139.445.111.918.555 1.058l.002.003a.85.85 0 0 0 1.062-.559l8.328-26.925c.14-.448-.111-.924-.559-1.062z" class="L"/><g class="C"><path d="M169.936 165.663a.88.88 0 0 1 .252-.11l-.027-.038c-.525-.789-.489-1.733.077-2.109.093-.061.196-.101.303-.126-.147-.584-.015-1.141.388-1.41a.96.96 0 0 1 .544-.151c-.184-.574-.037-1.177.415-1.477.566-.374 1.389-.133 1.836.541s.35 1.523-.218 1.898c-.143.095-.302.151-.469.169.378.735.301 1.539-.211 1.877-.093.063-.195.103-.302.128.147.583.015 1.141-.39 1.41a.94.94 0 0 1-.501.151c.187.502.068 1.044-.33 1.307-.479.316-1.173.112-1.55-.457s-.296-1.287.183-1.603zm-25.871-1.702l1.917-1.11s.532-2.719 3.612-2.784l-.86 2.784s1.516 1.175 5.111-.838c3.516-.789 2.015 1.772 3.18 1.956 1.719.272-1.254 3.648-4.763 4.164-4.542.668-5.081-.261-5.081-.261l-2.571.897-.545-4.808z"/></g><path d="M126.311 166.866c6.412-.448 17.35-3.612 17.35-3.612 1.751 2.683 1.267 6.246 1.267 6.246-9.958 8.723-24.944 11.543-29.542 9.443-4.198-1.916-1.234-27.451 9.305-33.299 3.614 6.109 1.62 21.222 1.62 21.222z" fill="#8a284c"/><g class="G"><path d="M229.651 260.425c-3.573 4.76-12.347 1.839-12.056 8.279h18.887c-.018-1.479-.282-4.989-.588-6.365l-6.243-1.914zm19.963.125c-3.572 4.761-12.346 1.84-12.056 8.279h18.889c-.018-1.479-.282-4.989-.59-6.365l-6.243-1.914z"/></g><path d="M223.475 187.728s-2.166 30.52-1.286 37.305 3.996 15.483 3.643 37.926c4.35 1.052 10.651 0 10.651 0s.935-25.377-3.663-36.71c1.869-11.011 7.869-36.228 7.869-36.228l-17.214-2.293z" class="H"/><path d="M231.708 188.563s4.374 34.263 6.515 40.761 6.317 11.995 10.194 34.102c4.469.217 9.795-.883 9.795-.883s-1.766-27.159-8.729-33.538c-.234-11.164 1.127-40.222 1.127-40.222l-18.902-.22z" class="E"/><path d="M249.521 132.508c-2.372 5.92-8.064 9.21-12.718 7.349s-6.503-8.167-4.131-14.087 8.063-9.211 12.717-7.351 6.503 8.169 4.132 14.089z" class="C"/><g class="G"><path d="M234.696 127.713c-.274.395-.818.492-1.214.217a.871.871 0 1 1 1.214-.217zm6.528 2.663c-.297.427-.885.532-1.312.236a.94.94 0 0 1-.236-1.313c.297-.427.885-.533 1.312-.236a.94.94 0 0 1 .236 1.313z"/></g><path d="M236.019 129.103l-2.652 2.048s-.015 1.419 1.644 2.035c-.6-.545-1.128-1.269-.502-2.106l1.51-1.977z" class="D"/><g class="G"><path d="M242.943 129.809c-.198 0-.375-.135-.424-.334-.011-.047-.302-1.179-1.274-1.184-.241-.001-.434-.197-.432-.437s.198-.434.437-.432c1.326.007 1.965 1.214 2.116 1.85.055.235-.088.469-.322.524a.39.39 0 0 1-.101.013zm-7.334-3.939a.36.36 0 0 1-.312-.176c-.007-.011-.242-.385-.63-.455-.273-.048-.584.064-.92.333a.36.36 0 0 1-.509-.057c-.126-.156-.1-.384.055-.509.511-.409 1.02-.569 1.511-.478.72.133 1.1.77 1.117.797a.36.36 0 0 1-.129.495.35.35 0 0 1-.183.05zm12.259 7.255c-1.715-5.507.453-8.434.453-8.434-1.472-.295-2.043.214-2.043.214-.804-1.647-.182-2.829-.182-2.829-3.043-1.184-4.558.784-7.302 1.448-3.759.908-8.403-.591-8.837-5.176-.064-.664.667-1.094 1.222-.722.513.344 1.197.623 2.046.598 0 0-.786-.888-.826-2.116-.023-.677.771-1.043 1.293-.609.781.649 2.231 1.263 4.816.779 1.72-.321 5.659-3.075 8.112-2.537 2.007.44 3.598 2.145 4.284 4.587 0 0 4.929.51 5.423 5.932.486 5.327-5.688 9.414-5.688 9.414l-2.771-.549z"/></g><path d="M247.197 132.208c-1.306.739-1.873 2.204-1.268 3.272s2.155 1.332 3.46.593 1.874-2.203 1.267-3.27-2.153-1.335-3.459-.595z" class="C"/><path d="M247.408 135.411c-.04-.029-.075-.067-.101-.113-.362-.664-.305-1.341.151-1.814.468-.483 1.225-.625 1.799-.337a.33.33 0 0 1 .147.441c-.081.161-.278.227-.441.145-.315-.158-.768-.068-1.033.207-.254.262-.271.633-.046 1.045a.33.33 0 0 1-.476.426z" class="D"/><path d="M233.637 135.078c-.128-.209.054-.468.294-.417.609.128 1.618.319 2.589.405a23.4 23.4 0 0 0 2.621.06c.244-.009.377.28.215.463-.501.561-1.506 1.393-2.996 1.26s-2.331-1.129-2.723-1.771z" class="B"/><path d="M227.376 142.834s.222-.602-18.979-.448l-5.148 6.08c5.328 4.268 23.172 5.027 23.172 5.027l.955-10.659z" class="H"/><path d="M234.352 142.341l6.056-.565 5.86 1.633-6.602 6.787-5.314-7.855z" class="F"/><path d="M236.453 145.456c2.467 2.024 2.972 3.423 8.214.717l.787-8.054-8.535-.673-.466 8.01z" class="C"/><path d="M247.821 146.65l-1.794-.709.24-2.533-4.979 3.994-1.405.224-1.345-.47-4.187-4.815-.214 2.534-1.585.317-5.709.925-.68 31.671-2.253 10.775c7.577 2.519 16.052 3.147 24.382 2l-.28-10.818 5.918-30.952-6.109-2.143z" class="F"/><g class="E"><path d="M238.788 150.825l-3.578 24.181 1.981 2.75 2.582-1.982.88-24.748-1.865-.201z"/><path d="M238.574 147.97l1.309-.345 1.331.581-.564 2.869-1.875-.17-.201-2.935zm-4.306-5.427l-.896 29.21-3.87 18.811s-6.119-.617-9.879-4.193l4.818-14.159 1.647-29.591 8.18-.078z"/></g><path d="M234.267 142.543l-.891 28.819-4.455-22.087 5.346-6.732z" fill="#494c7f"/><path d="M246.724 144.412l-7.946 47.355s10.543 1.295 14.879-1.554l-2.353-15.568 2.876-26.429-7.456-3.804z" class="E"/><path d="M246.725 144.412l-4.644 27.755 8.315-20.941-3.671-6.814z" fill="#494c7f"/><path d="M194.218 116.562c.423 1.477.55 3.071 2.425 3.867l-.07 8.925 4.538-5.117c-.261-1.622-.47-4.687-.221-6.428l.225-1.355c.194-1.099.519-2.225-.153-3.552-2.588-5.127-1.717-6.814-2.074-7.064-.58-.256-1.944.777-1.172 3.296.745 2.437.562 3.634.562 3.634s-1.958-.369-2.653.316c-.315.31-1.901 1.751-1.407 3.478z" class="C"/><g class="H"><path d="M195.271 123.473c2.644-.881 4.037-1.278 6.093-1.278 4.863 14.481 8.331 19.938 6.885 24.095-1.206 3.466-5.02 3.189-6.885.592-2.46-3.427-4.637-16.442-6.093-23.409zm58.911 24.743l15.322 23.951 18.197 10.266-5.608 5.58-18.257-7.996-12.53-17.664 2.876-14.137z"/></g><g class="B"><path d="M239.884 147.626s-2.254 2.275-4.326 2.856l-2.418-6.407 1.212-1.734 5.532 5.285z"/><path d="M239.884 147.625a10.84 10.84 0 0 0 3.749 3.58l3.519-5.876-.884-1.921-6.384 4.217zm16.675 68.186h-133.78c-3.144 0-5.693-1.714-5.693-3.828s2.549-3.828 5.693-3.828h133.78c3.144 0 5.693 1.714 5.693 3.828s-2.549 3.828-5.693 3.828z"/><path d="M172.919 269.751c-1.434 0-2.296-1.59-1.512-2.789l35.323-54.088 3.023 1.972-35.323 54.087c-.333.51-.902.818-1.511.818z"/><path d="M206.42 269.751c1.434 0 2.296-1.59 1.512-2.789l-35.323-54.088-3.024 1.972 35.324 54.087c.333.51.902.818 1.511.818z"/><use xlink:href="#B"/><path d="M274.02 268.894a1.73 1.73 0 0 1-1.73-1.728v-30.615h3.458v30.615a1.73 1.73 0 0 1-1.728 1.728zm15.922 0a1.73 1.73 0 0 1-1.729-1.728v-30.615h3.459v30.615a1.73 1.73 0 0 1-1.73 1.728zm12.134 0a1.73 1.73 0 0 1-1.729-1.728v-30.615h3.458v30.615a1.73 1.73 0 0 1-1.729 1.728z"/></g><g fill="#f3f3f3"><path d="M282.943 191.115v36.432a.75.75 0 0 1-.752.75h-22.606a4.13 4.13 0 0 0-4.129 4.128 4.13 4.13 0 0 0 4.129 4.126h23.358 4.13a4.13 4.13 0 0 0 4.13-4.126v-4.128-37.182a4.13 4.13 0 0 0-8.26 0z"/><path d="M304.945 228.968h-17.874v-41.979h17.874v41.979z"/></g><g class="B"><path d="M300.816 191.115v36.432a.75.75 0 0 1-.752.75h-22.607a4.13 4.13 0 0 0-4.129 4.128 4.13 4.13 0 0 0 4.129 4.126h23.359 4.129a4.13 4.13 0 0 0 4.131-4.126v-4.128-37.182a4.13 4.13 0 1 0-8.26 0zm-185.054 77.779a1.73 1.73 0 0 0 1.73-1.728v-30.615h-3.459v30.615a1.73 1.73 0 0 0 1.729 1.728zm-12.136 0a1.73 1.73 0 0 0 1.729-1.728v-30.615h-3.459v30.615a1.73 1.73 0 0 0 1.73 1.728zm-15.922 0a1.73 1.73 0 0 0 1.729-1.728v-30.615h-3.459v30.615a1.73 1.73 0 0 0 1.729 1.728zm-12.134 0a1.73 1.73 0 0 0 1.73-1.728v-30.615h-3.459v30.615a1.73 1.73 0 0 0 1.729 1.728z"/></g><g class="F"><path d="M94.704 191.115v36.432a.75.75 0 0 0 .751.75h22.607a4.13 4.13 0 0 1 4.129 4.128 4.13 4.13 0 0 1-4.129 4.126H94.704h-4.13a4.13 4.13 0 0 1-4.13-4.126v-4.128-37.182a4.13 4.13 0 0 1 8.26 0z"/><path d="M72.701 228.968h17.874v-41.979H72.701v41.979z"/></g><path d="M76.83 191.115v36.432a.75.75 0 0 0 .751.75h22.606a4.13 4.13 0 0 1 4.13 4.128 4.13 4.13 0 0 1-4.13 4.126H76.83h-4.13a4.13 4.13 0 0 1-4.13-4.126v-4.128-37.182a4.13 4.13 0 0 1 8.26 0z" class="B"/><path d="M273.745 177.193c-3.814-1.375-9.707-4.381-5.791-9.874s3.816-3.096 2.407-9.768 3.339-11.922 7.865-10.593 5.681 4.989 11.23 4.061 10.161 4.259 8.072 8.757-2.98 6.661-1.028 9.15 10.753 5.17 7.083 11.133-5.352 5.597-4.077 8.652-1.667 6.537-6.767 6.062-9.72-2.403-11.591-8.094-7.403-9.486-7.403-9.486z" class="E"/><path d="M260.248 263.864l-3.013.9-2.27-2.32c.109-.16.004-1.713-.346-3.368l5.629-.933c.225 1.713 0 3.99 0 5.721z" class="C"/><path d="M257.256 264.222c-.716-1.88-2.248-2.09-2.248-2.09-2.977 3.968-10.289 1.534-10.047 6.902h15.74c-.015-1.234-.234-4.159-.491-5.304l-.578.102-2.376.39z" class="I"/><path d="M240.203 264.424l-3.137.215-1.805-1.922c.141-.133.483-2.51.505-4.202l5.289.235c-.158 1.721-.47 3.984-.852 5.674z" class="C"/><path d="M237.406 264.222c-.716-1.88-2.248-2.09-2.248-2.09-2.977 3.968-10.29 1.534-10.048 6.902h15.741c-.015-1.234-.234-4.159-.491-5.304l-.579.102-2.375.39z" class="I"/><path d="M271.94 211.992c-8.567 1.152-32.701 10.087-34.046 11.705-2.778 3.34-1.314 21.51-2.633 36.503l7.015.415c3.359-12.211 3.091-17.481 4.611-31.486 0 0 27.573 2.063 37.535-4.657 10.272-6.928-5.554-14.122-12.482-12.48z" fill="#0e6a41"/><g class="D"><path d="M260.775 194.19c2.025.345 2.805 1.969 3.293 4.958-7.713 4.54-19.172 4.863-19.172 4.863l-3.652-1.805s9.188-3.307 19.531-8.016z"/><path d="M281.866 185.647c-3.376 4.901-16.305 15.44-18.446 15.772l-2.593-7.251 14.923-16.067c3.97-4.188 11.642-.445 6.116 7.546z"/></g><path d="M267.645 184.863c2.707-2.914 6.232-9.491 10.819-9.024s4.919 5.332 3.536 7.951-6.157 9.074-6.157 9.074l-8.198-8.001z" class="M"/><path d="M268.477 197.191c1.944.67 3.054 6.789 2.509 7.258-8.337 3.298-25.68-.269-25.68-.269l-.922-3.139s13.133-.803 24.093-3.85z" class="C"/><path d="M295.907 217.137l-3.521-17.935c-1.956-11.43 3.797-19.463-6.067-24.941l-7.19 1.158c-5.814 6.111-9.392 11.658-9.699 15.49-.422 4.942 4.486 7.625 4.486 7.625l-1.975 13.458s-.464 1.098 7.643 2.628 16.323 2.517 16.323 2.517z" class="I"/><path d="M289.995 187.042c-3.375 4.956-17.799 17.555-19.966 17.668l-1.551-7.519 15.401-17.782c3.969-4.237 11.642-.451 6.116 7.633z" class="C"/><path d="M276.205 187.076c2.52-3.663 7.601-10.418 12.187-9.951s4.919 5.332 3.536 7.95-6.158 9.074-6.158 9.074l-9.565-7.073z" class="M"/><path d="M244.384 201.041c-2.652-.651-8.417-2.586-10.74 3.48.583 1.115 2.717-1.634 3.634-1.889 1.456-.405 2.704.359 3.806 1.411 1.581 1.508 4.221.137 4.221.137l-.921-3.139z" class="C"/><g class="M"><path d="M242.321 208.092h-24.91v-3.343h28.255c0 1.847-1.498 3.343-3.345 3.343z"/><path d="M204.602 187.096l12.809 20.996 2.961-1.556-14.366-23.953a3.34 3.34 0 0 0-1.404 4.513z"/></g><g class="C"><path d="M289.607 164.897c-1.211 5.055-5.414 8.383-9.386 7.433s-6.213-5.819-5-10.874 5.414-8.382 9.386-7.433 6.213 5.819 5 10.874z"/><path d="M287.683 167.56l-6.602 4.09-.879 3.861c-.602 1.952 1.71 2.806 3.664 1.59s2.452-2.84 2.452-2.84l1.365-6.701z"/></g><path d="M274.765 159.524c1.876.163 5.941-.163 7.423-1.92 1.057 3.566 5.55 6.961 9.266 8.553.149-3.659.122-10.391-6.443-13.188-5.157-2.197-10.246 6.555-10.246 6.555z" class="E"/><g class="G"><path d="M277.082 162.783c-.177.35-.603.493-.954.318a.71.71 0 1 1 .954-.318zm5.58 1.375a.77.77 0 0 1-1.032.346.77.77 0 0 1-.346-1.031.77.77 0 0 1 1.031-.345.77.77 0 0 1 .347 1.03z"/></g><g class="E"><path d="M283.511 163.522c-.052-.025-.096-.07-.122-.126-.386-.831-1.428-.993-1.438-.994-.145-.022-.248-.157-.226-.304s.156-.246.301-.226c.054.009 1.338.201 1.847 1.299.062.133.004.292-.129.355-.078.034-.163.032-.233-.004zm-7.979-1.768c-.027-.012-.05-.03-.073-.051a.27.27 0 0 1 .003-.378c.816-.806 1.822-.472 1.863-.457.14.048.215.2.167.34a.27.27 0 0 1-.339.167 1.34 1.34 0 0 0-1.315.331c-.083.082-.208.098-.306.048z"/></g><path d="M277.539 164.327c-.39.401-.733.814-1.105 1.048-.125.079-.165.246-.093.375.301.532 1.18.971 1.718 1.2.078.033.143-.069.078-.126-.543-.476-.776-.826-.874-1.019-.049-.096-.048-.208.001-.304l.483-1.039c.051-.129-.113-.235-.208-.135z" class="D"/><path d="M287.698 164.93c-.966.75-1.25 1.998-.636 2.788s1.895.821 2.861.071 1.25-2 .636-2.789-1.897-.822-2.861-.07z" class="C"/><path d="M288.246 167.49c-.036-.018-.07-.045-.095-.079-.372-.494-.406-1.047-.094-1.481.32-.446.914-.649 1.413-.485.14.047.216.198.17.338s-.198.217-.338.169c-.274-.09-.629.038-.809.289-.175.242-.145.543.086.848.088.118.065.286-.053.374-.085.064-.193.07-.28.027z" class="D"/><path d="M281.525 213.554c-8.566 1.152-32.735 8.978-34.081 10.595-2.778 3.339 3.408 17.64 5.386 36.051h8.268c-.086-13.118.963-25.185-3.077-29.462 0 0 23.167-1.544 34.716-1.544 5.888 0 9.145-19.878-11.212-15.64z" fill="#0a7f2e"/><path d="M277.177 168.581c-.114-.154.01-.371.201-.347.484.058 1.285.139 2.051.139a18.31 18.31 0 0 0 2.051-.135c.19-.022.313.193.199.347-.352.474-1.079 1.192-2.251 1.191s-1.9-.721-2.251-1.195z" class="B"/><g class="C"><path d="M112.67 199.417c-1.636 1.088-1.183 7.016-.565 7.317 8.507 1.038 22.874-6.003 22.874-6.003l.563-3.15s-12 2.007-22.872 1.836z"/><path d="M93.979 189.14c3.041 4.859 16.352 17.422 18.417 17.61l1.76-7.124-14.054-17.551c-3.635-4.193-11.103-.86-6.123 7.065z"/></g><path d="M101.254 163.175c.365-4.976-1.074-9.371-5.044-11.608-4.024-2.27-9.065-.045-9.065-.045s-4.267-1.516-8.134 2.74-.942 8.001-2.524 11.105c-.937 1.838-5.7 2.218-4.47 8.205.355 1.727 2.433 2.889 4.194 3.005 3.093.203 5.974-.992 7.227.203 4.132 3.937 13.288 2.513 14.569-1.089.397-1.116 8.634 1.044 7.812-6.561-.416-3.855-4.892-1.51-4.565-5.955z" class="E"/><path d="M93.706 179.258l-6.539-1.206-2.452 3.259 5.211 10.677 7.665-6.501-3.885-6.229z" class="C"/><g fill="#0a7f2e"><path d="M102.182 204.997c-.111-2.031 3.174-10.373 1.445-14.571-1.26-3.378-3.364-9.048-5.941-9.993-1.216-.447-2.465-.757-3.98-1.176 0 0 .855 4.256-.926 4.399-3.428.274-5.613-5.605-5.613-5.605-1.848-.176-10.326 2.606-10.322 3.302.02 5.449 4.45 13.397 5.899 19.288.57 6.36-1.651 13.973-1.659 14.698 0 0 13.638 3.831 21.721-.617.17-.62-.469-6.921-.624-9.725z"/><path d="M83.136 208.803s-3.011 7.589-3.745 12.366 3.409 7.843 3.409 7.843h34.456s3.689-5.977 2.626-10.104-3.506-4.784-3.506-4.784l-33.241-5.321z"/></g><g class="D"><path d="M117.718 213.911c-4.399-.62-17.167 4.336-22.611 15.101h15.231l7.38-15.101z"/><path d="M112.895 217.875c.569-.623 1.085-1.389 1.539-2.189 1.284-2.26 4.379-2.641 6.126-.717 6.35 6.996 19.888 22.945 22.906 24.929.853.561 5.829 3.423 10.559 2.857 0 0 2.334.889.778 2.741-.8.952-12.82 1.938-12.82 1.938l-.937-3.527c-6.997-5.174-15.708-4.802-23.093-14.262-4.068-5.21-5.058-11.77-5.058-11.77z"/></g><path d="M144.417 249.469l4.837 3.136.665-.791-3.924-3.656c2.229-1.757 7.391-.291 7.391-.291 1.691-1.091 4.986-4.631 5.326-6.527-1.082-1.348-4.688 1.425-4.688 1.425.133.6-1.006 2.681-1.912 3.037-3.939.849-7.864-.27-11.066-1.895 0 0-2.677 4.053 3.371 5.562z" class="I"/><path d="M112.825 218.824a2.28 2.28 0 0 0-1.666 1.878c-.344 2.441-2.123 7.385.284 12.563 5.909 12.713 9.398 21.09 10.017 24.37-1.543 2.889 4.612 10.779 4.703 11.296l4.43-1.386-3.457-5.258c-2.179-3.522-2.536-7.845-2.89-11.196-1.512-14.306 1.088-23.338-9.271-31.73-.613-.496-1.389-.742-2.15-.537z" class="C"/><path d="M119.252 263.687l.437 5.745 1.033.049.531-5.335c2.75.705 4.713 5.696 4.713 5.696 1.894.683 6.709 1.154 8.425.275.416-1.678-3.977-2.862-3.977-2.862-.398.47-2.745.827-3.577.322-3.064-2.615-4.729-6.411-5.378-9.942 0 0-4.673.331-2.207 6.052z" class="I"/><g class="C"><path d="M92.055 173.921l-5.31-.794.423 4.924s1.016 2.231 2.195 2.382l4.344-1.176-1.652-5.336z"/><path d="M81.83 166.801c1.371 5.72 6.127 9.486 10.623 8.41s7.03-6.586 5.659-12.306-6.127-9.484-10.623-8.409-7.03 6.584-5.659 12.305z"/></g><g class="G"><path d="M96.006 164.408c.198.397.681.558 1.078.36a.8.8 0 0 0 .361-1.076c-.198-.398-.681-.56-1.078-.362s-.559.681-.361 1.078zm-6.314 1.556a.87.87 0 1 0 1.558-.775.87.87 0 1 0-1.558.775z"/></g><g class="E"><path d="M88.728 165.245c.059-.031.109-.079.14-.144.436-.94 1.615-1.123 1.627-1.126.165-.024.28-.178.256-.343s-.176-.278-.341-.256c-.062.009-1.514.227-2.09 1.471-.07.151-.004.331.147.401.087.04.183.036.262-.003zm9.032-2.002c.029-.014.056-.033.08-.058.117-.118.116-.309-.002-.427-.923-.912-2.061-.534-2.109-.517a.3.3 0 0 0-.187.384c.055.158.226.241.383.188.037-.012.838-.266 1.488.375.095.093.235.112.348.055z"/></g><path d="M95.489 166.155c.441.453.828.92 1.249 1.186.142.089.187.278.105.424-.34.602-1.334 1.098-1.942 1.358-.089.037-.162-.079-.089-.142.615-.539.879-.936.99-1.153a.38.38 0 0 0-.001-.345l-.547-1.176c-.059-.145.127-.263.236-.152z" class="D"/><path d="M83.995 166.836c1.092.85 1.414 2.263.719 3.156s-2.145.93-3.238.08-1.414-2.262-.719-3.155 2.145-.929 3.237-.081z" class="C"/><path d="M83.373 169.732c.041-.02.078-.05.107-.089.42-.557.459-1.184.106-1.676-.362-.503-1.034-.733-1.598-.547-.158.052-.245.223-.192.382s.224.244.382.191c.309-.101.711.042.916.328.197.273.162.614-.098.959a.3.3 0 0 0 .06.422c.095.073.218.08.317.03z" class="D"/><path d="M90.518 170.715c-.127-.17.01-.409.221-.384a20.28 20.28 0 0 0 2.272.151c.847 0 1.735-.087 2.272-.151.211-.025.348.214.221.384-.39.525-1.195 1.322-2.493 1.322s-2.104-.797-2.493-1.322z" class="B"/><path d="M81.721 166.295c5.367-.719 12.876-6.181 13.492-8.986-1.038-3.367-6.569-5.06-9.692-3.499s-6.073 8.246-3.8 12.485z" class="E"/><path d="M131.926 206.845a1.36 1.36 0 0 1-.872-1.715l8.285-25.356a1.36 1.36 0 1 1 2.586.845l-8.284 25.355a1.36 1.36 0 0 1-1.715.871z" class="B"/><g class="C"><path d="M136.324 197.758l1.688-5.166s1.463 2.972 0 5.792-2.855 2.948-2.855 2.948l1.167-3.574zm-2.411-1.383c-.427-1.002-1.432-3.512-.427-3.501s1.168 1.23 1.168 1.23l-.741 2.271zm-82.982-15.099c2.278-2.296.784-4.652.784-4.652 1.25-.267 7.845 9.715 10.689 16.059 4.96-4.995 13.701-11.741 16.064-12.135 0 0 3.188-.856 4.334 2.996 1.023 3.438-2.966 5.874-2.966 5.874s-17.06 12.035-19.583 10.965c-3.926-1.665-7.48-15.989-9.322-19.107z"/><path d="M47.37 180.991c1.392.086 3.114-.602 3.65.645l2.747-1.338.166-1.657c-2.361-3.779-8.116-4.853-8.686-4.902-1.48-.129-2.168-.282-2.283-.085s-.478 1.515 1.67 1.773c2.696.323.906 2.476-4.562.427-1.369-.513-3.946.153-3.014 1.152 1.027 1.103 3.978 3.6 10.312 3.985z"/></g><path d="M215.268 67.579c0 25.249-20.484 45.718-45.754 45.718S123.76 92.828 123.76 67.579s20.485-45.717 45.754-45.717 45.754 20.469 45.754 45.718z" class="F"/><path d="M196.648 84.876c-1.482-14.337-51.732-14.263-54.564-.552-.164 2.34.991 4.126 3.685 5.876 6.709 5.06 14.856 6.551 23.552 6.702 7.239-.076 13.238-.927 19.327-3.856 3.402-1.666 7.896-4.654 8-8.17z" fill="#3f93e8"/><path d="M197.414 84.41c-2.27 11.963-32.674 11.569-41.98 9.179-9.075-1.579-17.951-7.321-12.152-12.985 1.322-1.292 3.409-2.58 6.431-3.813 10.643-4.086 29.291-4.023 39.858.091 1.768.721 3.435 1.468 4.772 2.401 1.791 1.251 2.996 2.832 3.071 5.126z" class="B"/><path d="M194.343 79.285l-2.833 4.51c-7.466 9.128-18.88 7.981-21.974 8.13-2.604.98-7.969 2.045-7.969 2.045l-1.386-.744-12.262-3.95s4.064-7.061 3.336-7.118c-1.202-.094-3.694-.039-4.43-.431-1.258-1.313-1.728-1.479-2.719-1.85 1.324-1.292 2.585-1.852 5.607-3.085 10.644-4.086 29.292-4.023 39.859.091 1.767.721 3.434 1.468 4.771 2.401z" class="N"/><path d="M200.625 70.595c1.016-2.17 1.357-3.966 1.027-5.393-.407-2.067-1.54-3.399-3.445-4.087-2.084-.829-4.339-.337-6.696 1.503-1.819 1.418-3.472 3.434-4.906 5.913-.217.384-.203.772-.122 1.187s.373.672.688.862c.384.216.749.27 1.095.165.413-.082.648-.304.863-.688 1.244-2.164 2.612-3.821 4.13-5.041 1.469-1.084 2.76-1.464 3.985-1.022.884.32 1.417.973 1.598 1.96.138.896-.144 2.1-.821 3.546-.794 1.558-2.04 2.877-3.762 4.022-1.906 1.233-3.622 2.15-5.079 2.777l-4.483 1.763c-.372.173-.605.397-.821.779s-.178.704-.096 1.119c.173.37.372.672.755.887s.705.177 1.143.029l4.601-1.874c1.55-.671 3.314-1.725 5.407-3.045 2.352-1.61 3.974-3.33 4.939-5.364z" class="B"/><path d="M188.203 63.163c.029 2.904-8.331 5.346-18.672 5.451s-18.749-2.164-18.779-5.07 8.33-5.346 18.671-5.451 18.749 2.164 18.78 5.07z" fill="#3f93e8"/><path d="M150.62 65.77c.003.313.112.523.223.836.551 1.357 2.283 2.491 5.411 3.508 3.667 1.221 8.081 1.805 13.348 1.751 5.16-.053 9.668-.728 13.31-2.023 3.535-1.188 5.349-2.569 5.44-4.143l-.002-.209c-.017-1.678-1.86-3.126-5.527-4.346-3.667-1.115-8.187-1.698-13.347-1.646-5.267.054-9.668.728-13.31 1.917-3.751 1.192-5.563 2.677-5.546 4.355z" fill="#783c38"/><path d="M190.408 63.257v.026c.119 11.737.263 27.492-20.649 27.705-19.945.202-21.092-15.727-21.212-27.274v-.03l2.211-.024c.249 2.85 8.57 5.057 18.772 4.954s18.476-2.48 18.667-5.335l2.211-.022z" class="B"/><path d="M169.53 68.614c-10.202.104-18.523-2.103-18.772-4.954a.91.91 0 0 1-.007-.116c-.029-2.906 8.33-5.346 18.671-5.451s18.749 2.164 18.78 5.069c0 .04-.002.079-.004.118-.192 2.855-8.465 5.231-18.668 5.335zm20.876-5.357c-.083-3.735-9.466-6.663-20.998-6.545s-20.852 3.236-20.861 6.971v.026.006c.043 3.746 9.444 6.688 21 6.569s20.897-3.251 20.861-6.997c0-.012 0-.021-.002-.029z" class="N"/><path d="M163.213 66.624c-14.245-2.536-1.287-7.58 12.164-5.597 9.164 1.35 6.185 5.913-3.86 5.83-12.486-.104-11.834-5.219-.438-5.194 3.705.008 7.413 3.101 2.804 3.38-8.208.499-6.846-2.264-2.891-1.898-3.208-.295-3.179 1.904.904 1.313 4.561-.659-.182-3.081-4.925-2.125-6.928 1.395.82 3.791 5.967 3.516 8.374-.444 7.675-3.52.437-4.507-9.506-1.296-19.24 2.766-10.162 5.282z" fill="#9b6564"/><path d="M168.527 85.306l-2.392-.862.117-6.135-5.373-2.124-5.768 1.912-.05 2.599-.251-.082-5.63 2.285.277 6.014 5.431 1.775 2.685-1.023.1 2.168 5.432 1.775 5.704-2.174-.282-6.128z" class="N"/><g fill="#dee6ff"><path d="M172.43 36.681c-1.629-3.739-9.802-4.399-9.802-4.399s3.94 1.68 4.493 4.847c.783 4.492-5.335 6.497-3.917 12.478 1.088 4.592 6.34 6.084 6.34 6.084s-2.598-2.023-1.379-7.481c.883-3.955 6.006-7.536 4.265-11.528zM179.696 44c-.22-2.43-4.204-4.303-4.204-4.303s.955 1.744.333 3.638c-.837 2.544-3.857 2.775-4.058 5.774-.193 2.867 2.83 5.589 2.83 5.589s-1.11-2.633 1.273-5.601c1.726-2.152 4.062-2.502 3.826-5.096z"/></g><path d="M153.35 91.05l-5.432-1.775-.278-6.014 5.632-2.285 5.5 1.772.282 6.128-5.704 2.174z" class="O"/><path d="M147.64 83.261l5.632-2.285 5.5 1.772-5.705 2.173-5.427-1.66z" class="P"/><path d="M153.351 91.05l-.283-6.129 5.705-2.172.282 6.128-5.704 2.174z" class="K"/><path d="M153.067 84.92l.283 6.129-5.432-1.775-.278-6.014 5.427 1.66z" class="Q"/><path d="M161.566 93.97l-5.431-1.775-.278-6.016 5.631-2.283 5.5 1.772.283 6.128-5.705 2.174z" class="O"/><path d="M155.857 86.179l5.631-2.284 5.5 1.772-5.704 2.173-5.427-1.661z" class="P"/><path d="M161.566 93.97l-.282-6.129 5.704-2.172.283 6.128-5.705 2.174z" class="K"/><path d="M161.284 87.84l.282 6.129-5.431-1.775-.278-6.015 5.427 1.661z" class="Q"/><path d="M158.764 86.603l-5.304-2.124.115-6.02 5.768-1.913 5.372 2.125-.116 6.135-5.835 1.797z" class="O"/><path d="M153.574 78.459l5.768-1.913 5.372 2.125-5.834 1.798-5.306-2.01z" class="P"/><path d="M158.764 86.602l.116-6.134 5.834-1.798-.116 6.135-5.834 1.797z" class="K"/><path d="M158.881 80.469l-.117 6.134-5.304-2.124.115-6.02 5.306 2.01z" class="Q"/><g class="K"><path d="M166.524 93.201c0 .373-.303.675-.676.675s-.676-.302-.676-.675.303-.675.676-.675.676.302.676.675zm-13.377-10.079c0 .372-.302.674-.676.674s-.676-.302-.676-.674.303-.675.676-.675.676.302.676.675z"/><use xlink:href="#C"/><path d="M146.468 88.539a.472.472 0 1 1-.667-.667.472.472 0 1 1 .667.667zm.554.969c-.131.13-.342.13-.471 0s-.13-.34 0-.47.34-.129.471 0 .129.341 0 .47zm8.001 3.147c-.185.184-.485.184-.668 0a.47.47 0 0 1 0-.667c.183-.184.483-.184.668 0a.47.47 0 0 1 0 .667z"/></g><g class="B"><path d="M153.679 51.836c0 .377-.307.684-.684.684s-.684-.306-.684-.684.306-.683.684-.683.684.306.684.683zm4.946 1.896a.4.4 0 0 1-.4.401c-.22 0-.401-.18-.401-.401a.4.4 0 1 1 .801 0zm-.964 5.183a.4.4 0 1 1-.419.378.4.4 0 0 1 .419-.378zm.088-8.502a.4.4 0 1 1-.801 0 .4.4 0 1 1 .801 0z"/></g><path d="M173.878 203.868h-2.55v-6.961h2.55v6.961zm.828-8.617h-3.378v-2.604h-12.671v15.48h12.671v-2.602h3.378a.83.83 0 0 0 .828-.829v-8.618c0-.457-.37-.827-.828-.827z" fill="#8ba3f0"/><g class="B"><path d="M164.095 190.027c-1.74-1.837-3.788-3.425-1.527-6.257 1.585-1.987 2.266-4.039 1.358-5.456 2.131 1.262 3.098 4.866 1.416 6.268-2.085 1.739-1.247 5.445-1.247 5.445zm3.612-.283c-1.31-1.382-2.85-2.577-1.149-4.708 1.193-1.494 1.707-3.039 1.021-4.105 1.604.95 2.333 3.662 1.067 4.717-1.569 1.308-.939 4.096-.939 4.096z"/></g><path d="M189.818 197.307h2.55v6.961h-2.55v-6.961zm-1.658-.828v8.618a.83.83 0 0 0 .83.827h3.378v2.604h12.669v-15.48h-12.669v2.602h-3.378a.83.83 0 0 0-.83.829z" fill="#8ba3f0"/><g class="B"><path d="M199.602 190.427c1.74-1.838 3.789-3.425 1.527-6.258-1.585-1.986-2.268-4.038-1.357-5.455-2.132 1.263-3.099 4.866-1.418 6.268 2.087 1.74 1.248 5.445 1.248 5.445zm-3.615-.283c1.31-1.384 2.852-2.578 1.151-4.71-1.194-1.494-1.707-3.037-1.023-4.103-1.603.949-2.331 3.661-1.066 4.715 1.57 1.308.938 4.098.938 4.098z"/></g><path d="M295.813 140.732c0 .4-.07.786-.197 1.153-.643 1.844-2.789 3.198-5.337 3.198s-4.693-1.354-5.336-3.198a3.46 3.46 0 0 1-.197-1.153h11.067z" class="F"/><path d="M295.813 140.733c0 .4-.07.786-.197 1.153h-10.673a3.46 3.46 0 0 1-.197-1.153h11.067z" class="L"/><path d="M301.867 122.083c0-6.389-5.18-11.57-11.571-11.578-6.304-.008-11.488 5.067-11.602 11.366-.048 2.753.865 5.293 2.427 7.304 1.977 2.544 3.075 5.661 3.075 8.883v.057h12.166v-.057c0-3.226 1.106-6.343 3.083-8.894 1.518-1.957 2.422-4.414 2.422-7.081z" class="B"/><path d="M290.405 122.181a8.45 8.45 0 0 0-.809 1.87c-.341 1.158-.388 2.265-.124 2.966.191.504.514.768.989.804.491.036.799-.165.971-.633.393-1.066-.083-3.244-1.027-5.007zm1.626 14.624a.3.3 0 0 1-.097-.017c-.154-.054-.236-.222-.181-.377l2.372-7.978c1.759-7.099.853-8.253.383-8.421-1.385-.489-2.488.236-3.169.931a5.69 5.69 0 0 0-.573.685c.296.51.563 1.075.787 1.672.613 1.638.775 3.168.435 4.092a1.45 1.45 0 0 1-1.572 1.019c-.707-.054-1.226-.463-1.498-1.185-.312-.829-.272-2.046.11-3.343a8.94 8.94 0 0 1 1.04-2.282c-.408-.646-.881-1.202-1.394-1.576-.763-.555-1.479-.58-2.129-.071-1.341 1.047-1.393 4.2-.148 9.116.959 3.789 2.367 7.294 2.381 7.328.061.151-.011.323-.164.384s-.325-.011-.386-.163c-.013-.035-1.434-3.572-2.404-7.399-1.326-5.237-1.207-8.512.357-9.733.858-.671 1.867-.649 2.841.06.488.356.971.888 1.408 1.541a6.4 6.4 0 0 1 .486-.561c1.133-1.155 2.479-1.536 3.789-1.072.816.288 1.15 1.385 1.024 3.354-.094 1.451-.441 3.392-1.031 5.77l-2.386 8.027c-.043.122-.157.199-.281.199z" class="J"/><path d="M295.291 141.112h-10.022a2.23 2.23 0 0 1-2.23-2.228 2.23 2.23 0 0 1 2.23-2.226h10.022a2.23 2.23 0 0 1 2.23 2.226 2.23 2.23 0 0 1-2.23 2.228z" class="F"/><g class="B"><path d="M309.966 122.557h-3.79c-.538 0-.976-.436-.976-.976s.438-.974.976-.974h3.79c.538 0 .975.437.975.974s-.437.976-.975.976zm-35.582 0h-3.788c-.54 0-.977-.436-.977-.976s.437-.974.977-.974h3.788c.54 0 .977.437.977.974a.98.98 0 0 1-.977.976zm2.407-8.008l-3.015-2.292c-.431-.327-.514-.939-.186-1.367s.939-.513 1.368-.186l3.015 2.292c.428.326.512.939.186 1.367a.98.98 0 0 1-1.368.186zm26.784 0l3.015-2.292c.429-.327.512-.939.186-1.367a.98.98 0 0 0-1.369-.186l-3.014 2.292c-.43.326-.513.939-.186 1.367a.98.98 0 0 0 1.368.186zm-26.784 15.276l-3.015 2.294a.97.97 0 0 0-.186 1.367.98.98 0 0 0 1.368.185l3.015-2.293c.428-.326.512-.937.186-1.367a.98.98 0 0 0-1.368-.186zm26.784 0l3.015 2.294c.429.325.512.938.186 1.367a.98.98 0 0 1-1.369.185l-3.014-2.293c-.43-.326-.513-.937-.186-1.367a.98.98 0 0 1 1.368-.186z"/></g><path d="M103.123 140.765c0 .399-.068.786-.197 1.152-.642 1.844-2.788 3.198-5.336 3.198s-4.693-1.354-5.336-3.198c-.129-.366-.197-.753-.197-1.152h11.065z" class="F"/><path d="M103.123 140.764c0 .399-.068.786-.197 1.151H92.255c-.129-.365-.197-.752-.197-1.151h11.065z" class="L"/><path d="M109.177 122.113c0-6.389-5.178-11.568-11.57-11.578a11.61 11.61 0 0 0-11.602 11.366c-.049 2.754.864 5.293 2.427 7.305 1.977 2.544 3.075 5.662 3.075 8.882v.057h12.167v-.057c0-3.226 1.105-6.343 3.083-8.892a11.53 11.53 0 0 0 2.42-7.083z" class="B"/><path d="M97.719 122.212a8.4 8.4 0 0 0-.809 1.87c-.341 1.158-.388 2.267-.124 2.966.19.506.514.768.989.804.49.037.799-.164.972-.633.392-1.066-.084-3.244-1.027-5.007zm1.626 14.623a.3.3 0 0 1-.097-.016c-.154-.054-.236-.222-.183-.377l2.373-7.978c1.76-7.099.854-8.253.383-8.42-1.385-.49-2.488.235-3.169.93a5.88 5.88 0 0 0-.573.685c.296.511.563 1.076.786 1.672.614 1.638.777 3.168.436 4.092-.263.714-.821 1.076-1.572 1.019-.709-.054-1.227-.463-1.499-1.185-.312-.829-.272-2.046.111-3.341.241-.818.603-1.606 1.04-2.284-.409-.646-.882-1.202-1.395-1.575-.763-.555-1.479-.58-2.129-.072-1.342 1.048-1.393 4.2-.148 9.116.96 3.789 2.368 7.293 2.382 7.328.061.151-.012.323-.164.385s-.324-.012-.385-.163c-.014-.036-1.436-3.571-2.405-7.401-1.327-5.236-1.207-8.51.357-9.732.859-.671 1.868-.649 2.842.061.488.355.971.889 1.408 1.54.156-.202.318-.389.486-.56 1.133-1.156 2.479-1.536 3.79-1.073.815.289 1.15 1.385 1.023 3.354-.094 1.451-.441 3.392-1.03 5.77l-2.388 8.027c-.043.122-.157.198-.28.198z" class="J"/><path d="M102.603 141.142H92.581a2.23 2.23 0 0 1-2.229-2.228 2.23 2.23 0 0 1 2.229-2.226h10.022a2.23 2.23 0 0 1 2.229 2.226 2.23 2.23 0 0 1-2.229 2.228z" class="F"/><g class="B"><path d="M117.275 122.589h-3.788c-.539 0-.976-.437-.976-.975s.437-.976.976-.976h3.788c.54 0 .977.437.977.976s-.437.975-.977.975zm-35.579 0h-3.789c-.539 0-.976-.437-.976-.975s.437-.976.976-.976h3.789c.539 0 .976.437.976.976s-.437.975-.976.975zm2.407-8.01l-3.015-2.292c-.429-.327-.512-.938-.186-1.367s.939-.513 1.368-.186l3.015 2.292c.429.327.512.939.186 1.367s-.939.513-1.368.186zm26.783 0l3.015-2.292c.429-.327.512-.938.186-1.367s-.94-.513-1.369-.186l-3.014 2.292c-.43.327-.513.939-.186 1.367s.939.513 1.368.186zm-26.783 15.279l-3.015 2.292c-.429.325-.512.938-.186 1.366a.98.98 0 0 0 1.368.186l3.015-2.291a.98.98 0 0 0 .186-1.369c-.326-.43-.939-.511-1.368-.184zm26.783 0l3.015 2.292c.429.325.512.938.186 1.366a.98.98 0 0 1-1.369.186l-3.014-2.291c-.43-.327-.513-.939-.186-1.369s.939-.511 1.368-.184z"/></g></g><defs><clipPath id="A"><path d="M0 0h370v277.278H0z" class="B"/></clipPath><path id="B" d="M261.885 268.894a1.73 1.73 0 0 1-1.729-1.728v-30.615h3.458v30.615a1.73 1.73 0 0 1-1.729 1.728z"/><path id="C" d="M167.725 94.151c-.185.184-.485.184-.668 0a.47.47 0 0 1 0-.667c.183-.184.483-.184.668 0a.47.47 0 0 1 0 .667z"/></defs></svg>