<svg xmlns="http://www.w3.org/2000/svg" width="67" height="67" fill="#0a7f2e" xmlns:v="https://vecta.io/nano"><path d="M47.895 0H19.106c-2.706 0-4.907 2.201-4.907 4.907v57.186c0 2.706 2.201 4.907 4.907 4.907h28.789c2.706 0 4.907-2.201 4.907-4.907V4.907C52.802 2.201 50.6 0 47.895 0zm2.944 53.26H23.031a.982.982 0 1 0 0 1.963h27.808v6.87a2.95 2.95 0 0 1-2.944 2.944H19.106a2.95 2.95 0 0 1-2.944-2.944v-6.87h2.944a.982.982 0 1 0 0-1.963h-2.944V9.814H50.84V53.26zm0-45.408H16.161V4.907a2.95 2.95 0 0 1 2.944-2.944h28.789a2.95 2.95 0 0 1 2.944 2.944v2.944zM37.426 3.926H33.5a.982.982 0 1 0 0 1.963h3.926a.982.982 0 1 0 0-1.963zM33.5 57.186a2.95 2.95 0 0 0-2.944 2.944 2.95 2.95 0 0 0 2.944 2.944 2.95 2.95 0 0 0 2.944-2.944 2.95 2.95 0 0 0-2.944-2.944zm0 3.926a.98.98 0 1 1 0-1.962.98.98 0 1 1 0 1.962zM29.574 5.889a.982.982 0 1 0 0-1.963.982.982 0 1 0 0 1.963z"/></svg>