<svg xmlns="http://www.w3.org/2000/svg" width="67" height="67" fill="none" xmlns:v="https://vecta.io/nano"><g clip-path="url(#A)" fill="#0a7f2e"><path d="M6.006 36.662a.98.98 0 0 0 .981-.981V10.763a.34.34 0 0 1 .34-.34h0 47.588.001a.34.34 0 0 1 .34.34v11.831a.982.982 0 1 0 1.963 0V10.763c0-.919-.542-1.711-1.322-2.081V6.533c0-.919-.542-1.711-1.322-2.081V2.303c0-1.27-1.033-2.303-2.303-2.303H9.971c-1.27 0-2.303 1.033-2.303 2.303v2.149c-.78.369-1.322 1.162-1.322 2.081v2.149c-.78.369-1.321 1.162-1.321 2.08V35.68a.98.98 0 0 0 .982.981zM8.308 6.533a.34.34 0 0 1 .34-.34h44.944a.34.34 0 0 1 .34.34V8.46H8.308V6.533zm1.322-4.23a.34.34 0 0 1 .34-.34h42.301a.34.34 0 0 1 .34.34V4.23H9.63V2.303zm33.263 30.738a12.53 12.53 0 0 0-8.92-3.695 12.53 12.53 0 0 0-8.92 3.695 12.53 12.53 0 0 0-3.695 8.92 12.53 12.53 0 0 0 3.695 8.92 12.53 12.53 0 0 0 8.92 3.695 12.53 12.53 0 0 0 8.92-3.695 12.53 12.53 0 0 0 3.695-8.919 12.53 12.53 0 0 0-3.695-8.92zm-1.388 16.451a10.58 10.58 0 0 1-7.532 3.12 10.58 10.58 0 0 1-7.532-3.12 10.58 10.58 0 0 1-3.12-7.532 10.58 10.58 0 0 1 3.12-7.532 10.58 10.58 0 0 1 7.532-3.12 10.58 10.58 0 0 1 7.532 3.12 10.58 10.58 0 0 1 3.12 7.532 10.58 10.58 0 0 1-3.12 7.532zm22.829 15.833l-4.471-4.472V48.834a.98.98 0 0 0-.981-.981H57.22V27.174a.982.982 0 0 0-1.963 0v20.678h-5.504c2.226-5.988.937-12.998-3.868-17.803-5.825-5.825-14.891-6.483-21.448-1.974V13.672a.98.98 0 0 0-.981-.981H10.235a.98.98 0 0 0-.981.981v16.392a.98.98 0 0 0 .981.981h10.91c-4.044 4.745-5.027 11.221-2.95 16.808H6.987V40.26a.982.982 0 1 0-1.963 0v7.592H3.361a.98.98 0 0 0-.981.99l.147 17.185a.98.98 0 0 0 .981.973h5.831a.981.981 0 1 0 0-1.963H4.481l-.13-15.222h14.72c.768 1.46 1.765 2.829 2.991 4.056a16.79 16.79 0 0 0 11.911 4.926c2.715 0 5.43-.651 7.888-1.952l2.822 2.822a.98.98 0 0 0 1.388 0l.428-.428 1.977 1.977-.428.428a.98.98 0 0 0 0 1.388l2.006 2.006H13.919a.981.981 0 1 0 0 1.963h38.504a.98.98 0 0 0 .694-1.675l-2.987-2.987 4.22-4.22 8.596 8.596a.98.98 0 1 0 1.388-1.388zM11.217 14.653h11.256v14.429H11.217V14.653zm12.234 37.83c-5.802-5.802-5.802-15.243 0-21.045 2.901-2.901 6.712-4.352 10.523-4.352s7.621 1.45 10.523 4.352c5.802 5.802 5.802 15.243 0 21.045s-15.243 5.802-21.045 0zm20.136 3.311a16.81 16.81 0 0 0 2.297-1.923 16.89 16.89 0 0 0 1.923-2.297l1.791 1.79-4.22 4.22-1.79-1.79zm4.3 2.057l1.977-1.977 1.977 1.977-1.977 1.977-1.977-1.977zm5.77-1.816l-.428.428-1.977-1.977.428-.428a.98.98 0 0 0 0-1.388l-2.822-2.822.018-.033H57.9v9.075l-2.855-2.855a.98.98 0 0 0-1.388 0zm-1.65-43.345H27.948a.981.981 0 0 0 0 1.963h24.059a.982.982 0 1 0 0-1.963zm.981 5.212a.98.98 0 0 0-.981-.981H27.948a.982.982 0 0 0 0 1.963h24.059a.98.98 0 0 0 .981-.982zM27.949 21.15a.982.982 0 0 0 0 1.963h16.127a.982.982 0 0 0 0-1.963H27.949z"/></g><defs><clipPath id="A"><path fill="#fff" d="M0 0h67v67H0z"/></clipPath></defs></svg>