<svg xmlns="http://www.w3.org/2000/svg" width="67" height="67" fill="none" xmlns:v="https://vecta.io/nano"><g clip-path="url(#A)" fill="#0a7f2e"><path d="M59.284 47.283c-.367-.152-.79-.068-1.072.213L47.465 58.243c-.281.281-.365.704-.213 1.072s.511.607.909.607h10.747c.543 0 .983-.44.983-.983V48.191c0-.398-.24-.756-.607-.908zm-8.749 10.672l7.39-7.389v7.389h-7.39zM66.393 31.52c-.368-.152-.79-.068-1.072.213l-2.945 2.945V14.653c0-.543-.44-.983-.983-.983h-7.556l2.743-2.743 2.644-2.644a2.98 2.98 0 0 0 .878-2.12 2.98 2.98 0 0 0-.878-2.12L56.167.985a2.98 2.98 0 0 0-2.12-.878 2.98 2.98 0 0 0-2.12.878L49.283 3.63l-3.195 3.195-6.844 6.844H8.718V3.94c0-.543-.44-.983-.983-.983C3.47 2.957 0 6.427 0 10.692V52.46c0 .073.008.143.023.211.136 1.81.919 3.491 2.227 4.767 1.399 1.364 3.245 2.115 5.199 2.115H37.5l-5.66 5.66c-.281.281-.365.704-.213 1.072s.511.607.909.607h33.481c.543 0 .983-.44.983-.983V32.428c0-.398-.24-.756-.607-.909zM53.318 2.376c.402-.402 1.057-.402 1.459 0l3.056 3.056c.402.402.402 1.057 0 1.459L55.884 8.84l-4.516-4.515 1.949-1.949zm-3.34 3.34l4.515 4.515-1.804 1.804-4.515-4.515 1.804-1.804zm15.055 37.763h-1.814c-.543 0-.983.44-.983.983s.44.983.983.983h1.814v2.963h-1.814c-.543 0-.983.44-.983.983s.44.983.983.983h1.814v2.963h-1.814c-.543 0-.983.44-.983.983s.44.983.983.983h1.814v2.963h-1.814c-.543 0-.983.44-.983.983s.44.983.983.983h1.814v4.69H34.91l9.933-9.933c.384-.384.384-1.007 0-1.391a.99.99 0 0 0-.141-.116c-.383-.262-.91-.224-1.25.116l-3.986 3.986H7.45a5.45 5.45 0 0 1-5.478-5.306 5.78 5.78 0 0 1 .043-.555 5.18 5.18 0 0 1 .04-.263l.005-.029a5.64 5.64 0 0 1 .046-.229l.015-.063a5.32 5.32 0 0 1 .048-.192l.029-.103.045-.149.05-.147.037-.102a5.71 5.71 0 0 1 .076-.191l.023-.055a5.85 5.85 0 0 1 .105-.233c.774-1.602 2.253-2.788 4.029-3.157.096-.02.178-.034.261-.047l.041-.007a5.8 5.8 0 0 1 .226-.029l.064-.008a5.71 5.71 0 0 1 .22-.017l.07-.005c.096-.005.193-.007.291-.007.543 0 .983-.44.983-.983v-7.13c0-.543-.44-.983-.983-.983s-.983.44-.983.983v6.209a7.68 7.68 0 0 0-4.417 2.138c-.128.125-.249.255-.367.387v-36.62a5.78 5.78 0 0 1 4.784-5.684v9.645 19.992h0c0 .543.44.983.983.983s.983-.44.983-.983h0V15.636h28.559l-5.436 5.436c-.384.384-.384 1.007 0 1.391s1.007.384 1.391 0l7.115-7.115 6.437-6.437 4.515 4.515-.53.53-19.83 19.83-4.515-4.515 3.909-3.908c.384-.384.384-1.007 0-1.391s-1.007-.384-1.391 0l-4.604 4.604a.99.99 0 0 0-.069.077c-.007.009-.014.019-.02.028-.014.018-.027.037-.04.056l-.021.034a.92.92 0 0 0-.031.056c-.006.012-.012.025-.018.038a.71.71 0 0 0-.024.058c-.003.007-.006.014-.008.02l-1.916 5.427-1.306 3.701c-.017.049-.03.099-.039.15h-3.27c-.543 0-.983.44-.983.983s.44.983.983.983h27.234c.543 0 .983-.44.983-.983s-.44-.983-.983-.983H25.268l5.997-2.117a1.43 1.43 0 0 0 .084-.035l.027-.012a.97.97 0 0 0 .07-.039c.007-.004.015-.009.022-.013.024-.015.047-.032.069-.049.006-.004.012-.008.017-.013.027-.022.054-.046.079-.071L51.87 15.636h8.539v21.009L46.342 50.712c-.384.384-.384 1.007 0 1.391a.96.96 0 0 0 .075.068.98.98 0 0 0 1.241 0 .96.96 0 0 0 .075-.068l17.301-17.301v8.676zM29.139 34.77l-2.817.994-1.877-1.877.994-2.817 3.699 3.699z"/></g><defs><clipPath id="A"><path fill="#fff" d="M0 0h67v67H0z"/></clipPath></defs></svg>