<svg xmlns="http://www.w3.org/2000/svg" xmlns:xlink="http://www.w3.org/1999/xlink" width="67" height="67" fill="none" xmlns:v="https://vecta.io/nano"><g fill="#0a7f2e"><path d="M62.093 9.356h-3.436a.981.981 0 1 0 0 1.963h3.436a2.95 2.95 0 0 1 2.944 2.944v4.515H1.963v-4.515a2.95 2.95 0 0 1 2.944-2.944h49.44a.982.982 0 0 0 0-1.963H4.907C2.201 9.356 0 11.558 0 14.264v10.82a.982.982 0 0 0 1.963 0v-4.342h63.074v25.304a.981.981 0 1 0 1.963 0V14.264c0-2.706-2.201-4.907-4.907-4.907zm3.926 39.846a.98.98 0 0 0-.982.982v2.553a2.95 2.95 0 0 1-2.944 2.944H4.907a2.95 2.95 0 0 1-2.944-2.944V29.295a.982.982 0 1 0-1.963 0v23.441c0 2.706 2.201 4.907 4.907 4.907h57.186c2.706 0 4.907-2.201 4.907-4.907v-2.553a.98.98 0 0 0-.981-.982zM14.195 30.681a.98.98 0 0 0-1.388 0L6.91 36.579a.98.98 0 0 0 0 1.388l5.82 5.82a.98.98 0 1 0 1.388-1.388l-5.126-5.126 5.204-5.204a.98.98 0 0 0 0-1.388zm13.2 13.106a.98.98 0 0 0 1.388 0l5.82-5.82a.98.98 0 0 0 0-1.388l-5.898-5.898a.981.981 0 1 0-1.388 1.388l5.204 5.204-5.126 5.126a.98.98 0 0 0 0 1.388zm-10.122 3.615a.98.98 0 0 0 .918-.633l6.974-18.372a.981.981 0 1 0-1.835-.697l-6.974 18.373a.98.98 0 0 0 .917 1.33z"/><use xlink:href="#B"/><use xlink:href="#B" x="7.611"/><use xlink:href="#B" x="15.222"/><path d="M43.903 31.716h6.15a2.95 2.95 0 0 0 2.944-2.944 2.95 2.95 0 0 0-2.944-2.944h-6.15a2.95 2.95 0 0 0-2.944 2.944 2.95 2.95 0 0 0 2.944 2.944zm0-3.926h6.15c.541 0 .982.44.982.981s-.44.982-.982.982h-6.15c-.541 0-.981-.44-.981-.982a.98.98 0 0 1 .981-.981zm0 11.778H60.13a2.95 2.95 0 0 0 2.944-2.944 2.95 2.95 0 0 0-2.944-2.944H43.903a2.95 2.95 0 0 0-2.944 2.944 2.95 2.95 0 0 0 2.944 2.944zm0-3.926H60.13a.98.98 0 1 1 0 1.962H43.903a.98.98 0 1 1 0-1.962zm0 11.777H55.31a2.95 2.95 0 0 0 2.944-2.944 2.95 2.95 0 0 0-2.944-2.944H43.903a2.95 2.95 0 0 0-2.944 2.944 2.95 2.95 0 0 0 2.944 2.944zm0-3.926H55.31a.98.98 0 1 1 0 1.962H43.903a.98.98 0 1 1 0-1.962z"/></g><defs ><path id="B" d="M4.319 15.097a2.95 2.95 0 0 0 2.944 2.944 2.95 2.95 0 0 0 2.944-2.944 2.95 2.95 0 0 0-2.944-2.944 2.95 2.95 0 0 0-2.944 2.944zm3.926 0c0 .541-.44.982-.981.982s-.981-.44-.981-.982.44-.981.981-.981.981.44.981.981z"/></defs></svg>