<svg xmlns="http://www.w3.org/2000/svg" width="20" height="20" fill="#0a7f2e" xmlns:v="https://vecta.io/nano"><path d="M9.297 13.593a.72.72 0 0 1-.553-.251L4.95 9.221c-.276-.301-.251-.779.05-1.055s.779-.251 1.055.05l3.266 3.543 9.045-9.02c.301-.301.779-.301 1.055 0s.302.779 0 1.055l-9.598 9.573c-.126.151-.327.226-.528.226zM10 20A10.03 10.03 0 0 1 0 10 10.03 10.03 0 0 1 10 0a.74.74 0 0 1 .754.754.74.74 0 0 1-.754.754c-4.673 0-8.492 3.819-8.492 8.492S5.327 18.493 10 18.493s8.493-3.819 8.493-8.493a.74.74 0 0 1 .754-.754A.74.74 0 0 1 20 10a10.03 10.03 0 0 1-10 10z"/></svg>