<svg xmlns="http://www.w3.org/2000/svg" width="67" height="67" fill="none" xmlns:v="https://vecta.io/nano"><g clip-path="url(#A)" fill="#0a7f2e"><path d="M66.017 65.033h-6.359V26.158c0-.543-.44-.983-.983-.983h-10.49c-.543 0-.983.44-.983.983v38.876h-7.474V37.696c0-.543-.44-.983-.983-.983h-10.49c-.543 0-.983.44-.983.983v27.338h-7.473V42.94c0-.543-.44-.983-.983-.983H8.326c-.543 0-.983.44-.983.983v22.093H.983c-.543 0-.983.44-.983.983S.44 67 .983 67h65.033c.543 0 .983-.44.983-.983s-.44-.983-.983-.983zm-48.185 0H9.309v-21.11h8.522v21.11zm19.93 0H29.24V38.679h8.522v26.354zm19.93 0H49.17V27.141h8.523v37.892zM63.86.771a3.08 3.08 0 0 0-2.422-.747l-8.391 1.049a3.11 3.11 0 0 0-2.675 3.439c.211 1.685 1.752 2.886 3.44 2.675l.685-.085c-10.3 11.942-22.544 18.113-31.196 21.215-10.788 3.868-19.185 4.198-19.267 4.201-1.696.053-3.035 1.476-2.983 3.173.051 1.675 1.403 2.988 3.079 2.988l.094-.001c.373-.011 9.275-.326 21.001-4.504 6.593-2.349 12.796-5.468 18.437-9.269.45-.303.569-.915.266-1.365s-.914-.57-1.365-.266c-5.505 3.709-11.56 6.753-17.998 9.047-11.439 4.076-20.04 4.38-20.4 4.391l-.036.001a1.11 1.11 0 0 1-1.113-1.081c-.019-.614.466-1.129 1.08-1.148.086-.003 8.722-.32 19.869-4.315 9.338-3.347 22.755-10.183 33.647-23.735.542-.675-.031-1.699-.888-1.592l-3.155.394a1.13 1.13 0 0 1-1.217-.825c-.167-.643.282-1.304.94-1.387l8.392-1.049a1.13 1.13 0 0 1 1.253 1.106v8.391c0 .615-.5 1.115-1.115 1.115s-1.114-.5-1.114-1.115V8.928a1 1 0 0 0-.636-.92 1 1 0 0 0-1.11.298 76.03 76.03 0 0 1-12.43 12.104c-.43.332-.51.949-.178 1.379s.95.509 1.379.178a77.97 77.97 0 0 0 11.01-10.356c.073 1.635 1.425 2.943 3.078 2.943 1.699 0 3.081-1.382 3.081-3.081V3.081c0-.883-.38-1.725-1.042-2.31z"/></g><defs><clipPath id="A"><path fill="#fff" d="M0 0h67v67H0z"/></clipPath></defs></svg>