<svg xmlns="http://www.w3.org/2000/svg" width="1042" height="976" fill="none" xmlns:v="https://vecta.io/nano"><style><![CDATA[.B{fill:#75b789}.C{fill:#699dee}.D{fill:#e49963}.E{fill:#d86713}.F{fill:#0a7f2e}.G{fill:#163560}.H{fill:#cfe1fd}.I{fill:#f1a34f}.J{fill:#afcdfb}.K{fill:#e9f3fe}.L{fill:#233862}.M{fill:#2b478b}.N{fill:#dd9891}]]></style><g class="F"><path d="M761.43 273.449C940.563 279.048 1023.12 93.482 1042 0v870.836S189.501 1037.35 58.205 951.321 39.681 732.962 179.606 413.422C354.513 13.997 537.513 266.45 761.43 273.449z" fill-opacity=".05"/><path d="M639.105 781.198h59.801V558.566h-59.801v222.632z"/></g><path d="M611.182 781.198h43.944V558.566h-43.944v222.632z" class="B"/><path d="M643.699 757.613a9.81 9.81 0 0 1-19.619 0c0-5.414 4.395-9.8 9.809-9.8a9.81 9.81 0 0 1 9.81 9.8z" class="F"/><path d="M726.824 781.198h59.802V558.567h-59.802v222.631z" class="C"/><path d="M698.904 781.198h43.941V558.566h-43.941v222.632z" class="J"/><path d="M731.418 757.614c0 5.41-4.388 9.799-9.805 9.799a9.81 9.81 0 0 1-9.81-9.799c0-5.415 4.393-9.801 9.81-9.801s9.805 4.386 9.805 9.801z" class="C"/><path d="M731.418 698.078h-19.615V581.224h19.615v116.854z" fill="#fff"/><path d="M813.521 781.198h59.801V558.567h-59.801v222.631z" class="E"/><path d="M785.603 781.198h43.938V558.565h-43.938v222.633z" class="I"/><path d="M818.12 757.613a9.81 9.81 0 0 1-9.812 9.8c-5.419 0-9.806-4.39-9.806-9.8a9.8 9.8 0 0 1 9.806-9.8c5.419 0 9.812 4.385 9.812 9.8z" class="E"/><path d="M818.12 698.077h-19.618V581.223h19.618v116.854zm-175.161 1.496h-19.62V582.72h19.62v116.853z" fill="#fff"/><path d="M495.545 515.424l21.088 250.469s2.21 15.183-9.096 15.211h-92.509s13.99-3.162 13.818-10.275c-.198-8.381-24.642-257.775-24.642-257.775l91.341 2.37z" class="E"/><path d="M409.03 776.558h92.359c7.89-.098 9.272-7.008 9.339-11.477.032-2.145-.241-3.731-.241-3.731l-.546-6.509-1.4-16.591-1.233-14.66-1.588-18.836-1.336-15.902-14.981-177.974-91.342-2.368 17.578 180.342 2.301 24.157.673 7.088 1.829 19.617.779 8.541 1.482 18.032c.003.725-.06 1.401-.181 2.029-1.499 7.98-12.117 8.242-13.492 8.242z" fill="#ee9849"/><path d="M278.839 379.13h438.542L666.02 585.232l-7.03 28.229-23.919 95.996H190.673l88.166-330.327z" class="I"/><path d="M717.378 379.131l7.118 2.372-79.968 335.125-9.463-7.168 82.313-330.329z" fill="#ee9849"/><path d="M644.529 716.628h-441.66l-12.196-7.167h444.393l9.463 7.167z" class="E"/><path d="M393.807 781.198h95.627v-4.539h-95.627v4.539z" class="I"/><path d="M418.118 716.627l.495 3.469 89.929 18.154-1.232-14.66-.59-6.963h-88.602z" class="E"/><path d="M479.22 776.659h-21.412l-48.782-.101c1.375 0 11.993-.261 13.495-8.241.114-.611.178-1.263.178-1.96v-.07c-.008-1.244-.55-7.785-1.478-18.03l89.505 16.824c-.068 4.469-1.45 11.379-9.339 11.477l-22.167.101z" fill="#e58433"/><path d="M469.258 776.662c-3.748 0-7.597 0-11.449-.003h21.411l-9.962.003z" fill="#e78b37"/><path d="M635.071 709.456l-.005.004.005-.004z" fill="#bba767"/><path d="M635.068 709.457l-189.44-64.894 205.619-.038-16.183 64.935" fill="#e78b37"/><path d="M635.07 709.457l-.005.004 2.963-11.885-2.958 11.881z" fill="#e58433"/><path d="M278.839 379.13h438.542l-66.094 265.394-443.603.087 71.155-265.481z" class="I"/><path d="M401.089 678.171c1.267-6.513 7.576-11.791 14.095-11.791s10.772 5.278 9.505 11.791-7.576 11.787-14.094 11.787-10.772-5.278-9.506-11.787z" class="E"/><path d="M228.366 633.107h410.609l46.5-185.071 3.562-14.192 3.046-12.106 7.13-28.387H294.522l-7.831 28.387-3.34 12.106-3.916 14.192-51.069 185.071z" class="K"/><path d="M294.522 393.351h404.692l-7.131 28.387H286.691l7.831-28.387z" class="B"/><path d="M679.807 402.632c1.964 0 3.156 1.586 2.668 3.548s-2.48 3.549-4.439 3.549-3.156-1.591-2.664-3.549 2.475-3.548 4.435-3.548zm-11.803-.003c1.961 0 3.156 1.588 2.667 3.552s-2.472 3.547-4.433 3.547-3.161-1.588-2.672-3.547 2.477-3.552 4.438-3.552zm-17.143 3.551c.49-1.961 2.475-3.548 4.437-3.548s3.155 1.587 2.661 3.548c-.485 1.961-2.474 3.548-4.432 3.548s-3.155-1.587-2.666-3.548z" class="K"/><path d="M80.136 755.682s-5.227 4.839-4.207 8.276 5.737 5.732 6.374 9.936 3.187 6.495 5.482 6.495h10.94s1.689-2.956-2.391-3.849-5.617-5.829-5.362-10.417-.383-10.696-.383-10.696l-8.669-2.039-1.785 2.294zm94.762 24.7h-29.051c-.252-.052-.444-.108-.566-.171-1.937-.965-1.333-8.367-1.099-10.661l.077-.676s10.201-8.148 11.602-1.907c.043.195.096.387.152.575 1.764 5.836 9.682 8.493 14.254 9.232 3.487.565 4.394 2.59 4.631 3.608z" class="L"/><path d="M169 613.62l-3.348 41.662-5.707 76.03c-.506 12.484-2.535 32.452-2.535 32.452s-4.811 4.745-14.44 2.743c0 0-8.58-28.502-11.031-58.661l-.114-1.493L126 611l43 2.62z" class="C"/><path d="M169.054 613.287l-3.37 42.516-33.931 53.64-.115-1.524-5.862-97.306 43.278 2.674z" fill="#4a75cb"/><path d="M161.98 615.581s-27.918 69.922-46.276 102.783L91.61 760.395s-10.517-4.204-11.474-7.07c0 0 7.02-63.437 19.314-78.902 6.947-8.74 15.106-34.961 15.489-44.133s2.486-27.319 2.486-27.319l44.555 12.61z" class="C"/><g fill="#ffb27d"><path d="M190.214 596.278l1.596 3.176s8.114 1.133 5.881 9.584c0 0-1.204 3.479-3.441 2.377s-1.136-1.007-4.343-2.485-5.063-4.327-4.346-6.938l-.514-2.765 5.167-2.949zm-42.553-88.633c1.242-7.321 1.28-11.661 1.28-11.661l-14.165-11.404c.526 15.681-9.533 23.222-9.533 23.222s18.877 9.284 29.788 5.847c0 0-2.687-3.431-7.37-6.004z"/><path d="M152.277 495.726s-18.021 2.991-19.712-8.249-5.157-18.425 6.278-20.809 14.32 1.565 15.797 5.18 2.281 22.811-2.363 23.878z"/></g><path d="M132.684 488.251s.364-15.057 16.784-17.473c11.246-1.656 4.435-11.045 3.15-12.53l-17.398 3.567c-18.469 4.051-4.488 24.198-2.536 26.436z" class="G"/><path d="M188.323 600.695c2.409-2.472 4.198-5.686 4.198-5.686l-22.14-28.051c-1.664-2.636-14.099-44.907-14.099-44.907l-31.445-6.366 30.596 60.696c7.185 10.898 28.681 27.12 28.681 27.12s2.317-.868 4.209-2.806z" class="F"/><path d="M170.257 614.894c-.328.276-.709.436-1.146.436-4.097-.052-16.044 2.221-26.153 1.182-8.522-.816-16.065-3.34-24.165-6.966-1.076-.481-3.551-1.802-3.496-3.005.037-1.314.167-3.221.332-5.623.573-8.353 1.572-22.721.598-39.298a172.02 172.02 0 0 1-.278-9.162c-.084-22.462 4.298-42.334 13.257-49.021.766-.547 5.54 1.859 9.857 3.985 3.988 1.966 6.778 1.921 10.546 1.158l4.968 3.59c4.589 4.257 9.616 10.045 11.801 18.83 1.859 7.478 2.95 20.963 3.551 34.933l.548 18.777v.22c.053.599.053 1.255.053 1.858.22 15.552 0 27.887-.273 28.106z" class="B"/><path d="M115.629 600.918c.573-8.353 1.572-22.72.598-39.298a172.02 172.02 0 0 1-.278-9.162c3.732-9.043 6.782-15.604 6.782-15.604h9.408s6.896 47.065-16.51 64.064z" class="F"/><path d="M97.326 603.843l-1.786 3.075s3.499 7.401-4.801 10.169c0 0-3.571.9-3.876-1.575s.221-1.499-.297-4.993.847-6.599 3.425-7.432l2.034-1.946 5.301 2.702z" fill="#ffb27d"/><path d="M92.592 604.683c3.388.659 7.06.394 7.06.394l11.351-33.876c1.294-2.835 29.872-36.394 29.872-36.394l-11.905-29.766s-30.91 51.584-34.049 58.832c-5.186 11.979-6.986 38.834-6.986 38.834s1.996 1.46 4.657 1.976z" class="B"/><path d="M453.447 591.281h-191.69l65.529-264.872h191.693l-65.532 264.872z" class="J"/><path d="M424.816 574.756H233.124l65.533-264.873h191.691l-65.532 264.873z" fill="#c0d8f9"/><path d="M393.788 555.868H202.096L267.627 291h191.691l-65.53 264.868z" fill="#d4e3f4"/><path d="M486.438 326.415L425.79 573.172l-159.363 1.586 164.174 3.608 55.837-251.951zm-31.836-16.532l-57.617 244.401-159.364 1.583 162.066 4.002 54.915-249.986z" class="C"/><path d="M313.923 382.792h-53.607l16.782-67.283h53.61l-16.785 67.283z" class="K"/><path d="M436.314 324.806h-96.051l2.363-9.297h96.05l-2.362 9.297zm-4.331 19.081h-96.054l2.363-9.295h96.053l-2.362 9.295zm-4.53 19.084H331.4l2.366-9.295h96.049l-2.362 9.295zm-5.318 19.084h-96.05l2.363-9.295h96.049l-2.362 9.295zm0 19.872h-175.83l2.364-9.298h175.828l-2.362 9.298zm-4.693 19.868h-175.83l2.363-9.294h175.829l-2.362 9.294zm-6.498 22.379H235.113l2.363-9.295h175.831l-2.363 9.295zm-5.908 19.321h-175.83l2.363-9.294h175.83l-2.363 9.294z" class="J"/><path d="M319.539 393.428c-.056.174-.129.345-.223.498-1.058 1.701-18.484 1.785-20.473.359-.89-.641-1.162-9.448-1.19-18.993-.035-11.798.3-24.722.3-24.722s6.818 3.163 7.153 7.053-2.537 27.274-.544 28.703 11.177 1.614 14.241 2.514c0 0 1.301 2.799.736 4.588z" class="B"/><path d="M301.913 323.743c-1.194-1.239-3.141-1.356-4.398-1.445.362-.287 1.009-.326 1.009-.326-.753-.217-2.575.326-2.575.326s-6.089-4.18-10.219 3.982c0 0 .604-.575 1.414-1.217-2.384 4.695-1.588 12.368 3.739 14.405 3.464 1.323 23.249-3.013 11.03-15.725z" class="G"/><path d="M298.221 352.523c.032.017-3.684 1.373-6.211.32-2.38-.993-3.573-4.392-3.538-4.396 1.067-.073 1.556-1.464 2.334-7.624l.457.153 7.73 2.597-.813 4.818c-.262 1.974-.384 3.86.041 4.132z" class="D"/><path d="M298.993 343.573l-.814 4.818c-4.424-.697-6.246-5.048-6.916-7.415l7.73 2.597z" fill="#d68d5d"/><path d="M290.56 340.005s-1.855-3.974-2.003-7.187c-.109-2.293 2.112-10.455 10.318-8.176 0 0 2.397.553 4.478 2.388 1.657 1.462 3.931 4.443.063 11.316l-1.079 2.353-11.777-.694z" class="G"/><path d="M300.186 345.989s-10.525-1.188-9.682-7.724.049-11.095 6.804-10.613 7.738 3.144 7.99 5.394-2.35 13.082-5.112 12.943z" class="D"/><path d="M300.88 360.796c-.087-.771 1.557-1.126 1.857-.412.558 1.336.499 2.922.624 4.205.363 3.674-1.095 8.447-1.095 8.447l-1.386-12.24z" class="F"/><path d="M305.456 329.371c-1.364-2.173-2.646-1.907-3.412-1.405-1.828-3.683-9.64.288-9.64.288-1.311 4.6-5.046 6.847-5.046 6.847s1.764 1.432 6.325.867c3.585-.442 6.748-5.052 7.935-6.997.552.635 1.701 2.085 1.937 3.391.306 1.735.098 5.193 1.114 5.203 0 0 2.839-4.929.787-8.194z" class="G"/><path d="M298.368 341.726s.087.854 2.17.993c0 0 1.752.119 1.815-.802 0 0-1.598-.864-3.985-.191z" fill="#fff"/><path d="M319.539 393.428c-.056.174-.129.345-.223.498-1.058 1.701-18.485 1.785-20.474.359-.889-.641-1.179-11.585 1.274-21.026.583 5.655-.485 16.965 2.481 17.885 3.357 1.049 12.531 1.07 16.942 2.284z" class="F"/><path d="M302.852 373.559c-6.916 19.949-3.765 23.56-6.236 25.286l-2.09.61c-2.565 1.698-2.307-.728-9.959 1.468-3.647 1.049-8.329 2.458-12.346 3.127-1.512.251-2.93.401-4.164.387-2.363-.031-4.048-.659-4.411-2.304-1.054-4.78 8.424-15.88 7.521-24.411l-.02-.22c-.049-.743.032-1.576.224-2.479.968-4.567 4.757-10.898 8.524-16.236 4.159-5.888 8.287-10.563 8.573-10.34 8.127 6.359 9.485 2.123 9.485 2.123s7.258 16.184 4.899 22.989z" class="B"/><path d="M295.262 399.256c-2.561 1.698-3.043-.53-10.695 1.667-3.647 1.049-8.329 2.457-12.346 3.127-2.019.09-3.528.202-4.164.387-2.363-.032-4.048-.659-4.411-2.305-1.054-4.779 8.424-15.88 7.521-24.411l-.02-.219c-.064-.837.019-1.656.224-2.479.872-3.452 3.948-6.924 7.592-12.087 1.688 2.318 16.69 1.827 10.569 21.779-1.877 6.115 5.448 9.57 5.73 14.541z" class="F"/><path d="M288.471 348.447s-11.967-1.388-14.855 4.093-4.855 25.802-2.517 32.297 19.058 17.02 20.991 17.606 3.563-2.298 3.525-2.639-16.696-17.805-16.411-19.356 9.267-32.001 9.267-32.001z" class="B"/><path d="M688.213 748.992l-4.271 17.985-6.403-.038-.236-17.947h10.91zm-53.854.767l-12.163 17.219-4.737-6.081 7.319-13.506 9.581 2.368z" class="D"/><path d="M665.978 512.659c2.213-1.255 4.858-1.392 6.712-1.283-.476-.492-1.417-.671-1.417-.671 1.15-.17 3.712.968 3.712.968 15.985-6.152 18.494 17.355 18.159 22.816s5.368 7.244 13.681 11.547c15.863 8.211 17.256 19.203 17.256 19.203-.121.074-.252.157-.388.252-.786-1.332-2.407-3.836-3.775-4.212.053.122 1.615 3.444 2.198 5.348-4.678 3.556-13.433 11.435-19.533 17.023.029-1.091-.019-2.642-.417-3.461l-.752 4.535-5.518 5.108c.403-4.414-19.979-27.702-30.612-34.675-2.586-3.807-3.508-10.535-3.576-11.064.446 5.333 1.358 8.324 2.174 10.007-9.002-8.278-3.761-38.115 2.096-41.441z" class="G"/><path d="M665.916 555.502c-.055.024 5.13 2.715 9.035 1.649 3.671-1.001 6.066-5.753 6.016-5.767-1.556-.306-2.001-2.44-1.969-11.61l-.702.138-11.815 2.337s.266 3.715.279 7.214c.005 2.939-.174 5.725-.844 6.039z" class="D"/><path d="M666.479 542.25l.279 7.215c6.606-.185 10.104-6.212 11.535-9.552l-11.814 2.337z" fill="#d68d5d"/><path d="M679.517 538.626s3.466-5.469 4.296-10.146c.594-3.339-1.106-15.715-13.557-13.933 0 0-3.613.356-7.01 2.65-2.706 1.823-6.606 5.76-2.241 16.56l1.13 3.648 17.382 1.221z" class="G"/><path d="M619.395 756.176l6.258.192 6.78.206s15.659-17.418 24.441-45.336l.647-1.97c4.812-14.004 14.772-31.582 20.027-47.49l2.261-7.178.624-2.13c3.868-13.437 4.991-22.257 6.022-31.681l-37.919.304s-6.124 64.35-29.141 135.083z" class="M"/><path d="M653.843 599.324c.095 18.028-2.648 25.764-2.648 25.764s16.24 8.242 35.534 2.175c.231-.073 14.515-2.935 14.515-2.935-.325-.732-4.265-13.203-4.576-13.872-4.076-8.74-4.637-12.98-5.123-15.668-.895-5.016-.914-10.207-.466-15.102 1.178-12.959 4.679-23.718 4.679-23.718-5.259-1.195-10.184-3.294-15.655-5.344-1.259 1.565-5.109 3.204-8.446 3.127-3.845-.083-5.089-1.729-4.891-3.521-4.096 2.276-7.362 4.428-7.362 4.428-3.482 6.041-10.542 11.905-11.056 21.175-.122 2.277 5.495 22.986 5.495 23.491z" fill="#e7f1fd"/><path d="M631.829 572.542c5.567-6.495 19.988-20.587 34.872-22.312l-12.841 24.993s-.724 4.285-4.528 6.781c-9.312 6.119-21.158 8.82-21.158 8.82s-8.02-3.496-18.984-11.522c-3.444-2.52-9.493-12.129-9.493-12.129l1.634-5.456s10.266 5.739 13.935 7.391l10.293 4.783c2.156 1.015 4.721.461 6.27-1.349z" class="C"/><path d="M664.273 545.564s15.64.258 15.649-9.477 2.04-16.258-7.948-16.834-11.932 3.136-12.727 6.385c-.79 3.248.956 19.608 5.026 19.926z" class="D"/><g class="G"><path d="M664.852 519.015s4.282 11.421 10.852 13.109c6.575 1.689 9.426-.07 9.426-.07s-5.043-4.002-6.086-10.987c0 0-10.962-7.488-14.192-2.052z"/><path d="M665.916 519.94s-3.201 2.55-3.979 5.029-1.128 7.582-2.621 7.408c0 0-3.228-7.762.405-12.154 3.844-4.656 6.195-.283 6.195-.283z"/></g><path d="M601.33 561.718s-2.206-7.938-10.943-6.815c-1.004.313-3.931 1.481-2.058 4.612 1.378 2.311 1.976 1.119 4.149 4.225s4.526 3.804 7.22 3.434l1.632-5.456zm82.826 204.252s-.518 3.563.813 7.374c0 0 1.048 4.768-3.654 4.859s-5.853-.355-5.322-3.28l1.543-7.984 6.62-.969z" class="D"/><path d="M675.551 780.239s.102.063.296.157h9.199c.181-.094.264-.157.264-.157.531-2.392-.337-6.896-.337-6.896-5.325 4.874-8.66-.122-8.66-.122-.863 2.085-.762 7.018-.762 7.018z" class="E"/><path d="M606.13 775.401s8.667-9.612 11.329-14.503l6.446 3.297-14.41 13.521-3.37-.443.005-1.872z" class="D"/><path d="M600.748 780.396h11.863c1.144-.854 2.211-2.827 3.539-5.476.701-1.413 2.292-2.194 3.921-2.622v8.008h2.463l2.331-8.51c1.531-2.821.123-5.376-.961-7.6-1.255-.004-4.632.854-11.038 8.063-2.106 2.367-4.428 3.215-6.738 3.142-.034.02-.064.038-.093.049-3.867 1.735-4.968 3.893-5.287 4.946z" class="E"/><path d="M666.764 550.232s-9.048 22.336-9.318 26.855-1.062 73.923-1.062 73.923.531 3.19-5.591 1.862-7.715-2.66-7.715-2.66 5.852-42.812 4.254-57.702 12.248-39.175 12.248-39.175l7.184-3.103z" class="C"/><path d="M625.654 756.369l6.781.205s15.653-17.417 24.438-45.336l.651-1.97c4.806-14.004 14.769-31.582 20.023-47.49l2.261-7.178.623-2.13-5.584-4.236s-16.768 27.123-21.953 52.65c-4.512 22.169-22.563 48.85-27.24 55.485z" class="L"/><path d="M674.267 703.258c-.099 12.414.529 40.953 2.15 52.765h6.006l4.971-.045c4.064-20.542 6.947-37.541 9.054-52.187l4.433-31.192c1.186-8.929 2.013-16.403 2.306-22.717l.104-2.904.014-2.751-32.766-3.189c.411 21.747 3.78 55.006 3.728 62.22z" class="M"/><path d="M682.419 756.024l4.97-.046c4.063-20.541 6.95-37.54 9.052-52.186l4.437-31.192c1.186-8.928 2.012-16.402 2.305-22.716l-12.019 7.063s7.673 2.705 4.743 23.18-9.416 73-13.488 75.897z" class="L"/><path d="M680.871 649.681s2.308 8.328 10.293 7.265 19.34-5.85 19.34-5.85l-7.655-24.923c-5.137-17.132-11.495-39.218-14.495-53.149-.839-3.905-1.411-7.164-1.626-9.5l-6.625-12.84s-9.873 22.148-10.407 27.733 11.175 71.264 11.175 71.264z" class="C"/><path d="M681.228 590.117c.354 9.04 2.484 26.59 21.469 35.986.052.021.104.049.151.07-5.138-17.132-11.495-39.218-14.494-53.149-3.485 5.205-7.324 12.115-7.126 17.093z" fill="#4a75cb"/><path d="M598.269 540.204l-5.982 5.982-23.813-23.789 5.987-5.982 23.808 23.789z" class="M"/><path d="M722.476 671.187l-2.087 2.088c-4.114 4.107-10.772 4.107-14.886 0L588.987 556.864a10.5 10.5 0 0 1 0-14.869l2.086-2.087c4.109-4.105 10.772-4.105 14.881 0l116.522 116.413c4.109 4.104 4.109 10.762 0 14.866zM562.535 513.48c-34.603 34.575-90.713 34.575-125.316 0s-34.608-90.631 0-125.202 90.713-34.576 125.316 0 34.608 90.628 0 125.202zM429.459 380.525c-38.891 38.855-38.891 101.851 0 140.705s101.945 38.854 140.836 0 38.891-101.85 0-140.705-101.945-38.854-140.836 0z" fill="#c65447"/><path d="M688.842 577.584l-8.742-26.9c.028.011 11.042 3.277 16.589 6.073 0 0 3.46 4.463 5.609 14.758 0 0 2.262 24.718-2.793 33.758 0 0-15.974 3.19-41.523-5.585v-5.851l33.671 2.131-2.811-18.384z" class="D"/><path d="M680.104 550.683s16.204 1.14 20.112 9.828 5.146 37.583.176 46.089c0 0-6.837 1.949-18.938-.314-.147-.024-.299-.056-.445-.083 0 0-3.862-9.441-.403-11.299 0 0 10.205.529 9.139-2.838s-9.641-41.383-9.641-41.383z" class="C"/><path d="M660.85 595.395s-2.225-2.695-2.702-5.449-1.948-4.794-5.793-5.296-5.493-.561-5.48.523c.005 1.081 3.135 8.635 8.651 13.147s5.324-2.925 5.324-2.925z" class="D"/><path d="M448.753 477.994l5.866-23.713.52-.516-5.814 23.658-.572.571z" class="H"/><path d="M547.708 379.134h-17.871l9.868-9.859c3.882 1.894 7.658 4.083 11.286 6.575l-3.283 3.284z" fill="#f3f7fb"/><path d="M533.474 393.353h-17.87l14.235-14.221h17.87l-14.235 14.221z" fill="#f7c895"/><path d="M492.223 434.566l3.172-12.832h9.671l-12.843 12.832z" fill="#f2f8fe"/><path d="M505.067 421.734h-9.669l2.689-10.878 17.522-17.506h17.869l-28.411 28.384z" class="B"/><path d="M454.012 472.741l5.081-22.926 38.992-38.96-2.691 10.881-3.175 12.833-38.207 38.172z" class="H"/><path d="M428.06 498.668c-2.47-3.566-4.686-7.318-6.623-11.233l33.182-33.154-5.866 23.713-20.693 20.674z" fill="#d9e8fb"/><path d="M449.325 477.423l5.814-23.658 3.954-3.95-5.081 22.926-4.687 4.682z" fill="#a5c4f5"/><path d="M550.991 375.85c-3.626-2.493-7.405-4.684-11.285-6.575l.41-.409c3.918 1.936 7.673 4.149 11.239 6.62l-.364.364z" class="N"/><path d="M458.451 438.805l18.609-75.217.262-.073-18.386 74.805-.485.485z" class="H"/><path d="M518.179 379.13h-12.241l4.516-18.267c7.163.774 14.238 2.414 21.079 4.926l-13.354 13.341z" fill="#f3f7fb"/><path d="M503.944 393.353h-1.529l3.521-14.223h12.241l-14.233 14.223z" fill="#f7c895"/><path d="M501.918 395.379l.501-2.03h1.527l-2.028 2.03z" class="B"/><path d="M462.406 434.851l15.866-71.589a88.98 88.98 0 0 1 22.599-2.912c3.199 0 6.401.173 9.582.516l-4.52 18.268-3.521 14.22-.5 2.027-39.506 39.47z" class="H"/><path d="M417.913 479.302l-.332-.899 20.128-91.613.506-.513c11.184-11.174 24.615-18.739 38.845-22.689l-18.609 75.217-40.538 40.497zM416 473.609c-.349-1.175-.677-2.36-.98-3.556l19.855-80.255 1.194-1.3L416 473.609z" fill="#d9e8fb"/><path d="M415.02 470.053c-1.762-6.962-2.701-14.252-2.701-21.762 0-2.719.122-5.407.363-8.064.607-6.233 1.877-12.414 3.807-18.432h.952l2.014-7.924a88.18 88.18 0 0 1 15.42-24.073l-19.855 80.255z" fill="#e5eef8"/><path d="M458.936 438.321l18.386-74.806.953-.254-15.867 71.587-3.472 3.473zm-41.355 40.081L416 473.609l20.069-85.111 1.64-1.709-20.128 91.613z" fill="#a5c4f5"/><path d="M417.442 421.795h-.953l2.966-7.924-2.013 7.924z" class="H"/><path d="M412.683 440.226c4.075-45.115 42.03-80.469 88.249-80.469 10.924 0 21.381 1.979 31.044 5.591l-.445.444a88.71 88.71 0 0 0-21.075-4.93c-3.182-.345-6.383-.514-9.583-.514a89.02 89.02 0 0 0-22.597 2.911l-.955.257-.261.07c-14.23 3.954-27.66 11.516-38.844 22.69-.173.168-.342.341-.507.51a77.23 77.23 0 0 0-1.639 1.71l-1.194 1.3c-6.57 7.316-11.71 15.462-15.421 24.074-1.121 2.602-2.106 5.249-2.965 7.925a88.39 88.39 0 0 0-3.807 18.431z" class="N"/><path d="M500.934 536.821c-11.471 0-22.43-2.181-32.494-6.147l3.21-12.954 96.07-95.984h17.519c3.786 11.771 5.044 24.182 3.77 36.375-4.891 44.271-42.457 78.71-88.075 78.71z" fill="#f2f8fe"/><path d="M585.238 421.74h-17.52l12.447-12.44c2.02 4.037 3.713 8.199 5.073 12.44z" class="B"/><path d="M468.441 530.676l-6.759-2.998 9.966-9.957-3.207 12.955z" class="H"/><path d="M589.009 458.111c1.274-12.193.016-24.604-3.77-36.375-1.359-4.241-3.052-8.399-5.072-12.435l.229-.229c5.855 11.822 9.153 25.132 9.153 39.218 0 3.32-.185 6.595-.54 9.821z" class="N"/><path d="M6.802 782h899.397a.8.8 0 0 0 .801-.802c0-.439-.359-.802-.801-.802H6.802c-.441 0-.802.363-.802.802s.361.802.802.802z" fill="#283250"/></svg>