<svg xmlns="http://www.w3.org/2000/svg" width="60" height="60" fill="#0a7f2e" xmlns:v="https://vecta.io/nano"><path d="M56.786 41.229L45 34.157v-6.032h-3.75-3.75-6.562v-6.562-3.75V4.688H30a6.06 6.06 0 0 0-3.911 1.433L23.963 7.92a25.3 25.3 0 0 0-6.427 8.289l-5.897-5.896H.938v1.875h9.924l5.866 5.866A25.3 25.3 0 0 0 15 27.243v6.914L3.214 41.229a4.71 4.71 0 0 0-2.276 4.019v6.314H15v1.875h2.018l.938 5.625h24.087l.938-5.625H45v-1.875h14.063v-6.314a4.71 4.71 0 0 0-2.276-4.019zM39.328 30A9.39 9.39 0 0 1 30 38.438a9.39 9.39 0 0 1-9.375-9.375 9.39 9.39 0 0 1 8.438-9.328v1.894c-3.694.464-6.562 3.618-6.562 7.435a7.51 7.51 0 0 0 7.5 7.5c3.818 0 6.971-2.869 7.435-6.562h1.893V30zm-3.781 0c-.448 2.657-2.765 4.688-5.547 4.688-3.102 0-5.625-2.523-5.625-5.625 0-2.782 2.031-5.099 4.688-5.547V30h6.485zM2.813 49.688v-4.439c0-.982.524-1.906 1.366-2.411L15 36.343v9.594H4.688v1.875H15v1.875H2.813zm37.643 7.5H19.544l-.624-3.75h22.163l-.626 3.75zm2.669-5.625h-26.25v-24.32a23.39 23.39 0 0 1 8.298-17.891l2.128-1.799a4.17 4.17 0 0 1 1.763-.882v11.19c-5.767.479-10.313 5.315-10.313 11.202 0 6.203 5.047 11.25 11.25 11.25 5.888 0 10.723-4.547 11.202-10.312h1.923v21.563zm14.063-1.875H45v-1.875h10.313v-1.875H45v-9.594l10.822 6.493a2.83 2.83 0 0 1 1.366 2.412v4.439zM48.362.938l-5.885 5.885a25.34 25.34 0 0 0-2.69-2.652l-2.126-1.799A6.06 6.06 0 0 0 33.75.938h-.937v13.125 3.75 8.438h8.438H45h3.75v-2.757a25.26 25.26 0 0 0-5.08-15.211l5.468-5.469h9.924V.938h-10.7zM34.688 24.375v-4.61a5.64 5.64 0 0 1 4.61 4.61h-4.61zm6.498 0a7.51 7.51 0 0 0-6.498-6.498v-1.894c4.422.442 7.949 3.968 8.391 8.391h-1.893v.001zm5.69 0h-1.923A11.26 11.26 0 0 0 34.688 14.11V2.919a4.18 4.18 0 0 1 1.763.882L38.578 5.6c5.273 4.462 8.297 10.983 8.297 17.892v.882zM57.188 4.688h1.875v1.875h-1.875V4.688zm-7.5 0h5.625v1.875h-5.625V4.688z"/><path d="M.938 14.063h5.625v1.875H.938v-1.875zm7.5 0h1.875v1.875H8.438v-1.875zm27.634 26.629l.872 1.659a14.8 14.8 0 0 0 1.756-1.084l-1.093-1.523a13.17 13.17 0 0 1-1.535.948zm-11.139 2.487a14.75 14.75 0 0 0 1.986.564l.384-1.835a13.24 13.24 0 0 1-1.735-.492l-.635 1.763zm7.752-1.268l.384 1.835c.671-.141 1.34-.33 1.986-.562l-.634-1.765a13.18 13.18 0 0 1-1.736.492zm-3.595.245l-.128 1.871 1.039.036 1.026-.035-.13-1.871a12.96 12.96 0 0 1-1.806-.001zm-7.8-.895a15.01 15.01 0 0 0 1.754 1.085l.874-1.659a13.27 13.27 0 0 1-1.535-.95l-1.093 1.524z"/></svg>